Coconat.glyphspackage
{
color = 3;
glyphname = exclam;
layers = (
{
layerId = m01;
shapes = (
{
closed = 1;
nodes = (
(161,193,l),
(164,373,o),
(190,530,o),
(207,701,c),
(73,701,l),
(90,530,o),
(116,373,o),
(119,193,c)
);
},
{
pos = (43,0);
ref = period;
}
);
width = 280;
},
{
associatedMasterId = m01;
layerId = "B4FBACBA-C7AD-479E-A114-34F8B1E81FB4";
width = 600;
},
{
associatedMasterId = m01;
layerId = "106DA6D1-F163-4962-ABD1-5D396BDF94D3";
width = 600;
},
{
layerId = "CF8A9C28-2F26-4C68-964B-3F562C170337";
shapes = (
{
closed = 1;
nodes = (
(251,193,l),
(254,373,o),
(273,530,o),
(290,701,c),
(50,701,l),
(67,530,o),
(86,373,o),
(89,193,c)
);
},
{
pos = (19,0);
ref = period;
}
);
width = 340;
},
{
associatedMasterId = m01;
layerId = "1EB99897-14F2-44DE-A9A1-3E5C5EB1630C";
name = "9 apr 22, 13:56";
shapes = (
{
closed = 1;
nodes = (
(191,193,l),
(194,373,o),
(213,530,o),
(230,701,c),
(90,701,l),
(107,530,o),
(126,373,o),
(129,193,c)
);
},
{
closed = 1;
nodes = (
(188,1,o),
(211,24,o),
(211,52,cs),
(211,80,o),
(188,103,o),
(160,103,cs),
(132,103,o),
(109,80,o),
(109,52,cs),
(109,24,o),
(132,1,o),
(160,1,cs)
);
}
);
width = 320;
},
{
associatedMasterId = m01;
layerId = "AB41D4FA-9E86-4A3E-A9F5-64A2BBA2AFB6";
width = 297.8125;
}
);
unicode = 33;
}
{
color = 3;
glyphname = quotedbl;
layers = (
{
layerId = m01;
shapes = (
{
closed = 1;
nodes = (
(135,466,l),
(135,524,o),
(136,623,o),
(143,699,c),
(60,699,l),
(67,623,o),
(71,524,o),
(71,466,c)
);
},
{
closed = 1;
nodes = (
(249,466,l),
(250,523,o),
(252,622,o),
(257,699,c),
(174,699,l),
(181,623,o),
(186,524,o),
(186,466,c)
);
}
);
width = 317;
},
{
associatedMasterId = m01;
layerId = "B4FBACBA-C7AD-479E-A114-34F8B1E81FB4";
width = 600;
},
{
associatedMasterId = m01;
layerId = "106DA6D1-F163-4962-ABD1-5D396BDF94D3";
width = 600;
},
{
layerId = "CF8A9C28-2F26-4C68-964B-3F562C170337";
shapes = (
{
closed = 1;
nodes = (
(244,466,l),
(244,524,o),
(245,623,o),
(252,699,c),
(50,699,l),
(57,623,o),
(61,524,o),
(61,466,c)
);
},
{
closed = 1;
nodes = (
(518,466,l),
(519,523,o),
(521,622,o),
(526,699,c),
(323,699,l),
(330,623,o),
(335,524,o),
(335,466,c)
);
}
);
width = 576;
},
{
associatedMasterId = m01;
layerId = "AB41D4FA-9E86-4A3E-A9F5-64A2BBA2AFB6";
shapes = (
{
closed = 1;
nodes = (
(169,466,l),
(169,524,o),
(170,623,o),
(177,699,c),
(57,699,l),
(64,623,o),
(68,524,o),
(68,466,c)
);
},
{
closed = 1;
nodes = (
(333,466,l),
(334,523,o),
(336,622,o),
(341,699,c),
(221,699,l),
(228,623,o),
(233,524,o),
(233,466,c)
);
}
);
width = 397.9375;
}
);
unicode = 34;
}
{
color = 3;
glyphname = numbersign;
layers = (
{
layerId = m01;
shapes = (
{
closed = 1;
nodes = (
(238,654,o),
(233,608,o),
(228,561,c),
(182,205,l),
(173,137,o),
(165,68,o),
(153,0,c),
(222,0,l),
(223,46,o),
(228,91,o),
(233,138,c),
(282,496,l),
(289,545,o),
(302,641,o),
(313,700,c),
(243,700,l)
);
},
{
closed = 1;
nodes = (
(460,449,o),
(511,449,o),
(572,444,c),
(582,511,l),
(521,507,o),
(460,507,o),
(397,507,cs),
(302,507,ls),
(239,507,o),
(178,507,o),
(117,511,c),
(107,444,l),
(168,449,o),
(239,449,o),
(302,449,cs),
(397,449,ls)
);
},
{
closed = 1;
nodes = (
(441,654,o),
(436,608,o),
(431,561,c),
(385,205,l),
(376,137,o),
(368,68,o),
(356,0,c),
(425,0,l),
(426,46,o),
(431,91,o),
(436,138,c),
(485,496,l),
(492,545,o),
(505,641,o),
(516,700,c),
(446,700,l)
);
},
{
closed = 1;
nodes = (
(418,179,o),
(469,179,o),
(530,174,c),
(540,241,l),
(479,237,o),
(418,237,o),
(355,237,cs),
(260,237,ls),
(197,237,o),
(136,237,o),
(75,241,c),
(65,174,l),
(126,179,o),
(197,179,o),
(260,179,cs),
(355,179,ls)
);
}
);
width = 642;
},
{
associatedMasterId = m01;
layerId = "B4FBACBA-C7AD-479E-A114-34F8B1E81FB4";
width = 600;
},
{
associatedMasterId = m01;
layerId = "106DA6D1-F163-4962-ABD1-5D396BDF94D3";
width = 600;
},
{
layerId = "CF8A9C28-2F26-4C68-964B-3F562C170337";
shapes = (
{
closed = 1;
nodes = (
(293,655,o),
(284,624,o),
(266,560,cs),
(171,214,ls),
(153,147,o),
(131,75,o),
(105,0,c),
(178,0,l),
(186,45,o),
(201,94,o),
(212,140,c),
(311,488,ls),
(324,535,o),
(356,644,o),
(375,700,c),
(305,700,l)
);
},
{
closed = 1;
nodes = (
(604,449,o),
(675,449,o),
(761,444,c),
(775,511,l),
(689,507,o),
(604,507,o),
(515,507,cs),
(382,507,ls),
(294,507,o),
(209,507,o),
(123,511,c),
(109,444,l),
(195,449,o),
(294,449,o),
(382,449,cs),
(515,449,ls)
);
},
{
closed = 1;
nodes = (
(623,655,o),
(614,624,o),
(596,560,cs),
(501,214,ls),
(483,147,o),
(461,75,o),
(435,0,c),
(508,0,l),
(516,45,o),
(531,94,o),
(542,140,c),
(641,488,ls),
(654,535,o),
(686,644,o),
(705,700,c),
(635,700,l)
);
},
{
closed = 1;
nodes = (
(545,179,o),
(616,179,o),
(702,174,c),
(716,241,l),
(630,237,o),
(545,237,o),
(457,237,cs),
(324,237,ls),
(235,237,o),
(150,237,o),
(64,241,c),
(50,174,l),
(136,179,o),
(235,179,o),
(324,179,cs),
(457,179,ls)
);
}
);
width = 825;
},
{
associatedMasterId = m01;
layerId = "AB41D4FA-9E86-4A3E-A9F5-64A2BBA2AFB6";
shapes = (
{
closed = 1;
nodes = (
(352,590,o),
(371,558,o),
(395,524,c),
(367,301,l),
(334,253,o),
(302,205,o),
(266,158,c),
(272,158,l),
(245,190,o),
(222,221,o),
(199,255,c),
(228,480,l),
(260,515,o),
(300,581,o),
(335,622,c),
(328,622,l)
);
},
{
closed = 1;
nodes = (
(487,365,o),
(544,365,o),
(613,360,c),
(624,427,l),
(555,423,o),
(487,423,o),
(416,423,cs),
(309,423,ls),
(238,423,o),
(169,423,o),
(100,427,c),
(89,360,l),
(158,365,o),
(238,365,o),
(309,365,cs),
(416,365,ls)
);
},
{
closed = 1;
nodes = (
(498,654,o),
(492,613,o),
(483,561,c),
(421,208,l),
(409,140,o),
(397,70,o),
(381,0,c),
(451,0,l),
(454,46,o),
(462,92,o),
(469,139,c),
(534,494,l),
(543,542,o),
(562,642,o),
(575,700,c),
(505,700,l)
);
},
{
closed = 1;
nodes = (
(379,328,o),
(411,318,o),
(448,295,c),
(425,233,l),
(377,209,o),
(328,186,o),
(277,163,cs),
(234,163,ls),
(194,177,o),
(156,192,o),
(118,209,c),
(142,272,l),
(188,290,o),
(247,324,o),
(296,342,cs),
(339,342,ls)
);
}
);
width = 699.1875;
}
);
unicode = 35;
}
{
color = 3;
glyphname = dollar;
layers = (
{
layerId = m01;
shapes = (
{
ref = S;
},
{
closed = 1;
nodes = (
(316,-91,l),
(352,-91,l),
(352,807,l),
(316,807,l)
);
}
);
width = 646;
},
{
associatedMasterId = m01;
layerId = "B4FBACBA-C7AD-479E-A114-34F8B1E81FB4";
width = 600;
},
{
associatedMasterId = m01;
layerId = "106DA6D1-F163-4962-ABD1-5D396BDF94D3";
width = 600;
},
{
layerId = "CF8A9C28-2F26-4C68-964B-3F562C170337";
shapes = (
{
ref = S;
},
{
closed = 1;
nodes = (
(563,-91,l),
(599,-91,l),
(599,807,l),
(563,807,l)
);
}
);
width = 1040;
},
{
associatedMasterId = m01;
layerId = "AB41D4FA-9E86-4A3E-A9F5-64A2BBA2AFB6";
shapes = (
{
alignment = -1;
ref = S;
},
{
closed = 1;
nodes = (
(393,-91,l),
(429,-91,l),
(429,807,l),
(393,807,l)
);
}
);
width = 812.5;
}
);
metricLeft = S;
metricRight = S;
unicode = 36;
}
{
color = 3;
glyphname = ampersand;
layers = (
{
layerId = m01;
shapes = (
{
closed = 1;
nodes = (
(674,18,o),
(620,72,o),
(558,138,cs),
(473,228,o),
(369,328,o),
(298,409,cs),
(239,476,o),
(208,524,o),
(208,575,cs),
(208,645,o),
(251,679,o),
(306,679,cs),
(362,679,o),
(393,634,o),
(419,545,c),
(481,629,l),
(456,670,o),
(404,711,o),
(320,711,cs),
(205,711,o),
(117,641,o),
(117,550,cs),
(117,479,o),
(159,442,o),
(215,390,c),
(133,360,o),
(45,289,o),
(45,179,cs),
(45,81,o),
(131,-11,o),
(294,-11,cs),
(488,-11,o),
(640,154,o),
(634,361,c),
(538,318,l),
(555,157,o),
(468,34,o),
(312,34,cs),
(194,34,o),
(134,109,o),
(134,192,cs),
(134,303,o),
(201,346,o),
(238,364,c),
(509,82,l),
(534,55,o),
(557,34,o),
(571,2,c),
(703,0,l)
);
}
);
width = 693;
},
{
associatedMasterId = m01;
layerId = "B4FBACBA-C7AD-479E-A114-34F8B1E81FB4";
width = 600;
},
{
associatedMasterId = m01;
layerId = "106DA6D1-F163-4962-ABD1-5D396BDF94D3";
width = 600;
},
{
associatedMasterId = m01;
layerId = "E9E036E2-72B3-4622-AD38-6565342622FC";
name = "29 gen 22, 18:05";
shapes = (
{
closed = 1;
nodes = (
(177,638,o),
(217,679,o),
(272,679,cs),
(335,679,o),
(367,622,o),
(367,561,cs),
(367,495,o),
(318,453,o),
(259,415,c),
(230,453,o),
(177,493,o),
(177,568,cs)
);
},
{
closed = 1;
nodes = (
(494,288,l),
(494,179,o),
(434,34,o),
(290,34,cs),
(180,34,o),
(115,94,o),
(116,192,cs),
(117,303,o),
(180,343,o),
(211,364,c),
(428,136,o),
(448,113,o),
(591,0,c),
(633,93,l),
(539,120,o),
(400,274,o),
(279,389,c),
(318,414,o),
(446,471,o),
(446,579,cs),
(446,647,o),
(391,711,o),
(286,711,cs),
(171,711,o),
(95,642,o),
(95,554,cs),
(95,485,o),
(125,442,o),
(183,390,c),
(123,349,o),
(37,299,o),
(37,179,cs),
(37,93,o),
(117,-11,o),
(290,-11,cs),
(454,-11,o),
(546,116,o),
(577,242,c)
);
}
);
width = 734;
},
{
associatedMasterId = m01;
layerId = "F44AB45C-CE4E-4F1C-B701-056BE9D20BD8";
name = "29 gen 22, 18:07";
shapes = (
{
closed = 1;
nodes = (
(177,638,o),
(217,679,o),
(272,679,cs),
(335,679,o),
(367,622,o),
(367,561,cs),
(367,495,o),
(318,453,o),
(259,415,c),
(230,453,o),
(177,493,o),
(177,568,cs)
);
},
{
closed = 1;
nodes = (
(494,288,l),
(494,179,o),
(434,34,o),
(260,34,cs),
(160,34,o),
(99,84,o),
(100,192,cs),
(101,303,o),
(180,343,o),
(211,364,c),
(428,136,o),
(448,113,o),
(591,0,c),
(633,93,l),
(539,120,o),
(400,274,o),
(279,389,c),
(318,414,o),
(446,471,o),
(446,579,cs),
(446,647,o),
(391,711,o),
(286,711,cs),
(171,711,o),
(95,642,o),
(95,554,cs),
(95,485,o),
(125,442,o),
(183,390,c),
(123,349,o),
(21,299,o),
(21,179,cs),
(21,71,o),
(97,-11,o),
(260,-11,cs),
(454,-11,o),
(546,116,o),
(577,242,c)
);
}
);
width = 734;
},
{
associatedMasterId = m01;
layerId = "9C5A4DFF-1CD1-4BD2-9CBE-0183681AA890";
name = "29 gen 22, 18:12";
shapes = (
{
closed = 1;
nodes = (
(576,72,o),
(514,138,cs),
(429,228,o),
(324,341,o),
(254,421,cs),
(194,489,o),
(177,545,o),
(177,568,cs),
(177,638,o),
(217,679,o),
(272,679,cs),
(328,679,o),
(359,634,o),
(366,581,c),
(439,619,l),
(422,670,o),
(370,711,o),
(286,711,cs),
(171,711,o),
(95,642,o),
(95,554,cs),
(95,485,o),
(125,442,o),
(183,390,c),
(99,360,o),
(11,289,o),
(11,179,cs),
(11,81,o),
(97,-11,o),
(260,-11,cs),
(454,-11,o),
(632,160,o),
(620,341,c),
(514,298,l),
(529,157,o),
(434,34,o),
(278,34,cs),
(160,34,o),
(100,109,o),
(100,192,cs),
(100,303,o),
(169,346,o),
(206,364,c),
(465,82,l),
(490,55,o),
(516,27,o),
(534,0,c),
(659,0,l),
(630,18,o)
);
}
);
width = 734;
},
{
associatedMasterId = m01;
layerId = "498BD50F-F5DD-4C2A-9100-A849CA4B37CC";
name = "29 gen 22, 18:12";
shapes = (
{
closed = 1;
nodes = (
(576,72,o),
(514,138,cs),
(429,228,o),
(324,341,o),
(254,421,cs),
(194,489,o),
(177,545,o),
(177,568,cs),
(177,638,o),
(217,679,o),
(272,679,cs),
(328,679,o),
(359,634,o),
(385,545,c),
(446,627,l),
(422,670,o),
(370,711,o),
(286,711,cs),
(171,711,o),
(95,642,o),
(95,554,cs),
(95,485,o),
(125,442,o),
(183,390,c),
(99,360,o),
(11,289,o),
(11,179,cs),
(11,81,o),
(97,-11,o),
(260,-11,cs),
(454,-11,o),
(632,160,o),
(620,341,c),
(514,298,l),
(529,157,o),
(434,34,o),
(278,34,cs),
(160,34,o),
(100,109,o),
(100,192,cs),
(100,303,o),
(169,346,o),
(206,364,c),
(465,82,l),
(490,55,o),
(516,27,o),
(534,0,c),
(659,0,l),
(630,18,o)
);
}
);
width = 734;
},
{
layerId = "CF8A9C28-2F26-4C68-964B-3F562C170337";
shapes = (
{
closed = 1;
nodes = (
(972,51,o),
(947,68,o),
(845,134,c),
(715,226,o),
(585,317,o),
(455,409,c),
(377,473,o),
(365,505,o),
(365,566,cs),
(365,616,o),
(436,665,o),
(491,665,cs),
(567,665,o),
(686,610,o),
(744,432,c),
(813,647,l),
(716,682,o),
(649,711,o),
(505,711,cs),
(320,711,o),
(190,641,o),
(190,560,cs),
(190,479,o),
(272,432,o),
(340,399,c),
(208,377,o),
(70,294,o),
(70,192,cs),
(70,91,o),
(188,-11,o),
(501,-11,cs),
(773,-11,o),
(1054,119,o),
(1057,416,c),
(823,298,l),
(850,157,o),
(753,34,o),
(516,34,cs),
(384,34,o),
(279,129,o),
(279,222,cs),
(279,303,o),
(333,346,o),
(393,364,c),
(783,91,l),
(817,64,o),
(886,21,o),
(892,2,c),
(1061,0,l)
);
}
);
width = 1121;
},
{
associatedMasterId = m01;
layerId = "AB41D4FA-9E86-4A3E-A9F5-64A2BBA2AFB6";
shapes = (
{
closed = 1;
nodes = (
(767,28,o),
(722,71,o),
(648,137,cs),
(549,227,o),
(437,325,o),
(347,409,cs),
(282,475,o),
(257,518,o),
(257,572,cs),
(257,636,o),
(309,675,o),
(364,675,cs),
(426,675,o),
(485,627,o),
(521,510,c),
(585,635,l),
(537,674,o),
(481,711,o),
(378,711,cs),
(241,711,o),
(140,641,o),
(140,553,cs),
(140,479,o),
(194,439,o),
(254,393,c),
(156,365,o),
(53,291,o),
(53,183,cs),
(53,84,o),
(149,-11,o),
(359,-11,cs),
(577,-11,o),
(769,143,o),
(766,378,c),
(627,312,l),
(647,157,o),
(557,34,o),
(376,34,cs),
(253,34,o),
(179,115,o),
(179,201,cs),
(179,303,o),
(242,346,o),
(286,364,c),
(595,85,l),
(622,58,o),
(660,30,o),
(671,2,c),
(815,0,l)
);
}
);
width = 826.75;
}
);
unicode = 38;
}
{
color = 3;
glyphname = quotesingle;
layers = (
{
layerId = m01;
shapes = (
{
closed = 1;
nodes = (
(135,466,l),
(136,523,o),
(138,622,o),
(143,699,c),
(60,699,l),
(67,623,o),
(72,524,o),
(72,466,c)
);
}
);
width = 203;
},
{
associatedMasterId = m01;
layerId = "B4FBACBA-C7AD-479E-A114-34F8B1E81FB4";
width = 600;
},
{
associatedMasterId = m01;
layerId = "106DA6D1-F163-4962-ABD1-5D396BDF94D3";
width = 600;
},
{
layerId = "CF8A9C28-2F26-4C68-964B-3F562C170337";
shapes = (
{
closed = 1;
nodes = (
(255,466,l),
(256,523,o),
(258,622,o),
(263,699,c),
(60,699,l),
(67,623,o),
(72,524,o),
(72,466,c)
);
}
);
width = 313;
},
{
associatedMasterId = m01;
layerId = "AB41D4FA-9E86-4A3E-A9F5-64A2BBA2AFB6";
shapes = (
{
closed = 1;
nodes = (
(173,466,l),
(174,523,o),
(176,622,o),
(181,699,c),
(60,699,l),
(67,623,o),
(72,524,o),
(72,466,c)
);
}
);
width = 237.375;
}
);
unicode = 39;
}
{
color = 3;
glyphname = parenleft;
layers = (
{
layerId = m01;
shapes = (
{
closed = 1;
nodes = (
(81,38,o),
(199,-139,o),
(360,-220,c),
(379,-197,l),
(247,-89,o),
(185,64,o),
(185,262,cs),
(185,460,o),
(247,613,o),
(379,721,c),
(360,744,l),
(199,663,o),
(81,486,o),
(81,262,cs)
);
}
);
width = 382;
},
{
associatedMasterId = m01;
layerId = "B4FBACBA-C7AD-479E-A114-34F8B1E81FB4";
width = 600;
},
{
associatedMasterId = m01;
layerId = "106DA6D1-F163-4962-ABD1-5D396BDF94D3";
width = 600;
},
{
layerId = "CF8A9C28-2F26-4C68-964B-3F562C170337";
shapes = (
{
closed = 1;
nodes = (
(91,-2,o),
(318,-175,o),
(527,-218,c),
(540,-185,l),
(372,-117,o),
(290,65,o),
(290,263,cs),
(290,461,o),
(372,643,o),
(540,711,c),
(527,744,l),
(318,701,o),
(91,528,o),
(90,263,cs)
);
}
);
width = 569;
},
{
associatedMasterId = m01;
layerId = "AB41D4FA-9E86-4A3E-A9F5-64A2BBA2AFB6";
shapes = (
{
closed = 1;
nodes = (
(84,26,o),
(236,-150,o),
(412,-219,c),
(429,-193,l),
(286,-98,o),
(218,64,o),
(218,262,cs),
(218,460,o),
(286,622,o),
(429,718,c),
(412,744,l),
(236,675,o),
(84,499,o),
(84,262,cs)
);
}
);
width = 440.4375;
}
);
unicode = 40;
}
{
color = 3;
glyphname = parenright;
layers = (
{
layerId = m01;
shapes = (
{
pos = (382,0);
ref = parenleft;
scale = (-1,1);
}
);
width = 382;
},
{
associatedMasterId = m01;
layerId = "B4FBACBA-C7AD-479E-A114-34F8B1E81FB4";
width = 600;
},
{
associatedMasterId = m01;
layerId = "106DA6D1-F163-4962-ABD1-5D396BDF94D3";
width = 600;
},
{
layerId = "CF8A9C28-2F26-4C68-964B-3F562C170337";
shapes = (
{
pos = (570,0);
ref = parenleft;
scale = (-1,1);
}
);
width = 569;
},
{
associatedMasterId = m01;
layerId = "9DF52CDA-CA3D-48F2-808F-307D31A46F8F";
name = "9 apr 22, 13:59";
shapes = (
{
closed = 1;
nodes = (
(299,490,o),
(173,657,o),
(22,758,c),
(20,755,l),
(142,627,o),
(189,484,o),
(189,296,cs),
(189,108,o),
(142,-35,o),
(20,-163,c),
(22,-166,l),
(173,-65,o),
(299,102,o),
(299,296,cs)
);
}
);
width = 382;
},
{
associatedMasterId = m01;
layerId = "AB41D4FA-9E86-4A3E-A9F5-64A2BBA2AFB6";
width = 440.4375;
}
);
unicode = 41;
}
{
color = 3;
glyphname = asterisk;
layers = (
{
layerId = m01;
shapes = (
{
closed = 1;
nodes = (
(110,540,o),
(154,532,o),
(213,518,c),
(175,471,o),
(143,439,o),
(103,409,c),
(169,362,l),
(185,409,o),
(205,449,o),
(238,500,c),
(271,449,o),
(290,409,o),
(308,362,c),
(373,410,l),
(332,439,o),
(301,472,o),
(263,518,c),
(322,532,o),
(367,540,o),
(417,542,c),
(391,618,l),
(350,589,o),
(309,570,o),
(255,547,c),
(258,607,o),
(264,652,o),
(279,700,c),
(198,700,l),
(213,652,o),
(219,607,o),
(223,547,c),
(168,570,o),
(126,589,o),
(84,617,c),
(60,540,l)
);
}
);
width = 477;
},
{
associatedMasterId = m01;
layerId = "B4FBACBA-C7AD-479E-A114-34F8B1E81FB4";
width = 600;
},
{
associatedMasterId = m01;
layerId = "106DA6D1-F163-4962-ABD1-5D396BDF94D3";
width = 600;
},
{
layerId = "CF8A9C28-2F26-4C68-964B-3F562C170337";
shapes = (
{
closed = 1;
nodes = (
(106,532,o),
(137,523,o),
(191,513,c),
(156,470,o),
(137,443,o),
(101,415,c),
(189,356,l),
(201,400,o),
(219,424,o),
(245,472,c),
(272,424,o),
(289,400,o),
(302,356,c),
(389,416,l),
(353,443,o),
(333,470,o),
(298,513,c),
(352,522,o),
(381,532,o),
(427,532,c),
(396,632,l),
(359,606,o),
(328,596,o),
(276,574,c),
(282,630,o),
(282,662,o),
(296,706,c),
(191,706,l),
(205,662,o),
(205,630,o),
(211,574,c),
(159,596,o),
(128,606,o),
(91,632,c),
(60,532,l)
);
}
);
width = 487;
},
{
associatedMasterId = m01;
layerId = "AB41D4FA-9E86-4A3E-A9F5-64A2BBA2AFB6";
width = 480.125;
}
);
unicode = 42;
}
{
color = 3;
glyphname = plus;
layers = (
{
layerId = m01;
shapes = (
{
closed = 1;
nodes = (
(293,34,l),
(339,34,l),
(339,526,l),
(293,526,l)
);
},
{
closed = 1;
nodes = (
(70,303,l),
(70,257,l),
(562,257,l),
(562,303,l)
);
}
);
width = 632;
},
{
associatedMasterId = m01;
layerId = "B4FBACBA-C7AD-479E-A114-34F8B1E81FB4";
width = 600;
},
{
associatedMasterId = m01;
layerId = "106DA6D1-F163-4962-ABD1-5D396BDF94D3";
width = 600;
},
{
layerId = "CF8A9C28-2F26-4C68-964B-3F562C170337";
shapes = (
{
closed = 1;
nodes = (
(443,34,l),
(489,34,l),
(489,526,l),
(443,526,l)
);
},
{
closed = 1;
nodes = (
(60,303,l),
(60,257,l),
(872,257,l),
(872,303,l)
);
}
);
width = 932;
},
{
associatedMasterId = m01;
layerId = "AB41D4FA-9E86-4A3E-A9F5-64A2BBA2AFB6";
shapes = (
{
closed = 1;
nodes = (
(340,34,l),
(386,34,l),
(386,526,l),
(340,526,l)
);
},
{
closed = 1;
nodes = (
(67,303,l),
(67,257,l),
(659,257,l),
(659,303,l)
);
}
);
width = 725.75;
}
);
unicode = 43;
}
{
color = 3;
glyphname = comma;
kernLeft = period;
kernRight = period;
layers = (
{
layerId = m01;
shapes = (
{
closed = 1;
nodes = (
(14,-140,l),
(69,-109,o),
(147,-58,o),
(147,21,cs),
(147,69,o),
(120,98,o),
(101,115,c),
(24,63,l),
(56,36,o),
(67,4,o),
(67,-24,cs),
(67,-69,o),
(43,-106,o),
(10,-135,c)
);
}
);
width = 180;
},
{
associatedMasterId = m01;
layerId = "A243CDD8-8C6C-4B12-9F07-8D2E2A9150E5";
name = "15. 10. 21, 14:20";
shapes = (
{
closed = 1;
nodes = (
(100,-104,l),
(168,112,l),
(76,112,l),
(28,-104,l)
);
}
);
width = 208;
},
{
associatedMasterId = m01;
layerId = "B4FBACBA-C7AD-479E-A114-34F8B1E81FB4";
width = 600;
},
{
associatedMasterId = m01;
layerId = "106DA6D1-F163-4962-ABD1-5D396BDF94D3";
width = 0;
},
{
layerId = "CF8A9C28-2F26-4C68-964B-3F562C170337";
shapes = (
{
closed = 1;
nodes = (
(53,-241,l),
(185,-184,o),
(232,-110,o),
(232,-32,cs),
(232,49,o),
(166,103,o),
(133,124,c),
(20,27,l),
(59,2,o),
(78,-16,o),
(95,-46,cs),
(128,-104,o),
(114,-186,o),
(46,-239,c)
);
}
);
width = 250;
},
{
associatedMasterId = m01;
layerId = "E0EA2EBF-ACFA-4602-9B91-03DC4683B548";
name = "9 apr 22, 13:23";
shapes = (
{
closed = 1;
nodes = (
(26,-130,l),
(81,-99,o),
(152,-39,o),
(152,26,cs),
(152,55,o),
(132,98,o),
(113,115,c),
(36,63,l),
(68,36,o),
(74,-12,o),
(74,-29,cs),
(74,-60,o),
(53,-96,o),
(22,-125,c)
);
}
);
width = 192;
},
{
associatedMasterId = m01;
layerId = "AB41D4FA-9E86-4A3E-A9F5-64A2BBA2AFB6";
shapes = (
{
closed = 1;
nodes = (
(-12,-157,l),
(94,-131,o),
(183,-63,o),
(183,17,cs),
(183,70,o),
(155,98,o),
(132,115,c),
(25,61,l),
(58,34,o),
(68,-1,o),
(68,-26,cs),
(68,-74,o),
(34,-122,o),
(-16,-152,c)
);
}
);
width = 210.125;
}
);
unicode = 44;
}
{
color = 3;
glyphname = hyphen;
kernLeft = hyphen;
kernRight = hyphen;
layers = (
{
layerId = m01;
shapes = (
{
closed = 1;
nodes = (
(45,265,l),
(328,265,l),
(328,311,l),
(45,311,l)
);
}
);
width = 373;
},
{
associatedMasterId = m01;
layerId = "B4FBACBA-C7AD-479E-A114-34F8B1E81FB4";
width = 600;
},
{
associatedMasterId = m01;
layerId = "106DA6D1-F163-4962-ABD1-5D396BDF94D3";
width = 168;
},
{
layerId = "CF8A9C28-2F26-4C68-964B-3F562C170337";
shapes = (
{
closed = 1;
nodes = (
(45,265,l),
(468,265,l),
(468,321,l),
(45,321,l)
);
}
);
width = 513;
},
{
associatedMasterId = m01;
layerId = "AB41D4FA-9E86-4A3E-A9F5-64A2BBA2AFB6";
shapes = (
{
closed = 1;
nodes = (
(45,265,l),
(372,265,l),
(372,314,l),
(45,314,l)
);
}
);
width = 416.75;
}
);
unicode = 45;
}
{
color = 3;
glyphname = period;
kernLeft = period;
kernRight = period;
layers = (
{
layerId = m01;
shapes = (
{
closed = 1;
nodes = (
(128,-5,o),
(154,20,o),
(154,52,cs),
(154,83,o),
(128,108,o),
(97,108,cs),
(66,108,o),
(40,83,o),
(40,52,cs),
(40,20,o),
(66,-5,o),
(97,-5,cs)
);
}
);
width = 192;
},
{
associatedMasterId = m01;
layerId = "B4FBACBA-C7AD-479E-A114-34F8B1E81FB4";
width = 600;
},
{
associatedMasterId = m01;
layerId = "106DA6D1-F163-4962-ABD1-5D396BDF94D3";
width = 0;
},
{
layerId = "CF8A9C28-2F26-4C68-964B-3F562C170337";
shapes = (
{
closed = 1;
nodes = (
(216,-11,o),
(268,23,o),
(268,66,cs),
(268,108,o),
(216,142,o),
(152,142,cs),
(87,142,o),
(35,108,o),
(35,66,cs),
(35,23,o),
(87,-11,o),
(152,-11,cs)
);
}
);
width = 303;
},
{
associatedMasterId = "CF8A9C28-2F26-4C68-964B-3F562C170337";
layerId = "B77CBD29-9A8E-4623-8501-4A3B7D117FB2";
name = "4 apr 22, 14:45";
shapes = (
{
closed = 1;
nodes = (
(231,-8,o),
(287,43,o),
(287,79,cs),
(287,114,o),
(260,137,o),
(192,137,cs),
(111,137,o),
(50,95,o),
(50,50,cs),
(50,23,o),
(77,-8,o),
(144,-8,cs)
);
}
);
width = 337;
},
{
associatedMasterId = m01;
layerId = "AB41D4FA-9E86-4A3E-A9F5-64A2BBA2AFB6";
shapes = (
{
closed = 1;
nodes = (
(161,-7,o),
(195,21,o),
(195,56,cs),
(195,91,o),
(161,119,o),
(120,119,cs),
(78,119,o),
(44,91,o),
(44,56,cs),
(44,21,o),
(78,-7,o),
(120,-7,cs)
);
}
);
width = 237.3125;
}
);
unicode = 46;
}
{
color = 3;
glyphname = slash;
layers = (
{
layerId = m01;
shapes = (
{
closed = 1;
nodes = (
(72,-204,o),
(85,-163,o),
(96,-133,qs),
(385,656,ls),
(396,686,o),
(412,724,o),
(422,744,q),
(353,744,l),
(350,724,o),
(338,686,o),
(327,656,qs),
(134,130,o),
(231,393,o),
(38,-133,cs),
(27,-163,o),
(10,-204,o),
(0,-224,q),
(68,-224,l)
);
}
);
width = 422;
},
{
associatedMasterId = m01;
layerId = "B4FBACBA-C7AD-479E-A114-34F8B1E81FB4";
width = 600;
},
{
associatedMasterId = m01;
layerId = "106DA6D1-F163-4962-ABD1-5D396BDF94D3";
width = 600;
},
{
layerId = "CF8A9C28-2F26-4C68-964B-3F562C170337";
shapes = (
{
closed = 1;
nodes = (
(75,-166,o),
(90,-134,o),
(106,-106,qs),
(527,621,ls),
(569,694,o),
(592,729,o),
(605,746,q),
(541,746,l),
(527,712,o),
(509,679,o),
(480,629,qs),
(339,387,o),
(199,144,o),
(58,-98,cs),
(42,-125,o),
(15,-163,o),
(0,-183,q),
(67,-183,l)
);
}
);
width = 605;
},
{
associatedMasterId = m01;
layerId = "AB41D4FA-9E86-4A3E-A9F5-64A2BBA2AFB6";
width = 479.1875;
}
);
unicode = 47;
}
{
color = 3;
glyphname = zero;
layers = (
{
layerId = m01;
shapes = (
{
closed = 1;
nodes = (
(458,-15,o),
(593,138,o),
(593,359,cs),
(593,579,o),
(464,712,o),
(339,712,cs),
(188,712,o),
(45,567,o),
(45,319,cs),
(45,118,o),
(164,-15,o),
(299,-15,cs)
);
},
{
closed = 1;
nodes = (
(228,41,o),
(144,149,o),
(144,379,cs),
(144,591,o),
(238,658,o),
(306,658,cs),
(409,658,o),
(494,532,o),
(494,308,cs),
(494,118,o),
(426,41,o),
(345,41,cs)
);
}
);
width = 638;
},
{
associatedMasterId = m01;
layerId = "B4FBACBA-C7AD-479E-A114-34F8B1E81FB4";
width = 600;
},
{
associatedMasterId = m01;
layerId = "106DA6D1-F163-4962-ABD1-5D396BDF94D3";
width = 600;
},
{
layerId = "CF8A9C28-2F26-4C68-964B-3F562C170337";
shapes = (
{
closed = 1;
nodes = (
(858,-17,o),
(1053,174,o),
(1053,364,cs),
(1053,560,o),
(872,728,o),
(557,728,cs),
(250,728,o),
(55,528,o),
(55,338,cs),
(55,142,o),
(236,-17,o),
(551,-17,cs)
);
},
{
closed = 1;
nodes = (
(446,33,o),
(275,174,o),
(275,394,cs),
(275,572,o),
(370,679,o),
(514,679,cs),
(672,679,o),
(833,517,o),
(833,308,cs),
(833,139,o),
(758,33,o),
(604,33,cs)
);
}
);
width = 1108;
},
{
associatedMasterId = "CF8A9C28-2F26-4C68-964B-3F562C170337";
layerId = "3B31E151-723C-41AA-BBD3-C8514A321FE1";
name = "29 mar 22, 23:28";
shapes = (
{
closed = 1;
nodes = (
(879,-17,o),
(1053,183,o),
(1053,364,cs),
(1053,546,o),
(872,728,o),
(557,728,cs),
(250,728,o),
(55,528,o),
(55,338,cs),
(55,145,o),
(246,-17,o),
(561,-17,cs)
);
},
{
closed = 1;
nodes = (
(446,33,o),
(275,174,o),
(275,394,cs),
(275,572,o),
(370,679,o),
(504,679,cs),
(672,679,o),
(833,517,o),
(833,308,cs),
(833,139,o),
(758,33,o),
(614,33,cs)
);
}
);
width = 1118;
},
{
associatedMasterId = "CF8A9C28-2F26-4C68-964B-3F562C170337";
layerId = "3827F237-102E-4A0E-A328-8B2066344B12";
name = "29 mar 22, 23:31";
shapes = (
{
closed = 1;
nodes = (
(888,-17,o),
(1053,183,o),
(1053,364,c),
(1053,546,o),
(872,728,o),
(557,728,c),
(257,728,o),
(65,556,o),
(65,368,cs),
(65,141,o),
(303,-17,o),
(580,-17,c)
);
},
{
closed = 1;
nodes = (
(456,33,o),
(285,208,o),
(285,438,c),
(285,566,o),
(340,679,o),
(504,679,cs),
(672,679,o),
(833,517,o),
(833,308,c),
(833,159,o),
(778,33,o),
(624,33,cs)
);
}
);
width = 1118;
},
{
associatedMasterId = m01;
layerId = "AB41D4FA-9E86-4A3E-A9F5-64A2BBA2AFB6";
shapes = (
{
closed = 1;
nodes = (
(590,-16,o),
(744,149,o),
(744,361,cs),
(744,573,o),
(598,717,o),
(414,717,cs),
(214,717,o),
(55,555,o),
(55,325,cs),
(55,126,o),
(193,-16,o),
(385,-16,cs)
);
},
{
closed = 1;
nodes = (
(303,39,o),
(192,157,o),
(192,384,cs),
(192,585,o),
(286,665,o),
(378,665,cs),
(498,665,o),
(607,527,o),
(607,308,cs),
(607,125,o),
(537,39,o),
(433,39,cs)
);
}
);
width = 801.75;
}
);
unicode = 48;
}
{
color = 3;
glyphname = one;
layers = (
{
layerId = m01;
shapes = (
{
closed = 1;
nodes = (
(259,0,l),
(259,0,o),
(229,38,o),
(229,169,c),
(228,496,ls),
(228,623,o),
(232,671,o),
(240,720,c),
(227,720,l),
(178,657,o),
(87,549,o),
(15,504,c),
(15,498,l),
(28,501,o),
(105,521,o),
(144,553,c),
(141,526,l),
(140,169,l),
(140,38,o),
(111,0,o),
(111,0,c)
);
}
);
width = 328;
},
{
associatedMasterId = m01;
layerId = "B4FBACBA-C7AD-479E-A114-34F8B1E81FB4";
width = 600;
},
{
associatedMasterId = m01;
layerId = "106DA6D1-F163-4962-ABD1-5D396BDF94D3";
width = 600;
},
{
layerId = "CF8A9C28-2F26-4C68-964B-3F562C170337";
shapes = (
{
closed = 1;
nodes = (
(443,0,l),
(443,0,o),
(413,38,o),
(413,169,c),
(412,496,ls),
(412,623,o),
(416,671,o),
(424,720,c),
(401,720,l),
(318,636,o),
(195,525,o),
(65,497,c),
(65,483,l),
(106,480,o),
(171,491,o),
(195,499,c),
(193,478,l),
(192,169,l),
(192,38,o),
(166,0,o),
(166,0,c)
);
}
);
width = 543;
},
{
associatedMasterId = m01;
layerId = "1AFBC118-8A92-4FF2-9D11-DAD3E11A8252";
name = "9 apr 22, 12:48";
shapes = (
{
closed = 1;
nodes = (
(263,0,l),
(263,0,o),
(233,38,o),
(233,169,c),
(232,496,ls),
(232,623,o),
(236,671,o),
(244,720,c),
(241,720,l),
(192,657,o),
(87,549,o),
(15,504,c),
(15,498,l),
(28,501,o),
(111,531,o),
(144,559,c),
(141,526,l),
(140,169,l),
(140,38,o),
(111,0,o),
(111,0,c)
);
}
);
width = 328;
},
{
associatedMasterId = m01;
layerId = "AB41D4FA-9E86-4A3E-A9F5-64A2BBA2AFB6";
shapes = (
{
closed = 1;
nodes = (
(317,0,l),
(317,0,o),
(287,38,o),
(287,169,c),
(286,496,ls),
(286,623,o),
(290,671,o),
(298,720,c),
(281,720,l),
(222,650,o),
(121,542,o),
(31,502,c),
(31,493,l),
(52,494,o),
(126,512,o),
(160,536,c),
(157,511,l),
(156,169,l),
(156,38,o),
(128,0,o),
(128,0,c)
);
}
);
width = 395.1875;
}
);
unicode = 49;
}
{
color = 3;
glyphname = two;
layers = (
{
layerId = m01;
shapes = (
{
closed = 1;
nodes = (
(510,-4,l),
(554,139,l),
(547,143,l),
(469,59,o),
(281,59,o),
(156,61,c),
(175,94,o),
(199,118,o),
(239,162,c),
(378,305,ls),
(463,393,o),
(522,462,o),
(522,546,cs),
(522,629,o),
(443,712,o),
(299,712,cs),
(208,712,o),
(129,686,o),
(55,630,c),
(81,493,l),
(87,491,l),
(132,646,o),
(207,671,o),
(274,671,cs),
(353,671,o),
(406,610,o),
(406,518,cs),
(406,370,o),
(275,292,o),
(40,-1,c)
);
}
);
width = 584;
},
{
associatedMasterId = m01;
layerId = "B4FBACBA-C7AD-479E-A114-34F8B1E81FB4";
width = 600;
},
{
associatedMasterId = m01;
layerId = "106DA6D1-F163-4962-ABD1-5D396BDF94D3";
width = 600;
},
{
associatedMasterId = m01;
layerId = "AED29F33-3735-46FF-AF72-5DC6644D19CA";
name = "5 feb 22, 18:03";
shapes = (
{
closed = 1;
nodes = (
(133,-1,l),
(153,52,o),
(180,85,o),
(239,162,c),
(378,315,l),
(460,406,o),
(507,462,o),
(507,546,cs),
(507,629,o),
(438,712,o),
(299,712,cs),
(208,712,o),
(139,686,o),
(65,630,c),
(97,491,l),
(142,646,o),
(207,669,o),
(277,669,cs),
(339,669,o),
(393,589,o),
(393,508,cs),
(393,370,o),
(275,292,o),
(40,-1,c)
);
},
{
closed = 1;
nodes = (
(554,139,l),
(547,143,l),
(465,55,o),
(264,52,o),
(144,54,c),
(79,-1,l),
(510,-4,l)
);
}
);
width = 584;
},
{
layerId = "CF8A9C28-2F26-4C68-964B-3F562C170337";
shapes = (
{
closed = 1;
nodes = (
(861,-1,l),
(929,221,l),
(921,224,l),
(867,133,o),
(458,133,o),
(313,138,c),
(365,178,o),
(463,231,o),
(513,258,c),
(643,325,l),
(766,388,o),
(873,450,o),
(873,548,cs),
(873,656,o),
(748,720,o),
(515,720,cs),
(386,720,o),
(266,690,o),
(109,629,c),
(140,405,l),
(149,402,l),
(271,626,o),
(401,676,o),
(489,674,cs),
(594,672,o),
(641,628,o),
(641,549,cs),
(641,421,o),
(492,327,o),
(40,-1,c)
);
}
);
width = 969;
},
{
associatedMasterId = "CF8A9C28-2F26-4C68-964B-3F562C170337";
layerId = "BEC4FA29-1DCF-4DCF-BBA7-3645624B8D7C";
name = "12 mar 22, 16:38";
shapes = (
{
closed = 1;
nodes = (
(851,-1,l),
(895,241,l),
(887,244,l),
(833,153,o),
(514,153,o),
(369,158,c),
(421,198,o),
(473,231,o),
(523,258,c),
(653,325,l),
(776,388,o),
(863,450,o),
(863,548,cs),
(863,656,o),
(738,720,o),
(505,720,cs),
(376,720,o),
(276,690,o),
(119,629,c),
(154,403,l),
(276,629,o),
(391,676,o),
(479,674,cs),
(584,672,o),
(631,628,o),
(631,549,cs),
(631,421,o),
(502,327,o),
(70,-1,c)
);
}
);
width = 985;
},
{
associatedMasterId = m01;
layerId = "297DA0C5-039A-48CE-B521-3B5C9693AAAB";
name = "9 apr 22, 12:49";
shapes = (
{
closed = 1;
nodes = (
(510,-4,l),
(554,139,l),
(547,143,l),
(469,59,o),
(281,52,o),
(160,54,c),
(178,83,o),
(202,114,o),
(239,162,c),
(378,315,ls),
(460,406,o),
(507,462,o),
(507,546,cs),
(507,629,o),
(438,712,o),
(299,712,cs),
(208,712,o),
(139,686,o),
(65,630,c),
(97,491,l),
(142,646,o),
(207,671,o),
(274,671,cs),
(339,671,o),
(396,599,o),
(396,508,cs),
(396,370,o),
(275,292,o),
(40,-1,c)
);
}
);
width = 584;
},
{
associatedMasterId = m01;
layerId = "AB41D4FA-9E86-4A3E-A9F5-64A2BBA2AFB6";
shapes = (
{
closed = 1;
nodes = (
(629,-3,l),
(681,165,l),
(673,168,l),
(603,82,o),
(346,82,o),
(214,85,c),
(244,120,o),
(291,153,o),
(334,192,c),
(470,311,ls),
(567,391,o),
(641,458,o),
(641,547,cs),
(641,637,o),
(548,715,o),
(376,715,cs),
(273,715,o),
(181,687,o),
(81,630,c),
(109,466,l),
(116,463,l),
(185,640,o),
(277,673,o),
(351,672,cs),
(438,671,o),
(489,616,o),
(489,528,cs),
(489,386,o),
(352,303,o),
(49,-1,c)
);
}
);
width = 713.6875;
}
);
unicode = 50;
}
{
color = 3;
glyphname = three;
layers = (
{
layerId = m01;
shapes = (
{
closed = 1;
nodes = (
(73,574,l),
(149,644,o),
(296,649,o),
(410,645,c),
(196,375,l),
(213,376,l),
(308,376,o),
(441,337,o),
(441,211,cs),
(441,71,o),
(339,32,o),
(274,32,cs),
(187,32,o),
(113,106,o),
(93,203,c),
(86,204,l),
(60,58,l),
(108,19,o),
(182,-14,o),
(274,-14,cs),
(397,-14,o),
(543,63,o),
(543,217,cs),
(543,349,o),
(437,414,o),
(291,419,c),
(515,700,l),
(102,704,l),
(68,576,l)
);
}
);
width = 603;
},
{
associatedMasterId = m01;
layerId = "B4FBACBA-C7AD-479E-A114-34F8B1E81FB4";
width = 600;
},
{
associatedMasterId = m01;
layerId = "106DA6D1-F163-4962-ABD1-5D396BDF94D3";
width = 600;
},
{
associatedMasterId = m01;
layerId = "BD4C7783-B4A9-4A63-9478-D56E9A51DB71";
name = "22 gen 22, 15:20";
shapes = (
{
closed = 1;
nodes = (
(230,375,l),
(239,376,o),
(240,376,o),
(247,376,c),
(342,376,o),
(475,337,o),
(475,211,cs),
(475,71,o),
(373,32,o),
(308,32,c),
(200,32,o),
(121,123,o),
(91,225,c),
(72,104,l),
(85,75,o),
(164,-14,o),
(308,-14,c),
(431,-14,o),
(577,63,o),
(577,217,c),
(577,354,o),
(462,419,o),
(307,419,c),
(283,419,o),
(303,419,o),
(272,419,c)
);
},
{
closed = 1;
nodes = (
(561,700,l),
(470,700,l),
(230,375,l),
(281,384,l)
);
},
{
closed = 1;
nodes = (
(93,572,l),
(156,687,o),
(494,644,o),
(494,644,c),
(551,700,l),
(110,703,l),
(86,576,l)
);
}
);
width = 600;
},
{
associatedMasterId = m01;
layerId = "32223190-B2C1-45AD-B4C0-89F812F7B667";
name = "5 feb 22, 18:03";
shapes = (
{
closed = 1;
nodes = (
(206,375,l),
(215,376,o),
(216,376,o),
(223,376,c),
(318,376,o),
(451,337,o),
(451,211,cs),
(451,71,o),
(349,32,o),
(284,32,cs),
(197,32,o),
(122,106,o),
(98,206,c),
(96,205,l),
(70,58,l),
(118,19,o),
(192,-14,o),
(284,-14,cs),
(407,-14,o),
(553,63,o),
(553,217,cs),
(553,354,o),
(438,419,o),
(283,419,c),
(259,419,o),
(279,419,o),
(248,419,c)
);
},
{
closed = 1;
nodes = (
(358,490,o),
(441,595,o),
(525,700,c),
(464,700,l),
(206,375,l),
(274,385,l)
);
},
{
closed = 1;
nodes = (
(85,552,l),
(137,646,o),
(322,650,o),
(440,650,c),
(525,700,l),
(112,704,l),
(78,556,l)
);
}
);
width = 613;
},
{
layerId = "CF8A9C28-2F26-4C68-964B-3F562C170337";
shapes = (
{
closed = 1;
nodes = (
(117,494,l),
(181,580,o),
(436,597,o),
(616,571,c),
(310,338,l),
(320,328,l),
(591,358,o),
(698,285,o),
(698,201,cs),
(698,105,o),
(660,34,o),
(472,34,cs),
(337,34,o),
(131,140,o),
(89,295,c),
(81,295,l),
(50,88,l),
(103,60,o),
(244,-14,o),
(444,-14,cs),
(710,-14,o),
(931,83,o),
(931,217,cs),
(931,387,o),
(700,415,o),
(470,386,c),
(899,700,l),
(159,700,l),
(105,497,l)
);
}
);
width = 981;
},
{
associatedMasterId = m01;
layerId = "AB41D4FA-9E86-4A3E-A9F5-64A2BBA2AFB6";
shapes = (
{
closed = 1;
nodes = (
(99,549,l),
(171,624,o),
(352,633,o),
(486,622,c),
(244,363,l),
(258,361,l),
(408,370,o),
(533,321,o),
(533,208,cs),
(533,82,o),
(451,33,o),
(348,33,cs),
(246,33,o),
(131,117,o),
(104,232,c),
(96,232,l),
(69,67,l),
(118,32,o),
(213,-14,o),
(339,-14,cs),
(507,-14,o),
(676,69,o),
(676,217,cs),
(676,361,o),
(531,414,o),
(359,409,c),
(647,700,l),
(132,703,l),
(91,551,l)
);
}
);
width = 733;
}
);
unicode = 51;
}
{
color = 3;
glyphname = four;
layers = (
{
layerId = m01;
shapes = (
{
closed = 1;
nodes = (
(30,182,l),
(386,182,l),
(386,169,ls),
(386,38,o),
(360,0,o),
(360,0,c),
(512,0,l),
(510,0,o),
(480,38,o),
(480,169,cs),
(480,180,l),
(509,179,o),
(541,177,o),
(571,172,c),
(571,239,l),
(541,234,o),
(509,232,o),
(480,231,c),
(479,528,ls),
(479,592,o),
(480,656,o),
(490,721,c),
(372,707,l)
);
},
{
closed = 1;
nodes = (
(385,641,l),
(388,606,o),
(388,565,o),
(388,529,cs),
(386,229,l),
(118,229,l)
);
}
);
width = 616;
},
{
associatedMasterId = m01;
layerId = "B4FBACBA-C7AD-479E-A114-34F8B1E81FB4";
width = 600;
},
{
associatedMasterId = m01;
layerId = "106DA6D1-F163-4962-ABD1-5D396BDF94D3";
width = 600;
},
{
associatedMasterId = m01;
layerId = "F768E503-870F-4F03-A395-22D882E1FC4F";
name = "5 feb 22, 18:04";
shapes = (
{
closed = 1;
nodes = (
(30,182,l),
(98,198,l),
(421,710,l),
(362,707,l)
);
},
{
closed = 1;
nodes = (
(362,707,l),
(378,649,o),
(378,589,o),
(378,529,c),
(376,169,l),
(376,38,o),
(350,0,o),
(350,0,c),
(502,0,l),
(502,0,o),
(472,38,o),
(472,169,c),
(471,528,l),
(471,592,o),
(472,656,o),
(482,721,c)
);
},
{
closed = 1;
nodes = (
(434,182,o),
(495,182,o),
(556,172,c),
(556,239,l),
(495,229,o),
(434,229,o),
(371,229,c),
(108,229,l),
(30,182,l),
(371,182,l)
);
}
);
width = 616;
},
{
layerId = "CF8A9C28-2F26-4C68-964B-3F562C170337";
shapes = (
{
closed = 1;
nodes = (
(0,173,l),
(605,173,l),
(605,166,ls),
(605,29,o),
(575,0,o),
(575,0,c),
(852,0,l),
(852,0,o),
(825,32,o),
(825,169,cs),
(825,173,l),
(872,173,o),
(920,173,o),
(967,163,c),
(967,241,l),
(920,231,o),
(872,231,o),
(825,231,c),
(825,569,l),
(825,614,o),
(825,691,o),
(842,736,c),
(605,712,l)
);
},
{
closed = 1;
nodes = (
(595,613,l),
(605,584,o),
(605,556,o),
(605,527,c),
(605,231,l),
(162,231,l)
);
}
);
width = 1007;
},
{
associatedMasterId = m01;
layerId = "148EF7DE-FAF1-4EC6-A80E-819A63358432";
name = "9 apr 22, 12:52";
shapes = (
{
closed = 1;
nodes = (
(30,182,l),
(376,182,l),
(376,169,ls),
(376,38,o),
(350,0,o),
(350,0,c),
(502,0,l),
(502,0,o),
(472,38,o),
(472,169,cs),
(472,180,l),
(500,179,o),
(528,177,o),
(556,172,c),
(556,239,l),
(528,234,o),
(500,232,o),
(472,231,c),
(471,528,ls),
(471,592,o),
(472,656,o),
(482,721,c),
(362,707,l)
);
},
{
closed = 1;
nodes = (
(375,636,l),
(378,601,o),
(378,565,o),
(378,529,cs),
(376.333,229,l),
(118,229,l)
);
}
);
width = 616;
},
{
associatedMasterId = m01;
layerId = "AB41D4FA-9E86-4A3E-A9F5-64A2BBA2AFB6";
shapes = (
{
closed = 1;
nodes = (
(21,179,l),
(454,179,l),
(454,168,ls),
(454,35,o),
(427,0,o),
(427,0,c),
(618,0,l),
(617,0,o),
(588,36,o),
(588,169,cs),
(588,178,l),
(622,177,o),
(659,176,o),
(695,169,c),
(695,240,l),
(659,233,o),
(622,232,o),
(588,231,c),
(587,541,ls),
(587,599,o),
(588,667,o),
(600,726,c),
(445,709,l)
);
},
{
closed = 1;
nodes = (
(451,632,l),
(456,599,o),
(456,562,o),
(456,528,cs),
(454,230,l),
(132,230,l)
);
}
);
width = 738.1875;
}
);
unicode = 52;
}
{
color = 3;
glyphname = five;
layers = (
{
layerId = m01;
shapes = (
{
closed = 1;
nodes = (
(101,34,o),
(175,-14,o),
(283,-14,cs),
(432,-14,o),
(548,83,o),
(548,227,cs),
(548,356,o),
(440,440,o),
(300,440,cs),
(233,440,o),
(179,423,o),
(156,410,c),
(171,646,l),
(482,619,l),
(516,720,l),
(512,723,l),
(460,700,o),
(283,704,o),
(124,704,c),
(102,349,l),
(127,349,l),
(262,436,o),
(451,380,o),
(451,201,cs),
(451,93,o),
(386,32,o),
(294,32,cs),
(190,32,o),
(112,121,o),
(89,216,c),
(86,215,l),
(60,68,l)
);
}
);
width = 633;
},
{
associatedMasterId = m01;
layerId = "B4FBACBA-C7AD-479E-A114-34F8B1E81FB4";
width = 600;
},
{
associatedMasterId = m01;
layerId = "106DA6D1-F163-4962-ABD1-5D396BDF94D3";
width = 600;
},
{
associatedMasterId = m01;
layerId = "DE0492FB-7EA5-4D42-8FE7-AFCEEA3CFB47";
name = "5 feb 22, 18:04";
shapes = (
{
closed = 1;
nodes = (
(101,34,o),
(175,-14,o),
(283,-14,cs),
(432,-14,o),
(548,83,o),
(548,227,cs),
(548,356,o),
(440,440,o),
(300,440,cs),
(233,440,o),
(179,423,o),
(156,410,c),
(171,652,l),
(482,619,l),
(519,716,l),
(515,718,l),
(394,700,o),
(283,704,o),
(124,704,c),
(102,349,l),
(102,349,o),
(127,349,o),
(127,349,cs),
(262,436,o),
(451,380,o),
(451,201,cs),
(451,93,o),
(386,32,o),
(294,32,cs),
(190,32,o),
(112,121,o),
(89,216,c),
(86,215,l),
(60,68,l)
);
}
);
width = 633;
},
{
layerId = "CF8A9C28-2F26-4C68-964B-3F562C170337";
shapes = (
{
closed = 1;
nodes = (
(79,69,o),
(207,-14,o),
(472,-14,cs),
(668,-14,o),
(926,63,o),
(926,227,cs),
(926,392,o),
(734,440,o),
(472,440,cs),
(367,440,o),
(266,422,o),
(209,404,c),
(221,597,l),
(824,533,l),
(877,716,l),
(869,718,l),
(627,684,o),
(493,687,o),
(167,704,c),
(139,339,l),
(183,339,l),
(417,426,o),
(691,369,o),
(691,201,cs),
(691,91,o),
(621,34,o),
(465,34,cs),
(340,34,o),
(126,121,o),
(82,295,c),
(74,295,l),
(40,95,l)
);
}
);
width = 976;
},
{
associatedMasterId = m01;
layerId = "AB41D4FA-9E86-4A3E-A9F5-64A2BBA2AFB6";
shapes = (
{
closed = 1;
nodes = (
(105,45,o),
(196,-14,o),
(353,-14,cs),
(517,-14,o),
(677,77,o),
(677,227,cs),
(677,367,o),
(543,440,o),
(365,440,cs),
(286,440,o),
(217,423,o),
(184,408,c),
(198,631,l),
(600,592,l),
(640,719,l),
(635,721,l),
(523,695,o),
(360,699,o),
(148,704,c),
(125,346,l),
(155,346,l),
(321,433,o),
(537,377,o),
(537,201,cs),
(537,92,o),
(470,33,o),
(358,33,cs),
(248,33,o),
(127,121,o),
(98,241,c),
(93,240,l),
(65,76,l)
);
}
);
width = 762.0625;
}
);
unicode = 53;
}
{
color = 3;
glyphname = six;
layers = (
{
layerId = m01;
shapes = (
{
closed = 1;
nodes = (
(446,-15,o),
(565,84,o),
(565,220,cs),
(565,356,o),
(467,440,o),
(349,440,cs),
(256,440,o),
(193,382,o),
(165,334,c),
(191,532,o),
(312,647,o),
(463,709,c),
(459,715,l),
(186,651,o),
(55,467,o),
(55,257,cs),
(55,99,o),
(157,-15,o),
(311,-15,cs)
);
},
{
closed = 1;
nodes = (
(231,18,o),
(156,93,o),
(161,257,c),
(176,328,o),
(243,390,o),
(326,390,cs),
(397,390,o),
(460,335,o),
(460,205,cs),
(460,68,o),
(390,18,o),
(311,18,cs)
);
}
);
width = 625;
},
{
associatedMasterId = m01;
layerId = "B4FBACBA-C7AD-479E-A114-34F8B1E81FB4";
width = 600;
},
{
associatedMasterId = m01;
layerId = "106DA6D1-F163-4962-ABD1-5D396BDF94D3";
width = 600;
},
{
associatedMasterId = m01;
layerId = "5732CC5C-25DD-4F61-A028-85B4C30D1556";
name = "5 feb 22, 18:04";
shapes = (
{
closed = 1;
nodes = (
(50,89,o),
(152,-15,o),
(306,-15,cs),
(441,-15,o),
(560,84,o),
(560,220,cs),
(560,356,o),
(462,440,o),
(344,440,cs),
(218,440,o),
(148,333,o),
(143,292,c),
(50,247,l)
);
},
{
closed = 1;
nodes = (
(171,328,o),
(238,390,o),
(321,390,cs),
(392,390,o),
(455,335,o),
(455,205,cs),
(455,68,o),
(385,18,o),
(306,18,cs),
(226,18,o),
(151,93,o),
(156,257,c)
);
},
{
closed = 1;
nodes = (
(444,715,l),
(200,655,o),
(50,447,o),
(50,247,c),
(156,272,l),
(156,509,o),
(322,638,o),
(448,705,c)
);
}
);
width = 620;
},
{
layerId = "CF8A9C28-2F26-4C68-964B-3F562C170337";
shapes = (
{
closed = 1;
nodes = (
(802,-14,o),
(1050,77,o),
(1050,241,cs),
(1050,396,o),
(868,459,o),
(656,459,cs),
(478,459,o),
(361,398,o),
(302,353,c),
(356,570,o),
(600,682,o),
(822,716,c),
(810,730,l),
(269,710,o),
(66,478,o),
(60,304,cs),
(60,101,o),
(269,-14,o),
(569,-14,cs)
);
},
{
closed = 1;
nodes = (
(428,37,o),
(282,105,o),
(294,279,c),
(384,355,o),
(487,380,o),
(588,378,cs),
(715,375,o),
(825,319,o),
(825,215,cs),
(825,95,o),
(725,37,o),
(583,37,cs)
);
}
);
width = 1105;
},
{
associatedMasterId = "CF8A9C28-2F26-4C68-964B-3F562C170337";
layerId = "054A5556-D4D5-4050-9413-DC6B5F71D613";
name = "4 apr 22, 14:28";
shapes = (
{
closed = 1;
nodes = (
(85,101,o),
(294,-14,o),
(594,-14,cs),
(827,-14,o),
(1075,77,o),
(1075,241,cs),
(1075,396,o),
(893,450,o),
(651,450,cs),
(503,450,o),
(386,398,o),
(327,353,c),
(381,570,o),
(625,672,o),
(807,716,c),
(795,730,l),
(294,700,o),
(91,478,o),
(85,304,cs)
);
},
{
closed = 1;
nodes = (
(409,370,o),
(512,400,o),
(603,398,cs),
(740,395,o),
(850,319,o),
(850,215,cs),
(850,95,o),
(750,32,o),
(608,32,cs),
(453,32,o),
(306,110,o),
(319,294,c)
);
}
);
width = 1135;
},
{
associatedMasterId = m01;
layerId = "2F290723-6DAC-407E-931C-E9B4E6D459BD";
name = "9 apr 22, 12:53";
shapes = (
{
closed = 1;
nodes = (
(55,89,o),
(157,-15,o),
(311,-15,cs),
(446,-15,o),
(565,84,o),
(565,220,cs),
(565,356,o),
(467,440,o),
(349,440,cs),
(256,440,o),
(193,382,o),
(165,334,c),
(191,532,o),
(339,644,o),
(453,705,c),
(449,715,l),
(205,655,o),
(55,447,o),
(55,247,cs)
);
},
{
closed = 1;
nodes = (
(176,328,o),
(243,390,o),
(326,390,cs),
(397,390,o),
(460,335,o),
(460,205,cs),
(460,68,o),
(390,18,o),
(311,18,cs),
(231,18,o),
(156,93,o),
(161,257,c)
);
}
);
width = 625;
},
{
associatedMasterId = m01;
layerId = "AB41D4FA-9E86-4A3E-A9F5-64A2BBA2AFB6";
shapes = (
{
closed = 1;
nodes = (
(557,-15,o),
(717,82,o),
(717,227,cs),
(717,369,o),
(592,446,o),
(445,446,cs),
(325,446,o),
(246,387,o),
(208,340,c),
(243,544,o),
(402,658,o),
(575,711,c),
(569,720,l),
(212,669,o),
(58,470,o),
(57,272,cs),
(57,100,o),
(192,-15,o),
(392,-15,cs)
);
},
{
closed = 1;
nodes = (
(293,24,o),
(195,97,o),
(203,264,c),
(241,336,o),
(319,387,o),
(408,386,cs),
(496,385,o),
(574,330,o),
(574,208,cs),
(574,76,o),
(495,24,o),
(396,24,cs)
);
}
);
width = 784.375;
}
);
unicode = 54;
}
{
color = 3;
glyphname = seven;
layers = (
{
layerId = m01;
shapes = (
{
closed = 1;
nodes = (
(28,611,l),
(121,628,o),
(281,641,o),
(422,634,c),
(264,320,ls),
(197,188,o),
(144,87,o),
(74,0,c),
(191,0,l),
(204,50,o),
(241,138,o),
(266,187,cs),
(523,700,l),
(370,703,o),
(90,707,o),
(41,711,c),
(24,613,l)
);
}
);
width = 536;
},
{
associatedMasterId = m01;
layerId = "B4FBACBA-C7AD-479E-A114-34F8B1E81FB4";
width = 600;
},
{
associatedMasterId = m01;
layerId = "106DA6D1-F163-4962-ABD1-5D396BDF94D3";
width = 600;
},
{
associatedMasterId = m01;
layerId = "DC413119-A2B8-44D0-BD5A-619BB5C8F67C";
name = "5 feb 22, 18:04";
shapes = (
{
closed = 1;
nodes = (
(516,700,l),
(363,703,o),
(90,707,o),
(41,711,c),
(24,613,l),
(28,611,l),
(129,629,o),
(332,632,o),
(452,634,c)
);
},
{
closed = 1;
nodes = (
(183,160,l),
(157,107,o),
(143,87,o),
(84,0,c),
(177,0,l),
(190,50,o),
(214,99,o),
(239,148,c),
(516,700,l),
(448,684,l)
);
}
);
width = 536;
},
{
layerId = "CF8A9C28-2F26-4C68-964B-3F562C170337";
shapes = (
{
closed = 1;
nodes = (
(36,509,l),
(181,563,o),
(472,581,o),
(697,563,c),
(339,160,ls),
(299,115,o),
(253,71,o),
(178,0,c),
(363,0,l),
(428,170,o),
(559,317,o),
(632,398,cs),
(904,700,l),
(751,703,o),
(134,707,o),
(85,711,c),
(30,511,l)
);
}
);
width = 924;
},
{
associatedMasterId = m01;
layerId = "FA9A8AC4-6A63-4F07-B4FE-47BD0AB05EC0";
name = "9 apr 22, 12:55";
shapes = (
{
closed = 1;
nodes = (
(28,611,l),
(121,628,o),
(281,641,o),
(422,634,c),
(183,160,ls),
(156,107,o),
(143,87,o),
(84,0,c),
(184,0,l),
(197,50,o),
(234,138,o),
(259,187,cs),
(516,700,l),
(363,703,o),
(90,707,o),
(41,711,c),
(24,613,l)
);
}
);
width = 536;
},
{
associatedMasterId = m01;
layerId = "AB41D4FA-9E86-4A3E-A9F5-64A2BBA2AFB6";
shapes = (
{
closed = 1;
nodes = (
(34,579,l),
(144,608,o),
(344,622,o),
(512,612,c),
(291,270,ls),
(233,165,o),
(182,82,o),
(110,0,c),
(249,0,l),
(278,88,o),
(344,194,o),
(384,253,cs),
(646,700,l),
(493,703,o),
(108,707,o),
(59,711,c),
(30,581,l)
);
}
);
width = 645.375;
}
);
unicode = 55;
}
{
color = 3;
glyphname = eight;
layers = (
{
layerId = m01;
shapes = (
{
closed = 1;
nodes = (
(434,299,o),
(471,245,o),
(471,177,cs),
(471,93,o),
(409,30,o),
(312,30,cs),
(212,30,o),
(123,94,o),
(124,192,cs),
(125,303,o),
(202,336,o),
(255,362,c),
(321,343,l)
);
},
{
closed = 1;
nodes = (
(45,93,o),
(125,-15,o),
(303,-15,cs),
(473,-15,o),
(568,95,o),
(568,198,cs),
(568,297,o),
(505,356,o),
(386,401,c),
(413,407,o),
(518,461,o),
(518,559,cs),
(518,642,o),
(428,712,o),
(322,712,cs),
(163,712,o),
(95,627,o),
(95,544,cs),
(95,468,o),
(134,428,o),
(226,381,c),
(144,362,o),
(45,299,o),
(45,179,cs)
);
},
{
closed = 1;
nodes = (
(185,633,o),
(233,678,o),
(301,678,cs),
(380,678,o),
(439,622,o),
(439,544,cs),
(439,475,o),
(382,436,o),
(346,415,c),
(324,421,o),
(286,434,o),
(260,449,cs),
(205,481,o),
(185,517,o),
(185,556,cs)
);
}
);
width = 613;
},
{
associatedMasterId = m01;
layerId = "B4FBACBA-C7AD-479E-A114-34F8B1E81FB4";
width = 600;
},
{
associatedMasterId = m01;
layerId = "106DA6D1-F163-4962-ABD1-5D396BDF94D3";
width = 600;
},
{
associatedMasterId = m01;
layerId = "8A203321-9437-454E-8BB6-1F2BA1CDCC88";
name = "22 gen 22, 16:13";
shapes = (
{
closed = 1;
nodes = (
(426,299,o),
(463,245,o),
(463,177,cs),
(463,93,o),
(401,34,o),
(304,34,cs),
(204,34,o),
(126,104,o),
(127,199,cs),
(128,303,o),
(194,336,o),
(247,362,c),
(313,343,l)
);
},
{
closed = 1;
nodes = (
(48,103,o),
(117,-11,o),
(295,-11,cs),
(465,-11,o),
(560,95,o),
(560,198,cs),
(560,280,o),
(497,356,o),
(378,401,c),
(411,407,o),
(516,461,o),
(516,559,cs),
(516,642,o),
(426,711,o),
(320,711,cs),
(161,711,o),
(93,627,o),
(93,544,cs),
(93,468,o),
(126,428,o),
(212,381,c),
(130,352,o),
(48,287,o),
(48,186,cs)
);
},
{
closed = 1;
nodes = (
(183,633,o),
(231,678,o),
(299,678,cs),
(378,678,o),
(437,622,o),
(437,544,cs),
(437,475,o),
(380,436,o),
(344,415,c),
(322,421,o),
(284,434,o),
(258,449,cs),
(203,481,o),
(183,517,o),
(183,556,cs)
);
}
);
width = 613;
},
{
layerId = "CF8A9C28-2F26-4C68-964B-3F562C170337";
shapes = (
{
closed = 1;
nodes = (
(746,272,o),
(815,230,o),
(815,166,cs),
(815,87,o),
(718,39,o),
(556,39,cs),
(391,39,o),
(262,111,o),
(262,219,cs),
(262,283,o),
(295,326,o),
(388,350,c),
(563,312,ls)
);
},
{
closed = 1;
nodes = (
(40,110,o),
(181,-12,o),
(532,-12,cs),
(847,-12,o),
(1036,93,o),
(1036,209,cs),
(1036,302,o),
(919,367,o),
(730,406,c),
(850,419,o),
(940,481,o),
(940,551,cs),
(940,647,o),
(764,720,o),
(522,720,cs),
(265,720,o),
(136,629,o),
(136,536,cs),
(136,474,o),
(177,417,o),
(318,373,c),
(133,362,o),
(40,267,o),
(40,200,cs)
);
},
{
closed = 1;
nodes = (
(324,625,o),
(389,674,o),
(504,674,cs),
(654,674,o),
(761,614,o),
(761,533,cs),
(761,485,o),
(711,439,o),
(652,420,c),
(581,428,o),
(499,438,o),
(448,452,cs),
(346,479,o),
(324,525,o),
(324,573,cs)
);
}
);
width = 1076;
},
{
associatedMasterId = "CF8A9C28-2F26-4C68-964B-3F562C170337";
layerId = "E04CAE3E-99A0-46E1-8F1B-9DF53BEAEAF1";
name = "12 mar 22, 11:23";
shapes = (
{
closed = 1;
nodes = (
(764,326,o),
(855,261,o),
(855,175,cs),
(855,87,o),
(798,35,o),
(626,35,cs),
(461,35,o),
(302,121,o),
(302,248,cs),
(302,322,o),
(380,372,o),
(455,378,c),
(630,353,l)
);
},
{
closed = 1;
nodes = (
(80,85,o),
(333,-12,o),
(602,-12,cs),
(877,-12,o),
(1086,67,o),
(1086,190,cs),
(1086,322,o),
(871,363,o),
(760,379,c),
(903,394,o),
(1004,464,o),
(1004,544,cs),
(1004,663,o),
(731,720,o),
(556,720,cs),
(270,720,o),
(159,639,o),
(159,556,cs),
(159,481,o),
(233,429,o),
(360,400,c),
(146,375,o),
(80,305,o),
(80,216,cs)
);
},
{
closed = 1;
nodes = (
(348,645,o),
(405,687,o),
(538,687,cs),
(694,687,o),
(815,620,o),
(815,521,cs),
(815,465,o),
(783,433,o),
(641,405,c),
(594,409,o),
(534,420,o),
(489,435,cs),
(384,470,o),
(348,512,o),
(348,573,cs)
);
}
);
width = 1166;
},
{
associatedMasterId = "CF8A9C28-2F26-4C68-964B-3F562C170337";
layerId = "3FF778EA-531D-4D1C-BBFD-25EF8DD586E4";
name = "12 mar 22, 11:58";
shapes = (
{
closed = 1;
nodes = (
(180,472,o),
(242,410,o),
(394,369,cs),
(603,312,l),
(787,273,o),
(855,230,o),
(855,150,cs),
(855,87,o),
(778,35,o),
(596,35,cs),
(461,35,o),
(302,121,o),
(302,230,cs),
(302,297,o),
(353,353,o),
(457,370,c),
(368,381,l),
(254,388,o),
(80,302,o),
(80,196,cs),
(80,85,o),
(262,-12,o),
(572,-12,cs),
(857,-12,o),
(1076,67,o),
(1076,205,cs),
(1076,322,o),
(927,384,o),
(727,420,c),
(649,432,o),
(571,447,o),
(492,472,cs),
(394,503,o),
(368,535,o),
(368,583,cs),
(368,635,o),
(433,687,o),
(548,687,cs),
(698,687,o),
(795,620,o),
(795,549,cs),
(795,498,o),
(749,457,o),
(661,429,c),
(736,418,l),
(836,418,o),
(984,477,o),
(984,567,cs),
(984,663,o),
(808,720,o),
(566,720,cs),
(309,720,o),
(180,639,o),
(180,546,cs)
);
}
);
width = 1166;
},
{
associatedMasterId = "CF8A9C28-2F26-4C68-964B-3F562C170337";
layerId = "98D14A85-3D6C-410D-BD03-3BE24A2E0B73";
name = "12 mar 22, 12:08";
shapes = (
{
closed = 1;
nodes = (
(160,472,o),
(218,397,o),
(374,369,cs),
(583,332,l),
(766,293,o),
(835,230,o),
(835,166,cs),
(835,87,o),
(758,29,o),
(576,29,cs),
(421,29,o),
(282,111,o),
(282,219,cs),
(282,315,o),
(356,388,o),
(460,405,c),
(397,399,l),
(165,376,o),
(60,289,o),
(60,200,cs),
(60,90,o),
(201,-12,o),
(552,-12,cs),
(867,-12,o),
(1056,73,o),
(1056,209,cs),
(1056,315,o),
(937,397,o),
(737,436,c),
(634,445,o),
(532,456,o),
(472,472,cs),
(370,499,o),
(348,535,o),
(348,583,cs),
(348,635,o),
(413,691,o),
(528,691,cs),
(678,691,o),
(785,624,o),
(785,543,cs),
(785,477,o),
(688,433,o),
(648,426,c),
(643,416,l),
(816,438,o),
(964,471,o),
(964,561,cs),
(964,657,o),
(788,720,o),
(546,720,cs),
(289,720,o),
(160,639,o),
(160,546,cs)
);
}
);
width = 1116;
},
{
associatedMasterId = "CF8A9C28-2F26-4C68-964B-3F562C170337";
layerId = "B801EAFA-849A-4378-965D-CA4BDD932247";
name = "12 mar 22, 12:14";
shapes = (
{
closed = 1;
nodes = (
(767,299,o),
(835,230,o),
(835,166,cs),
(835,87,o),
(758,29,o),
(576,29,cs),
(421,29,o),
(282,111,o),
(282,219,cs),
(282,283,o),
(315,346,o),
(367.179,370.266,c),
(583,332,ls)
);
},
{
closed = 1;
nodes = (
(160,484,o),
(201,421,o),
(307,386,c),
(138,362,o),
(60,277,o),
(60,200,cs),
(60,90,o),
(201,-12,o),
(552,-12,cs),
(867,-12,o),
(1056,73,o),
(1056,209,cs),
(1056,312,o),
(943,393,o),
(740,432,c),
(874,445,o),
(964,491,o),
(964,561,cs),
(964,657,o),
(788,720,o),
(546,720,cs),
(289,720,o),
(160,639,o),
(160,546,cs)
);
},
{
closed = 1;
nodes = (
(348,635,o),
(413,691,o),
(528,691,cs),
(678,691,o),
(785,624,o),
(785,543,cs),
(785,495,o),
(735,459,o),
(691,440,c),
(605,448,o),
(523,458,o),
(472,472,cs),
(370,499,o),
(348,535,o),
(348,583,cs)
);
}
);
width = 1116;
},
{
associatedMasterId = "CF8A9C28-2F26-4C68-964B-3F562C170337";
layerId = "7D5CDA0D-B576-4410-AD70-DB99AA0EAD5D";
name = "4 apr 22, 14:17";
shapes = (
{
closed = 1;
nodes = (
(786,292,o),
(855,230,o),
(855,166,cs),
(855,87,o),
(778,29,o),
(596,29,cs),
(441,29,o),
(302,111,o),
(302,219,cs),
(302,283,o),
(335,346,o),
(420,372,c),
(603,332,ls)
);
},
{
closed = 1;
nodes = (
(80,90,o),
(221,-12,o),
(572,-12,cs),
(887,-12,o),
(1076,73,o),
(1076,209,cs),
(1076,312,o),
(963,393,o),
(760,432,c),
(894,445,o),
(984,491,o),
(984,561,cs),
(984,657,o),
(808,720,o),
(566,720,cs),
(309,720,o),
(180,639,o),
(180,546,cs),
(180,484,o),
(221,437,o),
(369,387,c),
(163,382,o),
(80,277,o),
(80,200,cs)
);
},
{
closed = 1;
nodes = (
(368,635,o),
(433,691,o),
(548,691,cs),
(698,691,o),
(805,624,o),
(805,543,cs),
(805,495,o),
(755,459,o),
(711,440,c),
(625,448,o),
(543,458,o),
(492,472,cs),
(390,499,o),
(368,535,o),
(368,583,cs)
);
}
);
width = 1156;
},
{
associatedMasterId = m01;
layerId = "11D776D0-41DD-4518-AEEB-048B000C3730";
name = "9 apr 22, 12:55";
shapes = (
{
closed = 1;
nodes = (
(426,299,o),
(463,245,o),
(463,177,cs),
(463,93,o),
(401,30,o),
(304,30,cs),
(204,30,o),
(115,94,o),
(116,192,cs),
(117,303,o),
(194,336,o),
(247,362,c),
(313,343,l)
);
},
{
closed = 1;
nodes = (
(37,93,o),
(117,-15,o),
(295,-15,cs),
(465,-15,o),
(560,95,o),
(560,198,cs),
(560,297,o),
(497,356,o),
(378,401,c),
(411,407,o),
(516,461,o),
(516,559,cs),
(516,642,o),
(426,712,o),
(320,712,cs),
(161,712,o),
(93,627,o),
(93,544,cs),
(93,468,o),
(132,428,o),
(218,381,c),
(136,362,o),
(37,299,o),
(37,179,cs)
);
},
{
closed = 1;
nodes = (
(183,633,o),
(231,678,o),
(299,678,cs),
(378,678,o),
(437,622,o),
(437,544,cs),
(437,475,o),
(380,436,o),
(344,415,c),
(322,421,o),
(284,434,o),
(258,449,cs),
(203,481,o),
(183,517,o),
(183,556,cs)
);
}
);
width = 613;
},
{
associatedMasterId = m01;
layerId = "AB41D4FA-9E86-4A3E-A9F5-64A2BBA2AFB6";
shapes = (
{
closed = 1;
nodes = (
(539,291,o),
(586,240,o),
(586,174,cs),
(586,91,o),
(513,33,o),
(395,33,cs),
(275,33,o),
(173,99,o),
(174,200,cs),
(175,297,o),
(238,333,o),
(304,358,c),
(404,333,l)
);
},
{
closed = 1;
nodes = (
(50,98,o),
(150,-14,o),
(382,-14,cs),
(597,-14,o),
(721,94,o),
(721,201,cs),
(721,299,o),
(641,359,o),
(501,403,c),
(557,411,o),
(657,467,o),
(657,557,cs),
(657,644,o),
(540,715,o),
(392,715,cs),
(202,715,o),
(115,628,o),
(115,542,cs),
(115,470,o),
(154,425,o),
(262,379,c),
(148,362,o),
(50,289,o),
(50,186,cs)
);
},
{
closed = 1;
nodes = (
(235,631,o),
(289,677,o),
(371,677,cs),
(473,677,o),
(547,620,o),
(547,541,cs),
(547,478,o),
(492,437,o),
(449,417,c),
(411,423,o),
(360,435,o),
(326,450,cs),
(256,480,o),
(235,520,o),
(235,561,cs)
);
}
);
width = 782.6875;
}
);
unicode = 56;
}
{
color = 3;
glyphname = nine;
layers = (
{
layerId = m01;
shapes = (
{
closed = 1;
nodes = (
(414,49,o),
(545,233,o),
(545,443,cs),
(545,601,o),
(443,715,o),
(289,715,cs),
(154,715,o),
(35,616,o),
(35,480,cs),
(35,344,o),
(133,260,o),
(251,260,cs),
(344,260,o),
(407,318,o),
(435,366,c),
(409,168,o),
(288,53,o),
(137,-9,c),
(141,-15,l)
);
},
{
closed = 1;
nodes = (
(203,310,o),
(140,365,o),
(140,495,cs),
(140,632,o),
(210,682,o),
(289,682,cs),
(369,682,o),
(444,607,o),
(439,443,c),
(424,372,o),
(357,310,o),
(274,310,cs)
);
}
);
width = 580;
},
{
associatedMasterId = m01;
layerId = "B4FBACBA-C7AD-479E-A114-34F8B1E81FB4";
width = 600;
},
{
associatedMasterId = m01;
layerId = "106DA6D1-F163-4962-ABD1-5D396BDF94D3";
width = 600;
},
{
associatedMasterId = m01;
layerId = "7CA9F08E-1BDE-4795-8E95-0A5E14079B60";
name = "5 feb 22, 18:04";
shapes = (
{
closed = 1;
nodes = (
(560,611,o),
(458,715,o),
(304,715,cs),
(169,715,o),
(50,616,o),
(50,480,cs),
(50,344,o),
(148,260,o),
(266,260,cs),
(392,260,o),
(462,367,o),
(467,408,c),
(560,453,l)
);
},
{
closed = 1;
nodes = (
(439,372,o),
(372,310,o),
(289,310,cs),
(218,310,o),
(155,365,o),
(155,495,cs),
(155,632,o),
(225,682,o),
(304,682,cs),
(384,682,o),
(459,607,o),
(454,443,c)
);
},
{
closed = 1;
nodes = (
(166,-15,l),
(410,45,o),
(560,253,o),
(560,453,c),
(454,428,l),
(454,191,o),
(288,62,o),
(162,-5,c)
);
}
);
width = 600;
},
{
layerId = "CF8A9C28-2F26-4C68-964B-3F562C170337";
shapes = (
{
closed = 1;
nodes = (
(821,6,o),
(1024,238,o),
(1030,412,cs),
(1030,615,o),
(821,730,o),
(521,730,cs),
(288,730,o),
(40,639,o),
(40,475,cs),
(40,320,o),
(222,257,o),
(434,257,cs),
(612,257,o),
(729,318,o),
(788,363,c),
(734,146,o),
(490,34,o),
(268,0,c),
(280,-14,l)
);
},
{
closed = 1;
nodes = (
(375,341,o),
(265,397,o),
(265,501,cs),
(265,621,o),
(365,679,o),
(507,679,cs),
(662,679,o),
(808,611,o),
(796,437,c),
(706,361,o),
(603,336,o),
(502,338,cs)
);
}
);
width = 1070;
},
{
associatedMasterId = "CF8A9C28-2F26-4C68-964B-3F562C170337";
layerId = "B390599D-1855-477A-80CA-42051F49057E";
name = "4 apr 22, 14:22";
shapes = (
{
closed = 1;
nodes = (
(1050,615,o),
(841,730,o),
(541,730,cs),
(308,730,o),
(60,639,o),
(60,475,cs),
(60,320,o),
(242,266,o),
(484,266,cs),
(632,266,o),
(749,318,o),
(808,363,c),
(754,146,o),
(510,44,o),
(328,0,c),
(340,-14,l),
(841,16,o),
(1044,238,o),
(1050,412,cs)
);
},
{
closed = 1;
nodes = (
(285,621,o),
(385,684,o),
(527,684,cs),
(682,684,o),
(829,606,o),
(816,422,c),
(726,346,o),
(623,316,o),
(532,318,cs),
(395,321,o),
(285,397,o),
(285,501,cs)
);
}
);
width = 1135;
},
{
associatedMasterId = m01;
layerId = "1D7EAD17-1DD5-40E7-9C95-327D977B9431";
name = "9 apr 22, 12:54";
shapes = (
{
closed = 1;
nodes = (
(560,611,o),
(458,715,o),
(304,715,cs),
(169,715,o),
(50,616,o),
(50,480,cs),
(50,344,o),
(148,260,o),
(266,260,cs),
(359,260,o),
(422,318,o),
(450,366,c),
(424,168,o),
(276,56,o),
(162,-5,c),
(166,-15,l),
(410,45,o),
(560,253,o),
(560,453,cs)
);
},
{
closed = 1;
nodes = (
(155,632,o),
(225,682,o),
(304,682,cs),
(384,682,o),
(459,607,o),
(454,443,c),
(439,372,o),
(372,310,o),
(289,310,cs),
(218,310,o),
(155,365,o),
(155,495,cs)
);
}
);
width = 600;
},
{
associatedMasterId = m01;
layerId = "AB41D4FA-9E86-4A3E-A9F5-64A2BBA2AFB6";
shapes = (
{
closed = 1;
nodes = (
(561,36,o),
(715,235,o),
(717,433,cs),
(717,605,o),
(581,720,o),
(382,720,cs),
(216,720,o),
(57,623,o),
(57,478,cs),
(57,337,o),
(181,259,o),
(328,259,cs),
(448,259,o),
(528,318,o),
(565,365,c),
(531,161,o),
(371,47,o),
(198,-6,c),
(204,-15,l)
);
},
{
closed = 1;
nodes = (
(277,320,o),
(199,375,o),
(199,497,cs),
(199,629,o),
(278,681,o),
(377,681,cs),
(481,681,o),
(578,608,o),
(571,441,c),
(532,369,o),
(454,318,o),
(365,319,cs)
);
}
);
width = 767.1875;
}
);
unicode = 57;
}
{
color = 3;
glyphname = less;
layers = (
{
layerId = m01;
shapes = (
{
closed = 1;
nodes = (
(86,285,l),
(477,101,l),
(477,55,l),
(40,262,l),
(40,308,l),
(477,513,l),
(477,467,l)
);
}
);
width = 517;
},
{
associatedMasterId = m01;
layerId = "B4FBACBA-C7AD-479E-A114-34F8B1E81FB4";
width = 600;
},
{
associatedMasterId = m01;
layerId = "106DA6D1-F163-4962-ABD1-5D396BDF94D3";
width = 600;
},
{
layerId = "CF8A9C28-2F26-4C68-964B-3F562C170337";
shapes = (
{
closed = 1;
nodes = (
(116,285,l),
(850,101,l),
(850,55,l),
(70,262,l),
(70,308,l),
(850,513,l),
(850,467,l)
);
}
);
width = 920;
},
{
associatedMasterId = m01;
layerId = "AB41D4FA-9E86-4A3E-A9F5-64A2BBA2AFB6";
shapes = (
{
closed = 1;
nodes = (
(95,285,l),
(594,101,l),
(594,55,l),
(49,262,l),
(49,308,l),
(594,513,l),
(594,467,l)
);
}
);
width = 642.9375;
}
);
unicode = 60;
}
{
color = 3;
glyphname = equal;
layers = (
{
layerId = m01;
shapes = (
{
closed = 1;
nodes = (
(76,380,l),
(76,334,l),
(526,334,l),
(526,380,l)
);
},
{
closed = 1;
nodes = (
(76,205,l),
(76,159,l),
(526,159,l),
(526,205,l)
);
}
);
width = 600;
},
{
associatedMasterId = m01;
layerId = "B4FBACBA-C7AD-479E-A114-34F8B1E81FB4";
width = 600;
},
{
associatedMasterId = m01;
layerId = "106DA6D1-F163-4962-ABD1-5D396BDF94D3";
width = 600;
},
{
layerId = "CF8A9C28-2F26-4C68-964B-3F562C170337";
shapes = (
{
closed = 1;
nodes = (
(60,380,l),
(60,334,l),
(852,334,l),
(852,380,l)
);
},
{
closed = 1;
nodes = (
(60,205,l),
(60,159,l),
(852,159,l),
(852,205,l)
);
}
);
width = 912;
},
{
associatedMasterId = m01;
layerId = "AB41D4FA-9E86-4A3E-A9F5-64A2BBA2AFB6";
shapes = (
{
closed = 1;
nodes = (
(71,380,l),
(71,334,l),
(628,334,l),
(628,380,l)
);
},
{
closed = 1;
nodes = (
(71,205,l),
(71,159,l),
(628,159,l),
(628,205,l)
);
}
);
width = 697.5;
}
);
unicode = 61;
}
{
color = 3;
glyphname = greater;
layers = (
{
layerId = m01;
shapes = (
{
closed = 1;
nodes = (
(40,513,l),
(477,308,l),
(477,262,l),
(40,55,l),
(40,101,l),
(431,285,l),
(40,467,l)
);
}
);
width = 517;
},
{
associatedMasterId = m01;
layerId = "B4FBACBA-C7AD-479E-A114-34F8B1E81FB4";
width = 600;
},
{
associatedMasterId = m01;
layerId = "106DA6D1-F163-4962-ABD1-5D396BDF94D3";
width = 600;
},
{
layerId = "CF8A9C28-2F26-4C68-964B-3F562C170337";
shapes = (
{
closed = 1;
nodes = (
(70,513,l),
(850,308,l),
(850,262,l),
(70,55,l),
(70,101,l),
(804,285,l),
(70,467,l)
);
}
);
width = 920;
},
{
associatedMasterId = m01;
layerId = "AB41D4FA-9E86-4A3E-A9F5-64A2BBA2AFB6";
shapes = (
{
closed = 1;
nodes = (
(49,513,l),
(594,308,l),
(594,262,l),
(49,55,l),
(49,101,l),
(548,285,l),
(49,467,l)
);
}
);
width = 642.9375;
}
);
unicode = 62;
}
{
color = 3;
glyphname = question;
layers = (
{
layerId = m01;
shapes = (
{
closed = 1;
nodes = (
(215,321,l),
(234,341,o),
(260,358,o),
(299,398,cs),
(340,440,o),
(391,479,o),
(391,559,cs),
(391,638,o),
(339,676,o),
(267,676,cs),
(226,676,o),
(139,656,o),
(75,499,c),
(45,634,l),
(127,696,o),
(201,720,o),
(277,720,cs),
(415,720,o),
(505,652,o),
(505,548,cs),
(505,447,o),
(396,394,o),
(326,340,cs),
(304,323,o),
(300,319,o),
(285,305,c),
(272,193,l),
(230,193,l)
);
},
{
pos = (156,0);
ref = period;
}
);
width = 575;
},
{
associatedMasterId = m01;
layerId = "B4FBACBA-C7AD-479E-A114-34F8B1E81FB4";
width = 600;
},
{
associatedMasterId = m01;
layerId = "106DA6D1-F163-4962-ABD1-5D396BDF94D3";
width = 600;
},
{
associatedMasterId = m01;
layerId = "C262C18B-F0AB-494E-BBFC-595C800E6D85";
name = "29 gen 22, 15:40";
shapes = (
{
closed = 1;
nodes = (
(306,2,o),
(329,25,o),
(329,53,cs),
(329,81,o),
(306,104,o),
(278,104,cs),
(250,104,o),
(227,81,o),
(227,53,cs),
(227,25,o),
(250,2,o),
(278,2,cs)
);
},
{
closed = 1;
nodes = (
(300,274,o),
(309,254,o),
(307,203,c),
(307,203,o),
(245,203,o),
(245,203,c),
(245,286,o),
(250,332,o),
(324,408,cs),
(365,450,o),
(416,489,o),
(416,559,cs),
(416,638,o),
(364,676,o),
(292,676,cs),
(251,676,o),
(164,656,o),
(100,499,c),
(70,634,l),
(152,696,o),
(226,720,o),
(302,720,cs),
(440,720,o),
(530,652,o),
(530,548,cs),
(530,457,o),
(406,411,o),
(351,340,cs)
);
}
);
width = 600;
},
{
layerId = "CF8A9C28-2F26-4C68-964B-3F562C170337";
shapes = (
{
closed = 1;
nodes = (
(297,321,l),
(341,341,o),
(373,355,o),
(428,381,cs),
(483,407,o),
(583,469,o),
(583,539,cs),
(583,618,o),
(527,672,o),
(410,672,cs),
(299,672,o),
(125,593,o),
(65,404,c),
(20,608,l),
(122,659,o),
(233,720,o),
(439,720,cs),
(688,720,o),
(827,642,o),
(827,548,cs),
(827,407,o),
(611,373,o),
(541,337,cs),
(517,325,o),
(502,315,o),
(487,305,c),
(474,203,l),
(312,203,l)
);
},
{
pos = (231,0);
ref = period;
}
);
width = 867;
},
{
associatedMasterId = "CF8A9C28-2F26-4C68-964B-3F562C170337";
layerId = "4C2118D2-DD0E-401C-9BEA-3DF596B477F7";
name = "4 apr 22, 14:59";
shapes = (
{
pos = (261,0);
ref = period;
},
{
closed = 1;
nodes = (
(547,325,o),
(535,315,o),
(517,305,c),
(514,203,l),
(514,203,o),
(332,203,o),
(332,203,c),
(327,321,l),
(371,341,o),
(403,355,o),
(458,381,cs),
(513,407,o),
(613,469,o),
(613,559,cs),
(613,638,o),
(547,676,o),
(470,676,cs),
(359,676,o),
(176,599,o),
(95,404,c),
(50,608,l),
(151,659,o),
(303,720,o),
(499,720,cs),
(647,720,o),
(857,662,o),
(857,548,cs),
(857,427,o),
(641,373,o),
(571,337,cs)
);
}
);
width = 917;
},
{
associatedMasterId = m01;
layerId = "AB41D4FA-9E86-4A3E-A9F5-64A2BBA2AFB6";
width = 666.25;
}
);
unicode = 63;
}
{
color = 3;
glyphname = at;
kernLeft = O;
kernRight = O;
layers = (
{
layerId = m01;
shapes = (
{
closed = 1;
nodes = (
(831,73,o),
(872,249,o),
(872,320,cs),
(872,605,o),
(640,705,o),
(461,705,c),
(279,705,o),
(50,558,o),
(50,297,c),
(50,7,o),
(283,-94,o),
(443,-94,c),
(544,-94,o),
(645,-61,o),
(693,-26,c),
(687,7,l),
(642,-29,o),
(551,-65,o),
(444,-65,c),
(280,-65,o),
(87,56,o),
(87,298,c),
(87,527,o),
(284,675,o),
(460,675,c),
(574,675,o),
(838,615,o),
(838,321,cs),
(838,195,o),
(764,119,o),
(703,119,cs),
(655,119,o),
(621,161,o),
(620,215,c),
(620,309,o),
(618,460,o),
(629,496,c),
(545,453,l),
(545,187,l),
(557,101,o),
(610,73,o),
(672,73,cs)
);
},
{
closed = 1;
nodes = (
(579,478,o),
(515,513,o),
(449,513,cs),
(332,513,o),
(254,425,o),
(254,294,cs),
(254,136,o),
(342,74,o),
(417,74,cs),
(523,74,o),
(594,173,o),
(562,269,cs),
(548,311,l),
(552,211,o),
(522,134,o),
(448,134,cs),
(391,134,o),
(338,189,o),
(338,322,cs),
(338,426,o),
(390,487,o),
(436,487,cs),
(534,487,o),
(545,364,o),
(545,283,c),
(596,418,l)
);
}
);
width = 922;
},
{
associatedMasterId = m01;
layerId = "B4FBACBA-C7AD-479E-A114-34F8B1E81FB4";
width = 600;
},
{
associatedMasterId = m01;
layerId = "106DA6D1-F163-4962-ABD1-5D396BDF94D3";
width = 600;
},
{
layerId = "CF8A9C28-2F26-4C68-964B-3F562C170337";
shapes = (
{
closed = 1;
nodes = (
(1222,73,o),
(1282,249,o),
(1282,320,c),
(1282,605,o),
(910,705,o),
(676,705,c),
(391,705,o),
(70,558,o),
(70,287,c),
(70,7,o),
(378,-111,o),
(650,-111,c),
(799,-111,o),
(948,-71,o),
(1018,-36,c),
(1010,10,l),
(943,-26,o),
(794,-65,o),
(651,-65,c),
(403,-65,o),
(121,54,o),
(121,286,c),
(121,525,o),
(415,659,o),
(675,659,c),
(795,659,o),
(1232,615,o),
(1232,321,c),
(1232,195,o),
(1123,119,o),
(1063,119,c),
(992,119,o),
(976,161,o),
(975,215,c),
(977,309,o),
(975,460,o),
(990,496,c),
(785,453,l),
(785,187,l),
(803,101,o),
(896,73,o),
(988,73,c)
);
},
{
closed = 1;
nodes = (
(828,480,o),
(736,513,o),
(648,513,c),
(471,513,o),
(341,425,o),
(341,287,c),
(339,149,o),
(478,74,o),
(598,74,c),
(746,74,o),
(824,169,o),
(825,269,cs),
(805,311,l),
(810,211,o),
(767,142,o),
(687,142,c),
(597,142,o),
(521,218,o),
(521,344,c),
(521,448,o),
(572,487,o),
(630,487,c),
(749,487,o),
(785,364,o),
(785,283,c),
(905,418,l)
);
}
);
width = 1352;
},
{
associatedMasterId = m01;
layerId = "AB41D4FA-9E86-4A3E-A9F5-64A2BBA2AFB6";
shapes = (
{
closed = 1;
nodes = (
(952,73,o),
(999,249,o),
(999,320,cs),
(999,605,o),
(723,705,o),
(527,705,c),
(312,705,o),
(55,558,o),
(55,294,c),
(55,7,o),
(311,-99,o),
(506,-99,c),
(622,-99,o),
(738,-64,o),
(793,-29,c),
(786,8,l),
(735,-28,o),
(625,-65,o),
(507,-65,c),
(317,-65,o),
(96,55,o),
(96,294,c),
(96,526,o),
(323,670,o),
(526,670,c),
(642,670,o),
(960,615,o),
(960,321,cs),
(960,195,o),
(875,119,o),
(814,119,cs),
(759,119,o),
(730,161,o),
(729,215,c),
(730,309,o),
(728,460,o),
(740,496,c),
(618,453,l),
(618,187,l),
(632,101,o),
(698,73,o),
(769,73,cs)
);
},
{
closed = 1;
nodes = (
(655,479,o),
(583,513,o),
(510,513,cs),
(374,513,o),
(280,425,o),
(280,292,cs),
(279,140,o),
(383,74,o),
(472,74,cs),
(591,74,o),
(664,172,o),
(643,269,cs),
(627,311,l),
(631,211,o),
(597,137,o),
(521,137,cs),
(454,137,o),
(394,198,o),
(394,329,cs),
(394,433,o),
(445,487,o),
(495,487,cs),
(600,487,o),
(618,364,o),
(618,283,c),
(691,418,l)
);
}
);
width = 1053.25;
}
);
metricLeft = O;
metricRight = O;
unicode = 64;
}
{
color = 3;
glyphname = A;
kernLeft = A;
kernRight = A;
layers = (
{
anchors = (
{
name = bottom;
pos = (314,0);
},
{
name = ogonek;
pos = (676,0);
},
{
name = top;
pos = (321,700);
}
);
layerId = m01;
shapes = (
{
closed = 1;
nodes = (
(123,0,l),
(123,59,o),
(152,133,o),
(152,133,c),
(186,214,l),
(234,216,o),
(279,217,o),
(321,217,cs),
(381,217,o),
(436,216,o),
(490,214,c),
(514,158,ls),
(545,85,o),
(557,42,o),
(558,0,c),
(702,0,l),
(656,70,o),
(633,121,o),
(600,189,cs),
(426,594,l),
(404,642,o),
(391,671,o),
(381,699,c),
(229,700,l),
(229,698,l),
(267,674,o),
(294,649,o),
(312,622,c),
(97,164,l),
(83,127,o),
(53,68,o),
(10,0,c)
);
},
{
closed = 1;
nodes = (
(337,569,l),
(346,547,o),
(356,526,o),
(365,504,c),
(468,263,l),
(423,261,o),
(380,261,o),
(341,261,cs),
(294,261,o),
(249,262,o),
(206,263,c)
);
}
);
width = 730;
},
{
associatedMasterId = m01;
layerId = "B4FBACBA-C7AD-479E-A114-34F8B1E81FB4";
width = 600;
},
{
associatedMasterId = m01;
layerId = "106DA6D1-F163-4962-ABD1-5D396BDF94D3";
width = 678;
},
{
anchors = (
{
name = bottom;
pos = (326,0);
},
{
name = ogonek;
pos = (528,41);
},
{
name = top;
pos = (326,700);
}
);
associatedMasterId = m01;
layerId = "FCFD15DD-114F-4178-8E1C-EE382A31205B";
name = "14 gen 22, 20:14";
shapes = (
{
closed = 1;
nodes = (
(135,0,l),
(135,59,o),
(164,133,o),
(164,133,c),
(373,633,l),
(339,660,l),
(109,164,l),
(95,127,o),
(65,68,o),
(22,0,c)
);
},
{
closed = 1;
nodes = (
(169,213,l),
(227,216,o),
(283,217,o),
(333,217,cs),
(424,217,o),
(504,215,o),
(585,209,c),
(585,269,l),
(504,262,o),
(422,261,o),
(353,261,cs),
(293,261,o),
(238,262,o),
(185,265,c)
);
},
{
closed = 1;
nodes = (
(733,0,l),
(681,69,o),
(654,119,o),
(624,189,c),
(440,594,l),
(441,594,l),
(419,642,o),
(406,671,o),
(396,699,c),
(238,700,l),
(238,698,l),
(282,671,o),
(310,642,o),
(329,609,c),
(526,158,l),
(558,85,o),
(569,42,o),
(569,0,c)
);
}
);
width = 652;
},
{
anchors = (
{
name = bottom;
pos = (313,0);
},
{
name = ogonek;
pos = (515,41);
},
{
name = top;
pos = (313,700);
}
);
associatedMasterId = m01;
layerId = "0D6A45AC-66B7-4821-93A5-58C5313CAA5F";
name = "19 gen 22, 22:50";
shapes = (
{
closed = 1;
nodes = (
(122,0,l),
(122,59,o),
(151,133,o),
(151,133,c),
(185,214,l),
(233,216,o),
(278,217,o),
(320,217,cs),
(380,217,o),
(435,216,o),
(489,214,c),
(513,158,ls),
(545,85,o),
(556,42,o),
(556,0,c),
(720,0,l),
(668,69,o),
(641,119,o),
(611,189,cs),
(427,594,l),
(428,594,l),
(406,642,o),
(393,671,o),
(383,699,c),
(225,700,l),
(225,698,l),
(263,674,o),
(290,649,o),
(308,622,c),
(96,164,l),
(82,127,o),
(52,68,o),
(9,0,c)
);
},
{
closed = 1;
nodes = (
(333,569,l),
(467,263,l),
(422,261,o),
(379,261,o),
(340,261,cs),
(293,261,o),
(248,262,o),
(205,263,c)
);
}
);
width = 729;
},
{
anchors = (
{
name = bottom;
pos = (509,0);
},
{
name = ogonek;
pos = (988,14);
},
{
name = top;
pos = (486,690);
}
);
layerId = "CF8A9C28-2F26-4C68-964B-3F562C170337";
shapes = (
{
closed = 1;
nodes = (
(166,0,l),
(171,31,o),
(185,65,o),
(205,101,c),
(261,204,l),
(336,206,o),
(419,209,o),
(493,209,c),
(561,209,o),
(632,206,o),
(702,203,c),
(753,119,l),
(773,78,o),
(792,43,o),
(799,0,c),
(1121,0,l),
(1067,49,o),
(1007,138,o),
(955,216,cs),
(737,545,l),
(704,597,o),
(671,648,o),
(638,700,c),
(320,700,l),
(320,695,l),
(341,683,o),
(389,651,o),
(430,611,c),
(183,213,ls),
(138,141,o),
(74,52,o),
(30,0,c)
);
},
{
closed = 1;
nodes = (
(479,556,l),
(502,528,o),
(522,500,o),
(534,480,cs),
(664,270,l),
(614,266,o),
(566,265,o),
(514,265,c),
(442,265,o),
(368,266,o),
(298,269,c)
);
}
);
width = 1151;
},
{
anchors = (
{
name = bottom;
pos = (503,0);
},
{
name = ogonek;
pos = (982,14);
},
{
name = top;
pos = (480,690);
}
);
associatedMasterId = "CF8A9C28-2F26-4C68-964B-3F562C170337";
layerId = "67658AA4-42AF-4B9C-9E41-B05D6199970C";
name = "29 mar 22, 23:46";
shapes = (
{
closed = 1;
nodes = (
(160,0,l),
(165,31,o),
(179,65,o),
(199,101,c),
(265,210,l),
(340,212,o),
(413,212,o),
(487,212,c),
(555,212,o),
(623,212,o),
(693,209,c),
(747,119,l),
(767,78,o),
(786,43,o),
(793,0,c),
(1115,0,l),
(1061,49,o),
(1001,138,o),
(949,216,cs),
(731,545,l),
(698,597,o),
(665,648,o),
(632,700,c),
(314,700,l),
(314,695,l),
(335,683,o),
(384,648,o),
(425,608,c),
(177,213,ls),
(132,141,o),
(68,52,o),
(24,0,c)
);
},
{
closed = 1;
nodes = (
(473,556,l),
(496,528,o),
(516,500,o),
(528,480,cs),
(661,262,l),
(611,258,o),
(560,258,o),
(508,258,c),
(436,258,o),
(365,258,o),
(295,261,c)
);
}
);
width = 1148;
},
{
anchors = (
{
name = bottom;
pos = (373,0);
},
{
name = ogonek;
pos = (772,4);
},
{
name = top;
pos = (371,697);
}
);
associatedMasterId = m01;
layerId = "AB41D4FA-9E86-4A3E-A9F5-64A2BBA2AFB6";
shapes = (
{
closed = 1;
nodes = (
(135,0,l),
(136,50,o),
(160,112,o),
(167,123,c),
(208,211,l),
(264,213,o),
(321,215,o),
(373,215,cs),
(435,215,o),
(495,213,o),
(554,211,c),
(587,146,ls),
(614,83,o),
(629,42,o),
(631,0,c),
(831,0,l),
(783,63,o),
(748,126,o),
(709,197,cs),
(521,579,l),
(496,628,o),
(477,664,o),
(459,699,c),
(256,700,l),
(256,697,l),
(288,677,o),
(322,650,o),
(347,619,c),
(122,179,l),
(98,131,o),
(58,63,o),
(14,0,c)
);
},
{
closed = 1;
nodes = (
(380,565,l),
(393,541,o),
(406,518,o),
(416,497,c),
(527,265,l),
(481,263,o),
(436,262,o),
(393,262,cs),
(338,262,o),
(284,263,o),
(233,265,c)
);
}
);
width = 860.625;
}
);
unicode = 65;
}
{
color = 3;
glyphname = B;
kernLeft = l;
kernRight = B;
layers = (
{
layerId = m01;
shapes = (
{
closed = 1;
nodes = (
(60,700,l),
(60,700,o),
(86,662,o),
(86,530,cs),
(81,169,ls),
(81,38,o),
(55,0,o),
(55,0,c),
(137,0,ls),
(217,0,o),
(264,-1,o),
(328,0,cs),
(513,0,o),
(612,83,o),
(612,199,cs),
(612,280,o),
(559,360,o),
(408,378,c),
(484,395,o),
(558,438,o),
(558,542,cs),
(558,640,o),
(466,700,o),
(317,700,cs)
);
},
{
closed = 1;
nodes = (
(169,589,o),
(174,630,o),
(180,656,c),
(209,661,o),
(244,663,o),
(284,663,cs),
(384,663,o),
(462,600,o),
(462,533,cs),
(462,434,o),
(392,391,o),
(294,391,cs),
(258,391,o),
(212,393,o),
(170,401,c),
(169,530,ls)
);
},
{
closed = 1;
nodes = (
(212,346,o),
(260,346,o),
(295,346,cs),
(414,345,o),
(509,303,o),
(509,200,cs),
(509,86,o),
(445,44,o),
(302,44,cs),
(271,44,o),
(217,49,o),
(179,64,c),
(175,90,o),
(171,124,o),
(171,169,cs),
(170,341,l)
);
}
);
width = 652;
},
{
associatedMasterId = m01;
layerId = "B4FBACBA-C7AD-479E-A114-34F8B1E81FB4";
width = 600;
},
{
associatedMasterId = m01;
layerId = "106DA6D1-F163-4962-ABD1-5D396BDF94D3";
width = 18;
},
{
associatedMasterId = m01;
layerId = "D18A2357-DA6C-4F81-99B9-8331EF98E5B1";
name = "14 gen 22, 21:09";
shapes = (
{
closed = 1;
nodes = (
(168,646,l),
(203,658,o),
(253,663,o),
(315,663,cs),
(415,663,o),
(493,600,o),
(493,533,cs),
(493,434,o),
(423,391,o),
(325,391,cs),
(279,391,o),
(217,395,o),
(168,409,c),
(168,380,l),
(158,359,l),
(158,363,l),
(205,366,o),
(265,368,o),
(334,368,c),
(425,368,o),
(589,387,o),
(589,542,cs),
(589,640,o),
(497,700,o),
(348,700,cs),
(295,700,o),
(240,700,o),
(168,700,c)
);
},
{
closed = 1;
nodes = (
(85,700,o),
(111,662,o),
(111,530,c),
(106,169,l),
(106,38,o),
(80,0,o),
(80,0,c),
(232,0,l),
(232,0,o),
(202,38,o),
(202,169,c),
(200,530,l),
(200,662,o),
(226,700,o),
(226,700,c),
(85,700,l)
);
},
{
closed = 1;
nodes = (
(158,363,l),
(158,333,l),
(204,346,o),
(278,346,o),
(326,346,cs),
(445,345,o),
(540,303,o),
(540,200,cs),
(540,86,o),
(476,44,o),
(333,44,c),
(285,44,o),
(184,57,o),
(168,97,c),
(168,0,l),
(248,-1,o),
(295,-1,o),
(359,0,c),
(544,0,o),
(643,83,o),
(643,199,cs),
(643,295,o),
(569,389,o),
(345,382,c),
(273,382,o),
(273,381,o),
(168,380,c)
);
}
);
width = 316;
},
{
associatedMasterId = m01;
layerId = "792FD4C1-9BEA-48F1-B793-EACFACB1B7F6";
name = "14 gen 22, 21:09";
shapes = (
{
closed = 1;
nodes = (
(168,646,l),
(203,658,o),
(253,663,o),
(315,663,cs),
(415,663,o),
(493,600,o),
(493,533,cs),
(493,434,o),
(423,391,o),
(325,391,cs),
(279,391,o),
(217,395,o),
(168,409,c),
(168,380,l),
(158,359,l),
(158,363,l),
(205,366,o),
(265,368,o),
(334,368,c),
(425,368,o),
(589,387,o),
(589,542,cs),
(589,640,o),
(497,700,o),
(348,700,cs),
(295,700,o),
(240,700,o),
(168,700,c)
);
},
{
closed = 1;
nodes = (
(85,700,o),
(111,662,o),
(111,530,c),
(106,169,l),
(106,38,o),
(80,0,o),
(80,0,c),
(232,0,l),
(232,0,o),
(202,38,o),
(202,169,c),
(200,530,l),
(200,662,o),
(226,700,o),
(226,700,c),
(85,700,l)
);
},
{
closed = 1;
nodes = (
(158,363,l),
(158,333,l),
(204,346,o),
(278,346,o),
(326,346,cs),
(445,345,o),
(540,303,o),
(540,200,cs),
(540,86,o),
(476,44,o),
(333,44,c),
(285,44,o),
(184,57,o),
(168,97,c),
(168,0,l),
(248,-1,o),
(295,-1,o),
(359,0,c),
(544,0,o),
(643,83,o),
(643,199,cs),
(643,295,o),
(569,389,o),
(345,382,c),
(273,382,o),
(273,381,o),
(168,380,c)
);
}
);
width = 693;
},
{
layerId = "CF8A9C28-2F26-4C68-964B-3F562C170337";
shapes = (
{
closed = 1;
nodes = (
(75,700,l),
(75,700,o),
(94,662,o),
(94,530,cs),
(94,169,ls),
(94,38,o),
(75,0,o),
(75,0,c),
(267,0,ls),
(347,0,o),
(414,-1,o),
(528,-1,cs),
(843,0,o),
(1009,83,o),
(1009,199,cs),
(1009,300,o),
(923,360,o),
(648,378,c),
(799,380,o),
(901,436,o),
(901,542,cs),
(901,640,o),
(766,700,o),
(517,700,cs)
);
},
{
closed = 1;
nodes = (
(299,576,o),
(304,619,o),
(310,645,c),
(339,650,o),
(394,652,o),
(484,652,cs),
(624,652,o),
(692,600,o),
(692,524,cs),
(692,434,o),
(632,392,o),
(494,392,cs),
(408,392,o),
(342,394,o),
(300,409,c),
(299,525,ls)
);
},
{
closed = 1;
nodes = (
(342,345,o),
(410,347,o),
(465,346,cs),
(664,344,o),
(769,289,o),
(769,194,cs),
(769,119,o),
(665,47,o),
(502,47,cs),
(421,47,o),
(347,52,o),
(309,76,c),
(305,93,o),
(301,129,o),
(301,174,cs),
(300,344,l)
);
}
);
width = 1064;
},
{
associatedMasterId = m01;
layerId = "AB41D4FA-9E86-4A3E-A9F5-64A2BBA2AFB6";
shapes = (
{
closed = 1;
nodes = (
(78,700,l),
(78,700,o),
(102,662,o),
(102,530,cs),
(98,169,ls),
(98,38,o),
(74,0,o),
(74,0,c),
(195,0,ls),
(275,-1,o),
(328,-1,o),
(408,0,cs),
(633,0,o),
(753,83,o),
(753,199,cs),
(753,286,o),
(690,360,o),
(500,378,c),
(600,390,o),
(682,437,o),
(682,542,cs),
(682,640,o),
(577,700,o),
(397,700,cs)
);
},
{
closed = 1;
nodes = (
(227,585,o),
(232,627,o),
(238,653,c),
(267,658,o),
(308,660,o),
(364,660,cs),
(476,660,o),
(551,600,o),
(551,530,cs),
(551,434,o),
(484,391,o),
(374,391,cs),
(322,391,o),
(270,393,o),
(228,404,c),
(227,528,ls)
);
},
{
closed = 1;
nodes = (
(270,346,o),
(324,346,o),
(365,346,cs),
(509,345,o),
(608,299,o),
(608,198,cs),
(608,96,o),
(531,45,o),
(382,45,cs),
(335,45,o),
(275,50,o),
(237,68,c),
(233,91,o),
(229,126,o),
(229,171,cs),
(228,342,l)
);
}
);
width = 806.4375;
}
);
metricLeft = H;
unicode = 66;
}
{
color = 3;
glyphname = C;
kernLeft = O;
kernRight = C;
layers = (
{
anchors = (
{
name = bottom;
pos = (393,0);
},
{
name = top;
pos = (402,700);
}
);
layerId = m01;
shapes = (
{
closed = 1;
nodes = (
(663,186,l),
(592,90,o),
(510,51,o),
(428,51,cs),
(257,51,o),
(152,193,o),
(152,365,cs),
(152,569,o),
(241,648,o),
(375,648,cs),
(457,648,o),
(566,601,o),
(606,523,c),
(613,525,l),
(623,660,l),
(564,691,o),
(504,712,o),
(418,712,cs),
(239,712,o),
(50,575,o),
(50,325,cs),
(50,124,o),
(203,-15,o),
(385,-15,cs),
(564,-15,o),
(638,109,o),
(667,182,c)
);
}
);
width = 687;
},
{
associatedMasterId = m01;
layerId = "B4FBACBA-C7AD-479E-A114-34F8B1E81FB4";
width = 600;
},
{
associatedMasterId = m01;
layerId = "106DA6D1-F163-4962-ABD1-5D396BDF94D3";
width = 726;
},
{
anchors = (
{
name = bottom;
pos = (362,0);
},
{
name = top;
pos = (372,700);
}
);
associatedMasterId = m01;
layerId = "9FF0E597-0B7D-41ED-AA61-450E4B46BA38";
name = "19 gen 22, 23:06";
shapes = (
{
closed = 1;
nodes = (
(670,99,o),
(607,-15,o),
(420,-15,cs),
(238,-15,o),
(85,118,o),
(85,319,cs),
(85,569,o),
(274,712,o),
(453,712,cs),
(539,712,o),
(601,691,o),
(660,655,c),
(643,503,l),
(603,601,o),
(492,648,o),
(410,648,cs),
(276,648,o),
(187,563,o),
(187,359,cs),
(187,187,o),
(292,51,o),
(463,51,cs),
(545,51,o),
(624,80,o),
(698,166,c),
(702,162,l)
);
}
);
width = 742;
},
{
anchors = (
{
name = bottom;
pos = (362,0);
},
{
name = top;
pos = (372,700);
}
);
associatedMasterId = m01;
layerId = "26773EA6-86EE-4C48-A8F8-81D90EB5459A";
name = "22 gen 22, 12:04";
shapes = (
{
closed = 1;
nodes = (
(673,109,o),
(599,-15,o),
(420,-15,cs),
(238,-15,o),
(85,118,o),
(85,319,cs),
(85,569,o),
(274,712,o),
(453,712,cs),
(539,712,o),
(599,691,o),
(658,655,c),
(641,503,l),
(601,601,o),
(492,648,o),
(410,648,cs),
(276,648,o),
(187,563,o),
(187,359,cs),
(187,187,o),
(292,51,o),
(463,51,cs),
(545,51,o),
(627,90,o),
(698,186,c),
(702,182,l)
);
}
);
width = 742;
},
{
anchors = (
{
name = bottom;
pos = (563,0);
},
{
name = top;
pos = (562,700);
}
);
layerId = "CF8A9C28-2F26-4C68-964B-3F562C170337";
shapes = (
{
closed = 1;
nodes = (
(1031,245,l),
(957,167,o),
(845,113,o),
(677,113,cs),
(441,113,o),
(218,265,o),
(218,455,cs),
(218,576,o),
(322,671,o),
(458,671,cs),
(730,671,o),
(954,431,o),
(954,431,c),
(965,438,l),
(1003,643,l),
(1003,643,o),
(864,747,o),
(607,747,cs),
(311,747,o),
(70,594,o),
(70,338,cs),
(70,135,o),
(290,-26,o),
(557,-26,cs),
(850,-26,o),
(990,135,o),
(1042,226,c)
);
}
);
width = 1082;
},
{
anchors = (
{
name = bottom;
pos = (428,0);
},
{
name = top;
pos = (437,700);
}
);
associatedMasterId = m01;
layerId = "843DD048-C7DF-4330-9AF3-6B8CDBFB69BD";
name = "9 apr 22, 12:30";
shapes = (
{
closed = 1;
nodes = (
(698,186,l),
(627,90,o),
(545,51,o),
(463,51,cs),
(292,51,o),
(187,187,o),
(187,359,cs),
(187,563,o),
(276,648,o),
(410,648,cs),
(492,648,o),
(601,601,o),
(641,507,c),
(648,509,l),
(658,660,l),
(599,691,o),
(539,712,o),
(453,712,cs),
(274,712,o),
(85,569,o),
(85,319,cs),
(85,118,o),
(238,-15,o),
(420,-15,cs),
(599,-15,o),
(673,109,o),
(702,182,c)
);
}
);
width = 742;
},
{
anchors = (
{
name = bottom;
pos = (428,0);
},
{
name = top;
pos = (437,700);
}
);
associatedMasterId = m01;
layerId = "53418FA0-2907-4BE4-9D6C-A6085B83265A";
name = "9 apr 22, 13:16";
shapes = (
{
closed = 1;
nodes = (
(698,186,l),
(627,90,o),
(545,51,o),
(463,51,cs),
(292,51,o),
(187,193,o),
(187,365,cs),
(187,569,o),
(276,648,o),
(410,648,cs),
(492,648,o),
(601,601,o),
(641,507,c),
(648,509,l),
(658,660,l),
(599,691,o),
(539,712,o),
(453,712,cs),
(274,712,o),
(85,575,o),
(85,325,cs),
(85,124,o),
(238,-15,o),
(420,-15,cs),
(599,-15,o),
(673,109,o),
(702,182,c)
);
}
);
width = 742;
},
{
anchors = (
{
name = bottom;
pos = (558,0);
},
{
name = top;
pos = (557,700);
}
);
associatedMasterId = "CF8A9C28-2F26-4C68-964B-3F562C170337";
layerId = "B46E6BAD-6F69-4E0C-AB1F-7456813A0C89";
name = "9 apr 22, 16:52";
shapes = (
{
closed = 1;
nodes = (
(1026,245,l),
(952,167,o),
(840,113,o),
(672,113,cs),
(436,113,o),
(213,265,o),
(213,455,cs),
(213,576,o),
(317,671,o),
(453,671,cs),
(725,671,o),
(949,401,o),
(949,401,c),
(960,408,l),
(998,643,l),
(998,643,o),
(859,747,o),
(602,747,cs),
(306,747,o),
(65,594,o),
(65,338,cs),
(65,135,o),
(285,-26,o),
(552,-26,cs),
(845,-26,o),
(985,135,o),
(1037,226,c)
);
}
);
width = 1067;
},
{
anchors = (
{
name = bottom;
pos = (448,0);
},
{
name = top;
pos = (454,700);
}
);
associatedMasterId = m01;
layerId = "AB41D4FA-9E86-4A3E-A9F5-64A2BBA2AFB6";
shapes = (
{
closed = 1;
nodes = (
(780,204,l),
(708,114,o),
(617,70,o),
(508,70,cs),
(316,70,o),
(175,216,o),
(175,393,cs),
(175,571,o),
(268,655,o),
(403,655,cs),
(544,655,o),
(689,548,o),
(717,494,c),
(725,498,l),
(744,655,l),
(703,676,o),
(618,723,o),
(479,723,cs),
(263,723,o),
(58,581,o),
(58,329,cs),
(58,127,o),
(232,-18,o),
(441,-18,cs),
(655,-18,o),
(750,117,o),
(786,196,c)
);
}
);
width = 816.0625;
}
);
metricLeft = O;
unicode = 67;
}
{
color = 3;
glyphname = D;
kernLeft = l;
kernRight = O;
layers = (
{
anchors = (
{
name = bottom;
pos = (298,0);
},
{
name = center;
pos = (298,350);
},
{
name = top;
pos = (284,700);
}
);
layerId = m01;
shapes = (
{
closed = 1;
nodes = (
(55,700,l),
(55,700,o),
(76,662,o),
(76,530,cs),
(76,169,ls),
(76,38,o),
(55,0,o),
(55,0,c),
(230,0,ls),
(530,0,o),
(653,167,o),
(653,365,cs),
(653,579,o),
(492,699,o),
(278,701,cs),
(233,700,o),
(207,700,o),
(188,700,cs)
);
},
{
closed = 1;
nodes = (
(167,530,ls),
(167,585,o),
(171,623,o),
(175,650,c),
(212,656,o),
(252,655,o),
(278,654,cs),
(417,652,o),
(546,555,o),
(546,333,cs),
(546,132,o),
(417,50,o),
(298,50,cs),
(250,50,o),
(210,55,o),
(172,68,c),
(169,93,o),
(167,126,o),
(167,169,cs)
);
}
);
width = 703;
},
{
associatedMasterId = m01;
layerId = "B4FBACBA-C7AD-479E-A114-34F8B1E81FB4";
width = 600;
},
{
associatedMasterId = m01;
layerId = "106DA6D1-F163-4962-ABD1-5D396BDF94D3";
width = 18;
},
{
anchors = (
{
name = bottom;
pos = (338,0);
},
{
name = center;
pos = (338,350);
},
{
name = top;
pos = (324,700);
}
);
associatedMasterId = m01;
layerId = "AE3311C7-447C-4BCB-B488-12CB31F451BF";
name = "5 feb 22, 18:26";
shapes = (
{
ref = I;
},
{
closed = 1;
nodes = (
(148,621,l),
(188,659,o),
(273,655,o),
(318,654,c),
(457,652,o),
(586,555,o),
(586,333,cs),
(586,132,o),
(457,50,o),
(338,50,cs),
(278,50,o),
(231,57,o),
(186,79,c),
(148,0,l),
(188,0,o),
(248,0,o),
(270,0,cs),
(570,0,o),
(693,167,o),
(693,365,c),
(693,579,o),
(532,699,o),
(318,701,c),
(213,699,o),
(216,700,o),
(148,700,c)
);
}
);
width = 768;
},
{
anchors = (
{
name = bottom;
pos = (403,0);
},
{
name = center;
pos = (403,350);
},
{
name = top;
pos = (454,700);
}
);
layerId = "CF8A9C28-2F26-4C68-964B-3F562C170337";
shapes = (
{
closed = 1;
nodes = (
(60,700,l),
(60,700,o),
(79,662,o),
(79,530,cs),
(79,169,ls),
(79,38,o),
(60,0,o),
(60,0,c),
(395,0,ls),
(818,0,o),
(1014,167,o),
(1014,385,cs),
(1014,569,o),
(878,701,o),
(513,701,cs),
(338,701,o),
(281,700,o),
(213,700,cs)
);
},
{
closed = 1;
nodes = (
(284,530,ls),
(284,580,o),
(287,618,o),
(292,644,c),
(348,652,o),
(415,651,o),
(443,650,cs),
(602,646,o),
(783,555,o),
(783,333,cs),
(783,132,o),
(641,54,o),
(463,54,cs),
(416,54,o),
(341,64,o),
(288,79,c),
(286,103,o),
(284,134,o),
(284,173,cs)
);
}
);
width = 1084;
},
{
associatedMasterId = "CF8A9C28-2F26-4C68-964B-3F562C170337";
layerId = "1032E5FB-65CD-49B2-9AE9-B8257894080A";
name = "12 mar 22, 14:03";
shapes = (
{
closed = 1;
nodes = (
(148,621,l),
(188,659,o),
(333,655,o),
(378,654,cs),
(537,650,o),
(718,555,o),
(718,333,cs),
(718,132,o),
(576,50,o),
(398,50,cs),
(338,50,o),
(231,67,o),
(186,89,c),
(148,0,l),
(330,0,ls),
(753,0,o),
(949,167,o),
(949,385,cs),
(949,569,o),
(813,701,o),
(448,701,cs),
(273,701,o),
(216,700,o),
(148,700,c)
);
},
{
closed = 1;
nodes = (
(-5,700,o),
(14,662,o),
(14,530,cs),
(14,169,ls),
(14,38,o),
(-5,0,o),
(-5,0,c),
(240,0,l),
(240,0,o),
(219,38,o),
(219,169,cs),
(219,530,ls),
(219,662,o),
(240,700,o),
(240,700,c),
(-5,700,l)
);
}
);
width = 1293;
}
);
metricRight = O;
unicode = 68;
}
{
color = 3;
glyphname = E;
kernLeft = l;
kernRight = E;
layers = (
{
anchors = (
{
name = bottom;
pos = (265,0);
},
{
name = ogonek;
pos = (536,-3);
},
{
name = top;
pos = (309,700);
},
{
name = topleft;
pos = (109,700);
},
{
name = topright;
pos = (201,508);
}
);
layerId = m01;
shapes = (
{
closed = 1;
nodes = (
(559,-4,l),
(603,131,l),
(596,135,l),
(513,47,o),
(292,48,o),
(173,50,c),
(169,76,o),
(166,120,o),
(166,169,cs),
(166,334,l),
(326,334,ls),
(389,334,o),
(450,334,o),
(511,324,c),
(511,391,l),
(450,381,o),
(389,381,o),
(326,381,cs),
(166,381,l),
(166,530,ls),
(166,587,o),
(170,627,o),
(174,653,c),
(292,654,o),
(504,653,o),
(556,559,c),
(563,563,l),
(529,703,l),
(55,700,l),
(55,700,o),
(76,662,o),
(76,530,cs),
(76,169,ls),
(76,38,o),
(55,0,o),
(55,0,c)
);
}
);
width = 643;
},
{
associatedMasterId = m01;
layerId = "B4FBACBA-C7AD-479E-A114-34F8B1E81FB4";
width = 600;
},
{
associatedMasterId = m01;
layerId = "106DA6D1-F163-4962-ABD1-5D396BDF94D3";
width = 546;
},
{
anchors = (
{
name = bottom;
pos = (296,0);
},
{
name = ogonek;
pos = (497,10);
},
{
name = top;
pos = (148,700);
},
{
name = topleft;
pos = (13,700);
},
{
name = topright;
pos = (232,508);
}
);
associatedMasterId = m01;
layerId = "79169C05-8847-41CF-BD6F-F9DD37F1C6C3";
name = "14 gen 22, 19:17";
shapes = (
{
closed = 1;
nodes = (
(117,334,l),
(540,334,l),
(540,381,l),
(117,381,l)
);
},
{
closed = 1;
nodes = (
(561,703,l),
(122,699,l),
(134,639,l),
(192,639,o),
(522,671,o),
(598,551,c),
(605,555,l)
);
},
{
closed = 1;
nodes = (
(80,700,o),
(101,662,o),
(101,530,cs),
(101,169,ls),
(101,38,o),
(80,0,o),
(80,0,c),
(139,0,l),
(578,-4,l),
(622,144,l),
(615,148,l),
(532,60,o),
(323,57,o),
(204,59,c),
(200,85,o),
(197,120,o),
(197,169,cs),
(197,530,ls),
(197,662,o),
(218,700,o),
(218,700,c),
(80,700,l)
);
}
);
width = 557;
},
{
anchors = (
{
name = bottom;
pos = (296,0);
},
{
name = ogonek;
pos = (567,-3);
},
{
name = top;
pos = (340,700);
},
{
name = topleft;
pos = (140,700);
},
{
name = topright;
pos = (232,508);
}
);
associatedMasterId = m01;
layerId = "A91B77EB-33B7-4AB5-B582-ABA0134F2AF9";
name = "5 feb 22, 18:26";
shapes = (
{
closed = 1;
nodes = (
(420,334,o),
(481,334,o),
(542,324,c),
(542,391,l),
(481,381,o),
(420,381,o),
(357,381,c),
(117,381,l),
(117,334,l),
(357,334,l)
);
},
{
closed = 1;
nodes = (
(560,703,l),
(122,699,l),
(134,654,l),
(192,648,o),
(521,679,o),
(587,559,c),
(594,563,l)
);
},
{
closed = 1;
nodes = (
(80,700,o),
(101,662,o),
(101,530,cs),
(101,169,ls),
(101,38,o),
(80,0,o),
(80,0,c),
(139,0,l),
(590,-4,l),
(634,131,l),
(627,135,l),
(544,47,o),
(323,48,o),
(204,50,c),
(200,76,o),
(197,120,o),
(197,169,cs),
(197,530,ls),
(197,662,o),
(218,700,o),
(218,700,c),
(80,700,l)
);
}
);
width = 679;
},
{
anchors = (
{
name = bottom;
pos = (519,0);
},
{
name = ogonek;
pos = (942,7);
},
{
name = top;
pos = (519,700);
},
{
name = topleft;
pos = (205,700);
},
{
name = topright;
pos = (852,700);
}
);
layerId = "CF8A9C28-2F26-4C68-964B-3F562C170337";
shapes = (
{
closed = 1;
nodes = (
(952,-7,l),
(997,234,l),
(986,241,l),
(858,96,o),
(689,52,o),
(308,52,c),
(304,78,o),
(301,115,o),
(301,166,cs),
(301,337,l),
(511,337,ls),
(632,337,o),
(732,335,o),
(823,329,c),
(823,399,l),
(732,393,o),
(630,391,o),
(531,391,cs),
(301,391,l),
(301,528,ls),
(301,582,o),
(304,619,o),
(308,645,c),
(590,645,o),
(782,627,o),
(931,454,c),
(942,461,l),
(892,701,l),
(75,697,l),
(75,697,o),
(96,659,o),
(96,527,cs),
(96,167,ls),
(96,35,o),
(75,-3,o),
(75,-3,c)
);
}
);
width = 1082;
},
{
associatedMasterId = "CF8A9C28-2F26-4C68-964B-3F562C170337";
layerId = "6CB8DB2C-7AEA-45D3-B833-A23AA7024EBB";
name = "12 mar 22, 12:43";
shapes = (
{
closed = 1;
nodes = (
(972,-8,l),
(1022,231,l),
(1010,240,l),
(878,95,o),
(708,51,o),
(328,51,c),
(324,77,o),
(321,114,o),
(321,165,cs),
(321,166,l),
(321,526,l),
(321,527,ls),
(321,578,o),
(324,615,o),
(328,641,c),
(610,641,o),
(802,626,o),
(950,452,c),
(962,461,l),
(912,700,l),
(95,696,l),
(95,696,o),
(116,658,o),
(116,526,cs),
(116,166,ls),
(116,34,o),
(95,-4,o),
(95,-4,c)
);
},
{
closed = 1;
nodes = (
(269,334,l),
(353,341,o),
(447,342,o),
(531,342,cs),
(652,342,o),
(752,340,o),
(843,334,c),
(843,394,l),
(752,388,o),
(650,386,o),
(551,386,cs),
(447,386,o),
(353,388,o),
(269,394,c)
);
}
);
width = 1102;
},
{
anchors = (
{
name = bottom;
pos = (362,0);
},
{
name = ogonek;
pos = (680,0);
},
{
name = top;
pos = (392,700);
},
{
name = topleft;
pos = (156,700);
},
{
name = topright;
pos = (422,568);
}
);
associatedMasterId = m01;
layerId = "AB41D4FA-9E86-4A3E-A9F5-64A2BBA2AFB6";
shapes = (
{
closed = 1;
nodes = (
(699,-5,l),
(743,163,l),
(735,168,l),
(638,62,o),
(433,49,o),
(232,51,c),
(228,77,o),
(225,118,o),
(225,168,cs),
(225,335,l),
(401,335,ls),
(482,335,o),
(555,334,o),
(626,326,c),
(626,394,l),
(555,385,o),
(482,384,o),
(407,384,cs),
(225,384,l),
(225,529,ls),
(225,585,o),
(229,625,o),
(233,651,c),
(402,651,o),
(608,645,o),
(690,526,c),
(699,531,l),
(660,702,l),
(74,699,l),
(74,699,o),
(95,661,o),
(95,529,cs),
(95,168,ls),
(95,37,o),
(74,-1,o),
(74,-1,c)
);
}
);
width = 800.875;
}
);
metricLeft = H;
unicode = 69;
}
{
color = 3;
glyphname = F;
kernLeft = l;
kernRight = F;
layers = (
{
layerId = m01;
shapes = (
{
closed = 1;
nodes = (
(76,169,ls),
(76,38,o),
(55,0,o),
(55,0,c),
(187,0,l),
(187,0,o),
(166,38,o),
(166,169,cs),
(166,322,l),
(309,322,ls),
(372,322,o),
(433,322,o),
(494,312,c),
(494,379,l),
(433,369,o),
(372,369,o),
(309,369,cs),
(166,369,l),
(166,530,ls),
(166,587,o),
(170,627,o),
(174,653,c),
(293,654,o),
(507,653,o),
(566,559,c),
(573,563,l),
(529,703,l),
(55,700,l),
(55,700,o),
(76,662,o),
(76,530,cs)
);
}
);
width = 603;
},
{
associatedMasterId = m01;
layerId = "B4FBACBA-C7AD-479E-A114-34F8B1E81FB4";
width = 600;
},
{
associatedMasterId = m01;
layerId = "106DA6D1-F163-4962-ABD1-5D396BDF94D3";
width = 504;
},
{
layerId = "CF8A9C28-2F26-4C68-964B-3F562C170337";
shapes = (
{
closed = 1;
nodes = (
(96,169,ls),
(96,38,o),
(75,0,o),
(75,0,c),
(320,0,l),
(320,0,o),
(301,38,o),
(301,169,cs),
(301,321,l),
(481,321,ls),
(602,321,o),
(698,319,o),
(789,313,c),
(789,383,l),
(698,377,o),
(600,375,o),
(501,375,cs),
(301,375,l),
(301,527,ls),
(301,578,o),
(304,622,o),
(308,648,c),
(590,648,o),
(768,626,o),
(916,452,c),
(927,459,l),
(878,700,l),
(75,700,l),
(75,700,o),
(96,658,o),
(96,526,cs)
);
}
);
width = 998;
},
{
associatedMasterId = m01;
layerId = "AB41D4FA-9E86-4A3E-A9F5-64A2BBA2AFB6";
shapes = (
{
closed = 1;
nodes = (
(95,169,ls),
(95,38,o),
(74,0,o),
(74,0,c),
(246,0,l),
(246,0,o),
(225,38,o),
(225,169,cs),
(225,322,l),
(380,322,ls),
(461,322,o),
(533,321,o),
(603,312,c),
(603,380,l),
(533,372,o),
(461,371,o),
(386,371,cs),
(225,371,l),
(225,529,ls),
(225,584,o),
(229,625,o),
(233,651,c),
(403,652,o),
(606,645,o),
(693,526,c),
(701,531,l),
(655,702,l),
(74,700,l),
(74,700,o),
(95,661,o),
(95,529,cs)
);
}
);
width = 743.6875;
}
);
metricLeft = H;
unicode = 70;
}
{
color = 3;
glyphname = G;
kernLeft = O;
kernRight = G;
layers = (
{
anchors = (
{
name = bottom;
pos = (365,0);
},
{
name = top;
pos = (401,700);
}
);
layerId = m01;
shapes = (
{
closed = 1;
nodes = (
(573,-14,o),
(643,103,o),
(678,134,c),
(678,188,o),
(676,275,o),
(692,322,c),
(569,322,l),
(595,277,o),
(595,206,o),
(595,110,c),
(549,69,o),
(477,52,o),
(423,52,cs),
(253,52,o),
(152,192,o),
(152,365,cs),
(152,559,o),
(231,649,o),
(375,649,cs),
(457,649,o),
(571,602,o),
(611,524,c),
(618,526,l),
(628,660,l),
(569,692,o),
(504,713,o),
(418,713,cs),
(229,713,o),
(50,565,o),
(50,325,cs),
(50,124,o),
(203,-14,o),
(385,-14,cs)
);
}
);
width = 752;
},
{
associatedMasterId = m01;
layerId = "B4FBACBA-C7AD-479E-A114-34F8B1E81FB4";
width = 600;
},
{
associatedMasterId = m01;
layerId = "106DA6D1-F163-4962-ABD1-5D396BDF94D3";
width = 774;
},
{
anchors = (
{
name = bottom;
pos = (400,0);
},
{
name = top;
pos = (431,700);
}
);
associatedMasterId = m01;
layerId = "649FDB3D-A7B3-4875-A939-1ADA14764D7F";
name = "5 feb 22, 18:04";
shapes = (
{
closed = 1;
nodes = (
(608,-14,o),
(684,103,o),
(717,166,c),
(710,167,l),
(685,138,o),
(652,131,o),
(629,110,cs),
(583,69,o),
(512,52,o),
(458,52,cs),
(287,52,o),
(187,187,o),
(187,360,cs),
(187,554,o),
(266,649,o),
(410,649,cs),
(492,649,o),
(606,602,o),
(646,508,c),
(663,660,l),
(604,692,o),
(539,713,o),
(453,713,cs),
(264,713,o),
(85,560,o),
(85,320,cs),
(85,119,o),
(238,-14,o),
(420,-14,cs)
);
},
{
closed = 1;
nodes = (
(717,165,l),
(717,204,o),
(718,295,o),
(722,322,q),
(603,322,l),
(619,289,o),
(629,217,o),
(629,153,qs),
(629,75,l)
);
}
);
width = 767;
},
{
anchors = (
{
name = bottom;
pos = (585,0);
},
{
name = top;
pos = (591,700);
}
);
layerId = "CF8A9C28-2F26-4C68-964B-3F562C170337";
shapes = (
{
closed = 1;
nodes = (
(830,-26,o),
(997,116,o),
(1049,145,c),
(1049,248,o),
(1048,306,o),
(1055,332,c),
(828,332,l),
(853,289,o),
(854,217,o),
(853,138,c),
(800,101,o),
(740,95,o),
(677,95,cs),
(461,95,o),
(218,245,o),
(218,455,cs),
(218,576,o),
(322,671,o),
(458,671,cs),
(730,671,o),
(952,463,o),
(963,448,c),
(974,455,l),
(1013,643,l),
(1013,643,o),
(864,747,o),
(607,747,cs),
(311,747,o),
(70,594,o),
(70,338,cs),
(70,135,o),
(290,-26,o),
(557,-26,cs)
);
}
);
width = 1115;
},
{
associatedMasterId = "CF8A9C28-2F26-4C68-964B-3F562C170337";
layerId = "0E3776A5-E666-4108-A4F8-773786753773";
name = "12 mar 22, 14:09";
shapes = (
{
closed = 1;
nodes = (
(1598,-14,o),
(1674,103,o),
(1707,166,c),
(1709,218,o),
(1707,296,o),
(1712,322,c),
(1593,322,l),
(1619,277,o),
(1619,206,o),
(1619,110,c),
(1573,69,o),
(1502,52,o),
(1448,52,cs),
(1278,52,o),
(1177,187,o),
(1177,360,cs),
(1177,554,o),
(1256,649,o),
(1400,649,cs),
(1482,649,o),
(1596,602,o),
(1636,508,c),
(1653,660,l),
(1594,692,o),
(1529,713,o),
(1443,713,cs),
(1254,713,o),
(1075,560,o),
(1075,320,cs),
(1075,119,o),
(1228,-14,o),
(1410,-14,cs)
);
},
{
closed = 1;
nodes = (
(996,245,l),
(922,167,o),
(810,113,o),
(642,113,cs),
(436,113,o),
(213,265,o),
(213,455,cs),
(213,576,o),
(317,671,o),
(453,671,cs),
(725,671,o),
(949,401,o),
(949,401,c),
(998,643,l),
(998,643,o),
(859,747,o),
(602,747,cs),
(306,747,o),
(65,584,o),
(65,328,cs),
(65,125,o),
(285,-26,o),
(522,-26,cs),
(815,-26,o),
(955,135,o),
(1007,226,c)
);
},
{
closed = 1;
nodes = (
(1024,248,o),
(1023,296,o),
(1028,322,c),
(793,322,l),
(819,277,o),
(819,206,o),
(819,110,c),
(1024,196,l)
);
}
);
width = 1600;
},
{
anchors = (
{
name = bottom;
pos = (550,0);
},
{
name = top;
pos = (586,700);
}
);
associatedMasterId = "CF8A9C28-2F26-4C68-964B-3F562C170337";
layerId = "FBC7C9D2-40C1-4934-9304-C2291F542760";
name = "29 mar 22, 23:56";
shapes = (
{
closed = 1;
nodes = (
(835,-26,o),
(1012,126,o),
(1074,206,c),
(1074,248,o),
(1073,306,o),
(1080,332,c),
(853,332,l),
(878,289,o),
(879,211,o),
(878,132,c),
(825,95,o),
(775,87,o),
(712,87,cs),
(456,87,o),
(213,245,o),
(213,455,cs),
(213,576,o),
(317,671,o),
(453,671,cs),
(725,671,o),
(947,433,o),
(958,418,c),
(969,425,l),
(1008,643,l),
(1008,643,o),
(859,747,o),
(602,747,cs),
(306,747,o),
(65,584,o),
(65,328,cs),
(65,125,o),
(285,-26,o),
(552,-26,cs)
);
}
);
width = 1130;
},
{
anchors = (
{
name = bottom;
pos = (550,0);
},
{
name = top;
pos = (586,700);
}
);
associatedMasterId = "CF8A9C28-2F26-4C68-964B-3F562C170337";
layerId = "D94B5D3A-01C3-4351-AAE3-20E9AAD5A95A";
name = "4 apr 22, 11:39";
shapes = (
{
closed = 1;
nodes = (
(815,-26,o),
(992,126,o),
(1054,206,c),
(1054,248,o),
(1053,306,o),
(1060,332,c),
(833,332,l),
(858,289,o),
(859,211,o),
(858,132,c),
(805,95,o),
(755,87,o),
(692,87,cs),
(436,87,o),
(213,245,o),
(213,455,cs),
(213,576,o),
(317,671,o),
(453,671,cs),
(725,671,o),
(947,433,o),
(958,418,c),
(969,425,l),
(1008,643,l),
(1008,643,o),
(859,747,o),
(602,747,cs),
(306,747,o),
(65,584,o),
(65,328,cs),
(65,125,o),
(285,-26,o),
(552,-26,cs)
);
}
);
width = 1130;
},
{
anchors = (
{
name = bottom;
pos = (400,0);
},
{
name = top;
pos = (436,700);
}
);
associatedMasterId = m01;
layerId = "391EDC77-1AE2-4BB3-A285-C5F5BF2FD54A";
name = "9 apr 22, 12:58";
shapes = (
{
closed = 1;
nodes = (
(608,-14,o),
(684,103,o),
(717,166,c),
(719,218,o),
(717,296,o),
(722,322,c),
(603,322,l),
(629,277,o),
(629,206,o),
(629,110,c),
(583,69,o),
(512,52,o),
(458,52,cs),
(288,52,o),
(187,187,o),
(187,360,cs),
(187,554,o),
(266,649,o),
(410,649,cs),
(492,649,o),
(606,602,o),
(646,508,c),
(653,510,l),
(663,660,l),
(604,692,o),
(539,713,o),
(453,713,cs),
(264,713,o),
(85,560,o),
(85,320,cs),
(85,119,o),
(238,-14,o),
(420,-14,cs)
);
}
);
width = 787;
},
{
anchors = (
{
name = bottom;
pos = (436,0);
},
{
name = top;
pos = (462,700);
}
);
associatedMasterId = m01;
layerId = "AB41D4FA-9E86-4A3E-A9F5-64A2BBA2AFB6";
shapes = (
{
closed = 1;
nodes = (
(655,-18,o),
(756,107,o),
(796,137,c),
(796,207,o),
(794,285,o),
(807,325,c),
(652,325,l),
(678,281,o),
(678,209,o),
(678,119,c),
(629,79,o),
(561,65,o),
(504,65,cs),
(320,65,o),
(175,209,o),
(175,393,cs),
(175,564,o),
(261,656,o),
(403,656,cs),
(544,656,o),
(692,559,o),
(723,500,c),
(731,504,l),
(750,655,l),
(710,677,o),
(618,724,o),
(479,724,cs),
(257,724,o),
(58,574,o),
(58,329,cs),
(58,127,o),
(232,-18,o),
(441,-18,cs)
);
}
);
width = 873.5625;
}
);
metricLeft = O;
unicode = 71;
}
{
color = 3;
glyphname = H;
kernLeft = l;
kernRight = l;
layers = (
{
layerId = m01;
shapes = (
{
closed = 1;
nodes = (
(67,686,o),
(76,625,o),
(76,530,cs),
(76,169,ls),
(76,38,o),
(55,0,o),
(55,0,c),
(185,0,l),
(185,0,o),
(166,38,o),
(166,169,cs),
(166,530,ls),
(166,662,o),
(185,700,o),
(185,700,c),
(55,700,l)
);
},
{
closed = 1;
nodes = (
(134,334,l),
(208,341,o),
(282,342,o),
(346,342,cs),
(437,342,o),
(517,340,o),
(598,334,c),
(598,394,l),
(517,388,o),
(435,386,o),
(366,386,cs),
(282,386,o),
(208,388,o),
(134,394,c)
);
},
{
closed = 1;
nodes = (
(547,700,o),
(566,662,o),
(566,530,cs),
(566,169,ls),
(566,38,o),
(547,0,o),
(547,0,c),
(677,0,l),
(677,0,o),
(656,38,o),
(656,169,cs),
(656,530,ls),
(656,662,o),
(677,700,o),
(677,700,c),
(547,700,l)
);
}
);
width = 732;
},
{
associatedMasterId = m01;
layerId = "B4FBACBA-C7AD-479E-A114-34F8B1E81FB4";
width = 600;
},
{
associatedMasterId = m01;
layerId = "106DA6D1-F163-4962-ABD1-5D396BDF94D3";
width = 957;
},
{
layerId = "CF8A9C28-2F26-4C68-964B-3F562C170337";
shapes = (
{
closed = 1;
nodes = (
(75,700,o),
(94,662,o),
(94,530,cs),
(94,169,ls),
(94,38,o),
(75,0,o),
(75,0,c),
(320,0,l),
(320,0,o),
(299,38,o),
(299,169,cs),
(299,530,ls),
(299,662,o),
(320,700,o),
(320,700,c),
(75,700,l)
);
},
{
closed = 1;
nodes = (
(262,333,l),
(337,335,o),
(454,338,o),
(528,338,cs),
(596,338,o),
(687,335,o),
(847,332,c),
(811,397,l),
(661,393,o),
(601,392,o),
(549,392,cs),
(477,392,o),
(367,393,o),
(297,396,c)
);
},
{
closed = 1;
nodes = (
(780,700,o),
(799,662,o),
(799,530,cs),
(799,169,ls),
(799,38,o),
(780,0,o),
(780,0,c),
(1025,0,l),
(1025,0,o),
(1004,38,o),
(1004,169,cs),
(1004,530,ls),
(1004,662,o),
(1025,700,o),
(1025,700,c),
(780,700,l)
);
}
);
width = 1100;
},
{
associatedMasterId = m01;
layerId = "AB41D4FA-9E86-4A3E-A9F5-64A2BBA2AFB6";
shapes = (
{
closed = 1;
nodes = (
(83,690,o),
(95,637,o),
(95,530,cs),
(95,169,ls),
(95,38,o),
(75,0,o),
(75,0,c),
(245,0,l),
(245,0,o),
(225,38,o),
(225,169,cs),
(225,530,ls),
(225,662,o),
(245,700,o),
(245,700,c),
(75,700,l)
);
},
{
closed = 1;
nodes = (
(192,334,l),
(266,339,o),
(354,341,o),
(421,341,cs),
(505,341,o),
(588,338,o),
(694,333,c),
(682,395,l),
(580,390,o),
(505,388,o),
(441,388,cs),
(361,388,o),
(276,390,o),
(203,395,c)
);
},
{
closed = 1;
nodes = (
(638,700,o),
(657,662,o),
(657,530,cs),
(657,169,ls),
(657,38,o),
(638,0,o),
(638,0,c),
(808,0,l),
(808,0,o),
(787,38,o),
(787,169,cs),
(787,530,ls),
(787,662,o),
(808,700,o),
(808,700,c),
(638,700,l)
);
}
);
width = 882.125;
}
);
metricLeft = I;
metricRight = I;
unicode = 72;
}
{
color = 3;
glyphname = I;
layers = (
{
anchors = (
{
name = bottom;
pos = (124,0);
},
{
name = ogonek;
pos = (190,0);
},
{
name = top;
pos = (123,700);
},
{
name = topleft;
pos = (34,700);
}
);
layerId = m01;
shapes = (
{
closed = 1;
nodes = (
(55,700,o),
(76,662,o),
(76,530,cs),
(76,169,ls),
(76,38,o),
(55,0,o),
(55,0,c),
(185,0,l),
(185,0,o),
(164,38,o),
(164,169,cs),
(164,530,ls),
(164,662,o),
(185,700,o),
(185,700,c),
(55,700,l)
);
}
);
width = 240;
},
{
associatedMasterId = m01;
layerId = "B4FBACBA-C7AD-479E-A114-34F8B1E81FB4";
width = 600;
},
{
associatedMasterId = m01;
layerId = "106DA6D1-F163-4962-ABD1-5D396BDF94D3";
width = 18;
},
{
anchors = (
{
name = bottom;
pos = (199,0);
},
{
name = ogonek;
pos = (204,14);
},
{
name = top;
pos = (198,700);
},
{
name = topleft;
pos = (105,700);
}
);
layerId = "CF8A9C28-2F26-4C68-964B-3F562C170337";
shapes = (
{
closed = 1;
nodes = (
(75,700,o),
(94,662,o),
(94,530,cs),
(94,169,ls),
(94,38,o),
(75,0,o),
(75,0,c),
(320,0,l),
(320,0,o),
(299,38,o),
(299,169,cs),
(299,530,ls),
(299,662,o),
(320,700,o),
(320,700,c),
(75,700,l)
);
}
);
width = 395;
},
{
anchors = (
{
name = bottom;
pos = (161,0);
},
{
name = ogonek;
pos = (208,4);
},
{
name = top;
pos = (160,700);
},
{
name = topleft;
pos = (70,700);
}
);
associatedMasterId = m01;
layerId = "AB41D4FA-9E86-4A3E-A9F5-64A2BBA2AFB6";
shapes = (
{
closed = 1;
nodes = (
(75,700,o),
(95,662,o),
(95,530,cs),
(95,169,ls),
(95,38,o),
(75,0,o),
(75,0,c),
(245,0,l),
(245,0,o),
(224,38,o),
(224,169,cs),
(224,530,ls),
(224,662,o),
(245,700,o),
(245,700,c),
(75,700,l)
);
}
);
width = 320.1875;
}
);
unicode = 73;
}
{
color = 3;
glyphname = J;
kernLeft = J;
kernRight = U;
layers = (
{
layerId = m01;
shapes = (
{
closed = 1;
nodes = (
(189,700,l),
(189,700,o),
(168,662,o),
(168,530,cs),
(168,142,ls),
(168,-56,o),
(51,-102,o),
(-39,-118,c),
(-40,-108,l),
(33,-94,o),
(80,-18,o),
(80,159,cs),
(80,530,ls),
(80,662,o),
(59,700,o),
(59,700,c)
);
}
);
width = 244;
},
{
associatedMasterId = m01;
layerId = "B4FBACBA-C7AD-479E-A114-34F8B1E81FB4";
width = 600;
},
{
associatedMasterId = m01;
layerId = "106DA6D1-F163-4962-ABD1-5D396BDF94D3";
width = 516;
},
{
layerId = "CF8A9C28-2F26-4C68-964B-3F562C170337";
shapes = (
{
closed = 1;
nodes = (
(402,700,l),
(402,700,o),
(381,662,o),
(381,530,cs),
(381,169,ls),
(381,-76,o),
(104,-139,o),
(-54,-139,c),
(-55,-119,l),
(84,-119,o),
(176,-16,o),
(176,169,cs),
(176,530,ls),
(176,662,o),
(157,700,o),
(157,700,c)
);
}
);
width = 477;
},
{
associatedMasterId = m01;
layerId = "AB41D4FA-9E86-4A3E-A9F5-64A2BBA2AFB6";
shapes = (
{
closed = 1;
nodes = (
(272,700,l),
(272,700,o),
(251,662,o),
(251,530,cs),
(251,150,ls),
(251,-62,o),
(84,-114,o),
(-27,-125,c),
(-28,-111,l),
(66,-102,o),
(123,-17,o),
(123,162,cs),
(123,530,ls),
(123,662,o),
(102,700,o),
(102,700,c)
);
}
);
width = 346.8125;
}
);
metricRight = I;
unicode = 74;
}
{
color = 3;
glyphname = K;
layers = (
{
anchors = (
{
name = bottom;
pos = (267,0);
},
{
name = top;
pos = (263,700);
}
);
layerId = m01;
shapes = (
{
closed = 1;
nodes = (
(55,700,o),
(76,662,o),
(76,530,cs),
(76,169,ls),
(76,38,o),
(55,0,o),
(55,0,c),
(187,0,l),
(187,0,o),
(166,38,o),
(166,169,cs),
(166,271,l),
(253,360,l),
(385,175,ls),
(429,113,o),
(484,44,o),
(495,0,c),
(646,0,l),
(599,44,o),
(571,74,o),
(543,113,cs),
(319,421,l),
(486,592,ls),
(524,631,o),
(574,672,o),
(610,701,c),
(503,700,l),
(493,678,o),
(465,644,o),
(443,622,cs),
(166,347,l),
(166,530,ls),
(166,662,o),
(187,700,o),
(187,700,c),
(55,700,l)
);
}
);
width = 675;
},
{
associatedMasterId = m01;
layerId = "B4FBACBA-C7AD-479E-A114-34F8B1E81FB4";
width = 600;
},
{
associatedMasterId = m01;
layerId = "106DA6D1-F163-4962-ABD1-5D396BDF94D3";
width = 18;
},
{
anchors = (
{
name = bottom;
pos = (498,0);
},
{
name = top;
pos = (514,700);
}
);
layerId = "CF8A9C28-2F26-4C68-964B-3F562C170337";
shapes = (
{
closed = 1;
nodes = (
(75,700,o),
(94,662,o),
(94,530,cs),
(94,169,ls),
(94,38,o),
(75,0,o),
(75,0,c),
(320,0,l),
(320,0,o),
(299,38,o),
(299,169,cs),
(299,265,l),
(404,338,l),
(621,126,ls),
(665,83,o),
(730,30,o),
(741,0,c),
(1107,0,l),
(1048,23,o),
(971,81,o),
(845,200,cs),
(574,456,l),
(769,592,ls),
(813,622,o),
(897,672,o),
(980,701,c),
(764,700,l),
(730,654,o),
(692,620,o),
(623,572,c),
(299,350,l),
(299,530,ls),
(299,662,o),
(320,700,o),
(320,700,c),
(75,700,l)
);
}
);
width = 1177;
},
{
anchors = (
{
name = bottom;
pos = (308,0);
},
{
name = top;
pos = (304,700);
}
);
associatedMasterId = m01;
layerId = "E1763597-43D9-4F25-AA01-76CFE9E91014";
name = "12 mar 22, 14:36";
shapes = (
{
closed = 1;
nodes = (
(426,175,ls),
(470,113,o),
(525,44,o),
(536,0,c),
(685,0,l),
(685,6,l),
(640,44,o),
(612,74,o),
(584,113,cs),
(359,425,l),
(286,373,l)
);
},
{
closed = 1;
nodes = (
(193,258,l),
(557,592,ls),
(598,628,o),
(645,672,o),
(678,694,c),
(678,701,l),
(581,700,l),
(571,684,o),
(555,667,o),
(539,650,c),
(119,265,l)
);
},
{
closed = 1;
nodes = (
(90,700,o),
(111,662,o),
(111,530,cs),
(111,169,ls),
(111,38,o),
(90,0,o),
(90,0,c),
(228,0,l),
(228,0,o),
(207,38,o),
(207,169,cs),
(207,530,ls),
(207,662,o),
(228,700,o),
(228,700,c),
(90,700,l)
);
}
);
width = 716;
},
{
anchors = (
{
name = bottom;
pos = (478,0);
},
{
name = top;
pos = (474,700);
}
);
associatedMasterId = "CF8A9C28-2F26-4C68-964B-3F562C170337";
layerId = "76BB6337-310A-4206-9943-1F1573ADFB36";
name = "12 mar 22, 14:36";
shapes = (
{
closed = 1;
nodes = (
(641,126,ls),
(685,83,o),
(750,30,o),
(761,0,c),
(1157,0,l),
(1157,6,l),
(1098,23,o),
(991,80,o),
(865,200,cs),
(582,468,l),
(408,353,l)
);
},
{
closed = 1;
nodes = (
(95,700,o),
(114,662,o),
(114,530,cs),
(114,169,ls),
(114,38,o),
(95,0,o),
(95,0,c),
(340,0,l),
(340,0,o),
(319,38,o),
(319,169,cs),
(319,530,ls),
(319,662,o),
(340,700,o),
(340,700,c),
(95,700,l)
);
},
{
closed = 1;
nodes = (
(306,256,l),
(789,592,ls),
(833,622,o),
(917,672,o),
(1000,694,c),
(1000,701,l),
(833,700,l),
(812,676,o),
(794,667,o),
(771,650,c),
(252,306,l)
);
}
);
width = 1212;
},
{
anchors = (
{
name = bottom;
pos = (308,0);
},
{
name = top;
pos = (304,700);
}
);
associatedMasterId = m01;
layerId = "369533F6-7D33-4CAB-BA8F-79F2502CDDE0";
name = "4 apr 22, 12:33";
shapes = (
{
closed = 1;
nodes = (
(90,700,o),
(111,662,o),
(111,530,cs),
(111,169,ls),
(111,38,o),
(90,0,o),
(90,0,c),
(228,0,l),
(228,0,o),
(207,38,o),
(207,169,cs),
(207,271,l),
(299,355,l),
(426,175,ls),
(470,113,o),
(525,44,o),
(536,0,c),
(685,0,l),
(685,6,l),
(640,44,o),
(612,74,o),
(584,113,cs),
(365,416,l),
(557,592,ls),
(598,628,o),
(645,672,o),
(681,701,c),
(581,700,l),
(571,684,o),
(555,667,o),
(539,650,c),
(207,346,l),
(207,530,ls),
(207,662,o),
(228,700,o),
(228,700,c),
(90,700,l)
);
}
);
width = 716;
},
{
anchors = (
{
name = bottom;
pos = (308,0);
},
{
name = top;
pos = (304,700);
}
);
associatedMasterId = m01;
layerId = "DDC04073-B799-43CF-9F93-D9F7E0B27597";
name = "9 apr 22, 13:12";
shapes = (
{
closed = 1;
nodes = (
(90,700,o),
(111,662,o),
(111,530,cs),
(111,169,ls),
(111,38,o),
(90,0,o),
(90,0,c),
(228,0,l),
(228,0,o),
(207,38,o),
(207,169,cs),
(207,271,l),
(299,355,l),
(426,175,ls),
(470,113,o),
(525,44,o),
(536,0,c),
(687,0,l),
(640,44,o),
(612,74,o),
(584,113,cs),
(365,416,l),
(547,592,ls),
(586,630,o),
(635,672,o),
(671,701,c),
(564,700,l),
(554,678,o),
(528,649,o),
(506,628,cs),
(207,346,l),
(207,530,ls),
(207,662,o),
(228,700,o),
(228,700,c),
(90,700,l)
);
}
);
width = 716;
},
{
anchors = (
{
name = bottom;
pos = (356,0);
},
{
name = top;
pos = (359,700);
}
);
associatedMasterId = m01;
layerId = "AB41D4FA-9E86-4A3E-A9F5-64A2BBA2AFB6";
shapes = (
{
closed = 1;
nodes = (
(74,700,o),
(95,662,o),
(95,530,cs),
(95,169,ls),
(95,38,o),
(74,0,o),
(74,0,c),
(246,0,l),
(246,0,o),
(225,38,o),
(225,169,cs),
(225,269,l),
(317,353,l),
(476,160,ls),
(520,104,o),
(578,40,o),
(589,0,c),
(807,0,l),
(757,37,o),
(713,76,o),
(655,140,cs),
(416,432,l),
(592,592,ls),
(632,628,o),
(692,672,o),
(743,701,c),
(602,700,l),
(584,671,o),
(553,637,o),
(517,606,cs),
(225,348,l),
(225,530,ls),
(225,662,o),
(246,700,o),
(246,700,c),
(74,700,l)
);
}
);
width = 849.125;
}
);
metricLeft = H;
unicode = 75;
}
{
color = 3;
glyphname = L;
kernRight = L;
layers = (
{
anchors = (
{
name = bottom;
pos = (265,0);
},
{
name = top;
pos = (117,700);
},
{
name = topright;
pos = (261,468);
}
);
layerId = m01;
shapes = (
{
closed = 1;
nodes = (
(55,700,o),
(76,662,o),
(76,530,cs),
(76,169,ls),
(76,38,o),
(55,0,o),
(55,0,c),
(507,-4,l),
(551,136,l),
(544,140,l),
(461,52,o),
(272,53,o),
(173,55,c),
(169,81,o),
(166,120,o),
(166,169,cs),
(166,530,ls),
(166,662,o),
(187,700,o),
(187,700,c),
(55,700,l)
);
}
);
width = 576;
},
{
associatedMasterId = m01;
layerId = "B4FBACBA-C7AD-479E-A114-34F8B1E81FB4";
width = 600;
},
{
associatedMasterId = m01;
layerId = "106DA6D1-F163-4962-ABD1-5D396BDF94D3";
width = 462;
},
{
anchors = (
{
name = bottom;
pos = (296,0);
},
{
name = top;
pos = (148,700);
},
{
name = topright;
pos = (232,508);
}
);
associatedMasterId = m01;
layerId = "044F16E6-2C15-4DE2-9BE6-D06EDD839579";
name = "14 gen 22, 19:12";
shapes = (
{
closed = 1;
nodes = (
(80,700,o),
(101,662,o),
(101,530,cs),
(101,169,ls),
(101,38,o),
(80,0,o),
(80,0,c),
(218,0,l),
(218,0,o),
(197,38,o),
(197,169,cs),
(197,530,ls),
(197,662,o),
(218,700,o),
(218,700,c),
(80,700,l)
);
},
{
closed = 1;
nodes = (
(575,148,l),
(473,40,o),
(209,60,o),
(151,60,c),
(139,0,l),
(538,-4,l),
(582,144,l)
);
}
);
width = 607;
},
{
anchors = (
{
name = bottom;
pos = (458,0);
},
{
name = top;
pos = (198,700);
},
{
name = topright;
pos = (406,437);
}
);
layerId = "CF8A9C28-2F26-4C68-964B-3F562C170337";
shapes = (
{
closed = 1;
nodes = (
(75,700,o),
(96,662,o),
(96,530,cs),
(96,169,ls),
(96,38,o),
(75,0,o),
(75,0,c),
(822,-4,l),
(872,235,l),
(860,244,l),
(728,99,o),
(560,55,o),
(308,55,c),
(304,81,o),
(301,120,o),
(301,169,cs),
(301,530,ls),
(301,662,o),
(322,700,o),
(322,700,c),
(75,700,l)
);
}
);
width = 932;
},
{
anchors = (
{
name = bottom;
pos = (343,0);
},
{
name = top;
pos = (160,700);
},
{
name = topright;
pos = (324,458);
}
);
associatedMasterId = m01;
layerId = "AB41D4FA-9E86-4A3E-A9F5-64A2BBA2AFB6";
shapes = (
{
closed = 1;
nodes = (
(74,700,o),
(95,662,o),
(95,530,cs),
(95,169,ls),
(95,38,o),
(74,0,o),
(74,0,c),
(623,-4,l),
(669,167,l),
(660,173,l),
(562,67,o),
(379,54,o),
(232,55,c),
(228,81,o),
(225,120,o),
(225,169,cs),
(225,530,ls),
(225,662,o),
(246,700,o),
(246,700,c),
(74,700,l)
);
}
);
width = 704.5;
}
);
metricLeft = H;
unicode = 76;
}
{
color = 3;
glyphname = M;
layers = (
{
layerId = m01;
shapes = (
{
closed = 1;
nodes = (
(128,0,l),
(123,36,o),
(128,103,o),
(133,139,cs),
(197,597,l),
(447,1,l),
(476,1,l),
(695,611,l),
(698,598,o),
(701,583,o),
(704,564,cs),
(771,138,l),
(776,90,o),
(779,31,o),
(776,0,c),
(903,0,l),
(875,90,o),
(862,164,o),
(851,217,cs),
(821,397,ls),
(801,538,o),
(778,649,o),
(784,702,c),
(665,701,l),
(665,675,o),
(664,663,o),
(651,627,cs),
(480,156,l),
(347,474,ls),
(316,549,o),
(285,622,o),
(264,700,c),
(125,700,l),
(138,685,o),
(149,671,o),
(160,656,c),
(80,161,ls),
(74,124,o),
(58,40,o),
(40,0,c)
);
}
);
width = 943;
},
{
associatedMasterId = m01;
layerId = "B4FBACBA-C7AD-479E-A114-34F8B1E81FB4";
width = 600;
},
{
associatedMasterId = m01;
layerId = "106DA6D1-F163-4962-ABD1-5D396BDF94D3";
width = 876;
},
{
layerId = "CF8A9C28-2F26-4C68-964B-3F562C170337";
shapes = (
{
closed = 1;
nodes = (
(165,0,l),
(160,32,o),
(165,95,o),
(179,139,cs),
(314,572,l),
(576,1,l),
(652,1,l),
(853,572,l),
(854,561,o),
(858,549,o),
(864,530,cs),
(992,138,ls),
(1008,90,o),
(1016,60,o),
(1020,0,c),
(1286,0,l),
(1251,60,o),
(1223,125,o),
(1195,210,cs),
(1099,503,ls),
(1070,591,o),
(1052,649,o),
(1056,702,c),
(788,701,l),
(800,668,o),
(804,642,o),
(791,605,cs),
(668,246,l),
(558,474,ls),
(523,546,o),
(476,644,o),
(461,700,c),
(205,700,l),
(233,680,o),
(250,666,o),
(261,644,c),
(115,180,ls),
(103,143,o),
(92,94,o),
(45,0,c)
);
}
);
width = 1331;
},
{
associatedMasterId = m01;
layerId = "93BDD2D2-8FE6-4EEA-B047-7D3A3A95DCBD";
name = "12 mar 22, 14:38";
shapes = (
{
closed = 1;
nodes = (
(134,0,l),
(222,636,l),
(181,663,l),
(74,0,l)
);
},
{
closed = 1;
nodes = (
(520,109,l),
(273,700,l),
(174,700,l),
(467,1,l)
);
},
{
closed = 1;
nodes = (
(747,700,l),
(685,701,l),
(685,675,o),
(684,663,o),
(671,627,c),
(463,54,l),
(467,1,l),
(496,1,l)
);
},
{
closed = 1;
nodes = (
(909,0,l),
(793,700,l),
(703,700,l),
(812,1,l),
(812,0,l)
);
},
{
closed = 1;
nodes = (
(194,644,o),
(222,590,o),
(249,530,c),
(368,474,l),
(336,549,o),
(305,622,o),
(284,700,c),
(145,700,l)
);
},
{
closed = 1;
nodes = (
(713,638,o),
(715,627,o),
(748,416,c),
(847,370,l),
(826,523,o),
(800,646,o),
(806,702,c),
(685,701,l)
);
},
{
closed = 1;
nodes = (
(783,194,l),
(791,150,o),
(801,46,o),
(796,0,c),
(925,0,l),
(894,99,o),
(881,179,o),
(870,232,c)
);
},
{
closed = 1;
nodes = (
(103,179,l),
(103,179,o),
(83,52,o),
(60,0,c),
(148,0,l),
(141,50,o),
(156,162,o),
(156,162,c)
);
}
);
width = 985;
},
{
associatedMasterId = "CF8A9C28-2F26-4C68-964B-3F562C170337";
layerId = "C91E1261-C571-4522-8864-C4D369F2001D";
name = "12 mar 22, 14:56";
shapes = (
{
closed = 1;
nodes = (
(148,0,l),
(143,36,o),
(148,103,o),
(153,139,cs),
(217,597,l),
(467,1,l),
(496,1,l),
(715,611,l),
(718,598,o),
(721,583,o),
(724,564,cs),
(791,138,l),
(796,90,o),
(799,31,o),
(796,0,c),
(925,0,l),
(897,90,o),
(882,164,o),
(873,217,cs),
(843,397,ls),
(820,537,o),
(800,649,o),
(806,702,c),
(685,701,l),
(685,675,o),
(684,663,o),
(671,627,cs),
(500,156,l),
(367,474,ls),
(336,549,o),
(305,622,o),
(284,700,c),
(145,700,l),
(158,685,o),
(169,671,o),
(180,656,c),
(100,161,ls),
(94,124,o),
(78,40,o),
(60,0,c)
);
},
{
closed = 1;
nodes = (
(1694,186,l),
(1545,474,ls),
(1507,547,o),
(1456,646,o),
(1442,700,c),
(1185,700,l),
(1198,685,o),
(1220,666,o),
(1231,644,c),
(1110,161,ls),
(1101,124,o),
(1078,40,o),
(1060,0,c),
(1148,0,l),
(1148,32,o),
(1152,95,o),
(1163,139,cs),
(1272,572,l),
(1567,1,l),
(1622,1,l)
);
},
{
closed = 1;
nodes = (
(1607,1,l),
(1622,1,l),
(1855,572,l),
(1856,561,o),
(1860,549,o),
(1866,530,cs),
(1997,138,l),
(2013,90,o),
(2021,60,o),
(2025,0,c),
(2295,0,l),
(2256,60,o),
(2229,125,o),
(2200,210,cs),
(2101,503,ls),
(2071,591,o),
(2057,649,o),
(2063,702,c),
(1804,701,l),
(1816,668,o),
(1824,641,o),
(1809,605,cs),
(1628,160,l)
);
}
);
width = 2320;
},
{
associatedMasterId = "CF8A9C28-2F26-4C68-964B-3F562C170337";
layerId = "23BDA039-DB9B-4902-A940-E3DD26726DB7";
name = "4 apr 22, 11:43";
shapes = (
{
closed = 1;
nodes = (
(133,0,l),
(133,32,o),
(142,95,o),
(154,139,cs),
(270,572,l),
(562,1,l),
(617,1,l),
(850,572,l),
(851,561,o),
(855,549,o),
(861,530,cs),
(992,138,ls),
(1008,90,o),
(1016,60,o),
(1020,0,c),
(1286,0,l),
(1251,60,o),
(1224,125,o),
(1195,210,cs),
(1096,503,ls),
(1066,591,o),
(1052,649,o),
(1058,702,c),
(799,701,l),
(811,668,o),
(819,641,o),
(804,605,cs),
(658,246,l),
(540,474,ls),
(503,546,o),
(454,646,o),
(440,700,c),
(183,700,l),
(196,685,o),
(218,666,o),
(229,644,c),
(101,161,ls),
(91,124,o),
(63,40,o),
(45,0,c)
);
}
);
width = 1331;
},
{
associatedMasterId = "CF8A9C28-2F26-4C68-964B-3F562C170337";
layerId = "538235CF-EE1B-4254-BE8D-9F644E6C4C1F";
name = "4 apr 22, 15:26";
shapes = (
{
closed = 1;
nodes = (
(133,0,l),
(133,32,o),
(142,95,o),
(154,139,cs),
(268,572,l),
(562,1,l),
(617,1,l),
(850,572,l),
(851,561,o),
(855,549,o),
(861,530,cs),
(992,138,ls),
(1008,90,o),
(1016,60,o),
(1020,0,c),
(1286,0,l),
(1251,60,o),
(1224,125,o),
(1195,210,cs),
(1096,503,ls),
(1066,591,o),
(1052,649,o),
(1058,702,c),
(799,701,l),
(811,668,o),
(819,641,o),
(804,605,cs),
(658,246,l),
(538,474,ls),
(500,546,o),
(452,646,o),
(438,700,c),
(181,700,l),
(194,685,o),
(216,666,o),
(227,644,c),
(101,161,ls),
(91,124,o),
(63,40,o),
(45,0,c)
);
}
);
width = 1331;
},
{
associatedMasterId = m01;
layerId = "AB41D4FA-9E86-4A3E-A9F5-64A2BBA2AFB6";
shapes = (
{
closed = 1;
nodes = (
(150,0,l),
(145,35,o),
(152,101,o),
(158,139,cs),
(238,584,l),
(498,1,l),
(542,1,l),
(758,599,l),
(761,586,o),
(764,572,o),
(768,553,cs),
(854,138,l),
(862,90,o),
(867,40,o),
(866,0,c),
(1038,0,l),
(1008,81,o),
(990,152,o),
(974,215,cs),
(923,430,ls),
(900,555,o),
(879,649,o),
(884,702,c),
(717,701,l),
(721,673,o),
(722,656,o),
(709,620,cs),
(549,184,l),
(421,474,ls),
(389,548,o),
(351,629,o),
(332,700,c),
(159,700,l),
(172,685,o),
(186,669,o),
(197,652,c),
(102,167,ls),
(94,130,o),
(79,57,o),
(52,0,c)
);
}
);
width = 1093.125;
},
{
associatedMasterId = "CF8A9C28-2F26-4C68-964B-3F562C170337";
layerId = "BB5DA50F-127E-42C3-ABD3-0B16C888154A";
name = "15 ago 23, 16:11";
shapes = (
{
closed = 1;
nodes = (
(155,0,l),
(150,32,o),
(157,95,o),
(169,139,cs),
(284,556,l),
(566,1,l),
(642,1,l),
(853,573,l),
(854,562,o),
(858,550,o),
(864,531,cs),
(992,138,ls),
(1008,90,o),
(1016,60,o),
(1020,0,c),
(1286,0,l),
(1251,60,o),
(1223,125,o),
(1195,210,cs),
(1099,504,ls),
(1070,592,o),
(1052,650,o),
(1056,703,c),
(788,702,l),
(800,669,o),
(805,643,o),
(791,606,cs),
(658,246,l),
(541,474,ls),
(504,546,o),
(453,644,o),
(438,700,c),
(189,700,l),
(202,685,o),
(224,666,o),
(235,644,c),
(105,180,ls),
(95,143,o),
(82,94,o),
(35,0,c)
);
}
);
width = 1331;
}
);
unicode = 77;
}
{
color = 3;
glyphname = N;
kernRight = l;
layers = (
{
anchors = (
{
name = bottom;
pos = (397,0);
},
{
name = top;
pos = (380,700);
}
);
layerId = m01;
shapes = (
{
closed = 1;
nodes = (
(81,666,l),
(87,640,o),
(92,597,o),
(92,530,cs),
(92,169,ls),
(92,38,o),
(71,0,o),
(71,0,c),
(173,0,l),
(173,0,o),
(152,38,o),
(152,169,cs),
(152,530,ls),
(152,546,o),
(152,560,o),
(153,573,c),
(593,0,l),
(704,0,l),
(683,32,l),
(678,58,o),
(672,101,o),
(672,169,cs),
(672,530,ls),
(672,662,o),
(693,700,o),
(693,700,c),
(591,700,l),
(591,700,o),
(612,662,o),
(612,530,cs),
(612,169,ls),
(612,153,o),
(612,139,o),
(611,126,c),
(171,700,l),
(55,700,l)
);
}
);
width = 759;
},
{
associatedMasterId = m01;
layerId = "B4FBACBA-C7AD-479E-A114-34F8B1E81FB4";
width = 600;
},
{
associatedMasterId = m01;
layerId = "106DA6D1-F163-4962-ABD1-5D396BDF94D3";
width = 696;
},
{
anchors = (
{
name = bottom;
pos = (324,0);
},
{
name = top;
pos = (405,700);
}
);
associatedMasterId = m01;
layerId = "05FD70B3-5FC4-4D38-B0C2-0E085FCEF086";
name = "14 gen 22, 20:22";
shapes = (
{
closed = 1;
nodes = (
(618,0,l),
(735,0,l),
(197,700,l),
(80,700,l)
);
},
{
closed = 1;
nodes = (
(618,700,o),
(639,662,o),
(639,530,cs),
(639,169,ls),
(639,38,o),
(618,0,o),
(618,0,c),
(720,0,l),
(720,0,o),
(699,38,o),
(699,169,cs),
(699,530,ls),
(699,662,o),
(720,700,o),
(720,700,c),
(618,700,l)
);
},
{
closed = 1;
nodes = (
(96,700,o),
(117,662,o),
(117,530,cs),
(117,169,ls),
(117,38,o),
(96,0,o),
(96,0,c),
(198,0,l),
(198,0,o),
(177,38,o),
(177,169,cs),
(177,530,ls),
(177,662,o),
(198,700,o),
(198,700,c),
(96,700,l)
);
}
);
width = 825;
},
{
anchors = (
{
name = bottom;
pos = (573,0);
},
{
name = top;
pos = (603,700);
}
);
layerId = "CF8A9C28-2F26-4C68-964B-3F562C170337";
shapes = (
{
closed = 1;
nodes = (
(106,642,l),
(111,616,o),
(115,580,o),
(115,530,cs),
(115,169,ls),
(115,38,o),
(96,0,o),
(96,0,c),
(223,0,l),
(223,0,o),
(202,38,o),
(202,169,cs),
(202,530,ls),
(202,542,o),
(202,554,o),
(203,564,c),
(773,0,l),
(1063,0,l),
(1027,51,l),
(1021,78,o),
(1016,116,o),
(1016,169,cs),
(1016,530,ls),
(1016,662,o),
(1037,700,o),
(1037,700,c),
(910,700,l),
(910,700,o),
(929,662,o),
(929,530,cs),
(929,169,ls),
(929,156,o),
(929,143,o),
(928,132,c),
(350,700,l),
(40,700,l)
);
}
);
width = 1117;
},
{
anchors = (
{
name = bottom;
pos = (613,0);
},
{
name = top;
pos = (643,700);
}
);
associatedMasterId = "CF8A9C28-2F26-4C68-964B-3F562C170337";
layerId = "B0A6903F-B8CB-418E-AC67-55B4EB91B338";
name = "4 apr 22, 12:25";
shapes = (
{
closed = 1;
nodes = (
(146,642,l),
(151,616,o),
(155,580,o),
(155,530,cs),
(155,169,ls),
(155,38,o),
(136,0,o),
(136,0,c),
(248,0,l),
(248,0,o),
(227,38,o),
(227,169,cs),
(227,530,ls),
(227,542,o),
(227,554,o),
(228,564,c),
(813,0,l),
(1121,0,l),
(1067,51,l),
(1061,78,o),
(1056,116,o),
(1056,169,cs),
(1056,530,ls),
(1056,662,o),
(1077,700,o),
(1077,700,c),
(965,700,l),
(965,700,o),
(984,662,o),
(984,530,cs),
(984,169,ls),
(984,156,o),
(984,143,o),
(983,132,c),
(390,700,l),
(80,700,l)
);
}
);
width = 1201;
},
{
anchors = (
{
name = bottom;
pos = (460,0);
},
{
name = top;
pos = (458,700);
}
);
associatedMasterId = m01;
layerId = "AB41D4FA-9E86-4A3E-A9F5-64A2BBA2AFB6";
shapes = (
{
closed = 1;
nodes = (
(97,659,l),
(103,633,o),
(108,592,o),
(108,530,cs),
(108,169,ls),
(108,38,o),
(87,0,o),
(87,0,c),
(197,0,l),
(197,0,o),
(176,38,o),
(176,169,cs),
(176,530,ls),
(176,545,o),
(176,558,o),
(177,570,c),
(658,0,l),
(830,0,l),
(800,38,l),
(795,64,o),
(789,106,o),
(789,169,cs),
(789,530,ls),
(789,662,o),
(810,700,o),
(810,700,c),
(701,700,l),
(701,700,o),
(721,662,o),
(721,530,cs),
(721,169,ls),
(721,154,o),
(721,140,o),
(720,128,c),
(237,700,l),
(59,700,l)
);
}
);
width = 889.125;
}
);
unicode = 78;
}
{
color = 3;
glyphname = O;
kernLeft = O;
kernRight = O;
layers = (
{
anchors = (
{
name = bottom;
pos = (349,0);
},
{
name = top;
pos = (381,700);
}
);
layerId = m01;
shapes = (
{
closed = 1;
nodes = (
(582,-12,o),
(740,152,o),
(740,371,cs),
(740,567,o),
(602,712,o),
(418,712,cs),
(209,712,o),
(50,544,o),
(50,324,cs),
(50,133,o),
(186,-12,o),
(381,-12,cs)
);
},
{
closed = 1;
nodes = (
(256,52,o),
(149,189,o),
(149,373,cs),
(149,540,o),
(240,650,o),
(377,650,cs),
(533,650,o),
(641,516,o),
(641,322,cs),
(641,159,o),
(551,52,o),
(415,52,cs)
);
}
);
width = 790;
},
{
associatedMasterId = m01;
layerId = "B4FBACBA-C7AD-479E-A114-34F8B1E81FB4";
width = 600;
},
{
associatedMasterId = m01;
layerId = "106DA6D1-F163-4962-ABD1-5D396BDF94D3";
width = 930;
},
{
anchors = (
{
name = bottom;
pos = (384,0);
},
{
name = top;
pos = (426,700);
}
);
associatedMasterId = m01;
layerId = "39C9F91E-9C53-45C5-A059-E8F07D80D2E0";
name = "19 gen 22, 23:11";
shapes = (
{
closed = 1;
nodes = (
(617,-12,o),
(775,152,o),
(775,371,cs),
(775,571,o),
(645,712,o),
(453,712,cs),
(244,712,o),
(85,544,o),
(85,324,cs),
(85,122,o),
(215,-12,o),
(410,-12,cs)
);
},
{
closed = 1;
nodes = (
(291,54,o),
(186,189,o),
(186,373,cs),
(186,540,o),
(275,648,o),
(412,648,cs),
(568,648,o),
(674,516,o),
(674,322,cs),
(674,159,o),
(586,54,o),
(450,54,cs)
);
}
);
width = 860;
},
{
anchors = (
{
name = bottom;
pos = (577,0);
},
{
name = top;
pos = (609,700);
}
);
layerId = "CF8A9C28-2F26-4C68-964B-3F562C170337";
shapes = (
{
closed = 1;
nodes = (
(857,-9,o),
(1136,147,o),
(1136,375,cs),
(1136,584,o),
(911,712,o),
(629,712,cs),
(354,712,o),
(70,571,o),
(70,332,cs),
(70,133,o),
(299,-9,o),
(582,-9,cs)
);
},
{
closed = 1;
nodes = (
(386,72,o),
(283,298,o),
(283,426,cs),
(283,547,o),
(349,647,o),
(523,647,cs),
(709,647,o),
(923,510,o),
(923,292,c),
(923,180,o),
(850,72,o),
(683,72,cs)
);
}
);
width = 1206;
},
{
anchors = (
{
name = bottom;
pos = (562,0);
},
{
name = top;
pos = (594,700);
}
);
associatedMasterId = "CF8A9C28-2F26-4C68-964B-3F562C170337";
layerId = "4504EA17-9D2F-4C27-A359-115869396B69";
name = "13 feb 22, 10:13";
shapes = (
{
closed = 1;
nodes = (
(842,-9,o),
(1101,147,o),
(1101,385,cs),
(1101,584,o),
(896,712,o),
(614,712,cs),
(339,712,o),
(65,571,o),
(65,332,cs),
(65,133,o),
(284,-9,o),
(567,-9,cs)
);
},
{
closed = 1;
nodes = (
(377,70,o),
(272,299,o),
(272,425,cs),
(272,544,o),
(332,648,o),
(504,648,cs),
(688,648,o),
(904,508,o),
(904,293,c),
(904,182,o),
(837,70,o),
(672,70,cs)
);
}
);
width = 1166;
},
{
anchors = (
{
name = bottom;
pos = (419,0);
},
{
name = top;
pos = (451,700);
}
);
associatedMasterId = m01;
layerId = "AB41D4FA-9E86-4A3E-A9F5-64A2BBA2AFB6";
shapes = (
{
closed = 1;
nodes = (
(667,-11,o),
(863,150,o),
(863,372,cs),
(863,572,o),
(697,712,o),
(483,712,cs),
(253,712,o),
(55,552,o),
(55,327,cs),
(55,133,o),
(220,-11,o),
(443,-11,cs)
);
},
{
closed = 1;
nodes = (
(295,60,o),
(191,223,o),
(191,390,cs),
(191,542,o),
(273,648,o),
(421,648,cs),
(587,648,o),
(727,514,o),
(727,313,cs),
(727,166,o),
(643,60,o),
(498,60,cs)
);
}
);
width = 914.375;
}
);
unicode = 79;
}
{
color = 3;
glyphname = P;
kernLeft = l;
kernRight = P;
layers = (
{
layerId = m01;
shapes = (
{
closed = 1;
nodes = (
(60,700,l),
(60,700,o),
(88,662,o),
(86,530,cs),
(81,169,ls),
(79,38,o),
(55,0,o),
(55,0,c),
(207,0,l),
(207,0,o),
(178,38,o),
(177,169,cs),
(176,317,l),
(217,313,o),
(258,313,o),
(294,313,cs),
(395,313,o),
(564,360,o),
(564,512,cs),
(564,640,o),
(472,700,o),
(323,700,cs),
(201,700,l)
);
},
{
closed = 1;
nodes = (
(175,589,o),
(180,630,o),
(186,656,c),
(215,661,o),
(250,663,o),
(290,663,cs),
(390,663,o),
(468,600,o),
(468,503,cs),
(468,394,o),
(388,359,o),
(290,359,cs),
(238,359,o),
(212,363,o),
(176,371,c),
(175,530,ls)
);
}
);
width = 609;
},
{
associatedMasterId = m01;
layerId = "B4FBACBA-C7AD-479E-A114-34F8B1E81FB4";
width = 600;
},
{
associatedMasterId = m01;
layerId = "106DA6D1-F163-4962-ABD1-5D396BDF94D3";
width = 18;
},
{
layerId = "CF8A9C28-2F26-4C68-964B-3F562C170337";
shapes = (
{
closed = 1;
nodes = (
(75,700,l),
(75,700,o),
(94,662,o),
(94,530,cs),
(94,169,ls),
(94,38,o),
(75,0,o),
(75,0,c),
(320,0,l),
(320,0,o),
(299,38,o),
(299,169,cs),
(299,312,l),
(320,306,o),
(409,286,o),
(509,286,cs),
(740,286,o),
(965,370,o),
(965,512,cs),
(965,630,o),
(863,700,o),
(603,700,cs),
(320,700,l)
);
},
{
closed = 1;
nodes = (
(299,573,o),
(302,613,o),
(307,639,c),
(348,647,o),
(412,652,o),
(495,652,cs),
(636,652,o),
(733,600,o),
(733,465,cs),
(733,398,o),
(662,335,o),
(515,335,cs),
(414,335,o),
(331,369,o),
(299,391,c),
(299,525,ls)
);
}
);
width = 995;
},
{
associatedMasterId = m01;
layerId = "03B8E811-3123-4710-91A9-E4771EA2E96E";
name = "12 mar 22, 15:21";
shapes = (
{
closed = 1;
nodes = (
(178,646,l),
(213,658,o),
(263,663,o),
(325,663,cs),
(425,663,o),
(503,600,o),
(503,503,cs),
(503,394,o),
(433,359,o),
(335,359,cs),
(267,359,o),
(227,366,o),
(178,380,c),
(150,326,l),
(209,313,o),
(275,313,o),
(329,313,cs),
(430,313,o),
(599,360,o),
(599,512,cs),
(599,640,o),
(507,700,o),
(358,700,cs),
(305,700,o),
(250,700,o),
(178,700,c)
);
},
{
closed = 1;
nodes = (
(95,700,o),
(121,662,o),
(121,530,c),
(116,169,l),
(116,38,o),
(90,0,o),
(90,0,c),
(242,0,l),
(242,0,o),
(212,38,o),
(212,169,c),
(210,530,l),
(210,662,o),
(236,700,o),
(236,700,c),
(95,700,l)
);
}
);
width = 644;
},
{
associatedMasterId = "CF8A9C28-2F26-4C68-964B-3F562C170337";
layerId = "C5CF7658-A5CB-48F0-867E-239460431F18";
name = "12 mar 22, 15:22";
shapes = (
{
closed = 1;
nodes = (
(301,642,l),
(339,653,o),
(413,663,o),
(515,663,cs),
(656,663,o),
(753,600,o),
(753,465,cs),
(753,354,o),
(682,299,o),
(525,299,cs),
(417,299,o),
(308,341,o),
(258,380,c),
(172,337,l),
(290,288,o),
(385,253,o),
(519,253,cs),
(770,253,o),
(985,360,o),
(985,512,cs),
(985,630,o),
(883,700,o),
(623,700,cs),
(475,700,o),
(360,700,o),
(288,700,c)
);
},
{
closed = 1;
nodes = (
(95,700,o),
(114,662,o),
(114,530,cs),
(114,169,ls),
(114,38,o),
(95,0,o),
(95,0,c),
(340,0,l),
(340,0,o),
(319,38,o),
(319,169,cs),
(319,530,ls),
(319,662,o),
(340,700,o),
(340,700,c),
(95,700,l)
);
}
);
width = 1045;
},
{
associatedMasterId = m01;
layerId = "5F05F877-79B0-470A-8AC8-72BAB39D5EB6";
name = "9 apr 22, 12:36";
shapes = (
{
closed = 1;
nodes = (
(95,700,l),
(95,700,o),
(121,662,o),
(121,530,cs),
(116,169,ls),
(116,38,o),
(90,0,o),
(90,0,c),
(242,0,l),
(242,0,o),
(212,38,o),
(212,169,cs),
(211,317,l),
(252,313,o),
(293,313,o),
(329,313,cs),
(430,313,o),
(599,360,o),
(599,512,cs),
(599,640,o),
(507,700,o),
(358,700,cs),
(236,700,l)
);
},
{
closed = 1;
nodes = (
(210,589,o),
(215,630,o),
(221,656,c),
(250,661,o),
(285,663,o),
(325,663,cs),
(425,663,o),
(503,600,o),
(503,503,cs),
(503,394,o),
(433,359,o),
(335,359,cs),
(283,359,o),
(247,363,o),
(211,371,c),
(210,530,ls)
);
}
);
width = 644;
},
{
associatedMasterId = m01;
layerId = "AB41D4FA-9E86-4A3E-A9F5-64A2BBA2AFB6";
shapes = (
{
closed = 1;
nodes = (
(78,700,l),
(78,700,o),
(103,662,o),
(102,530,cs),
(98,169,ls),
(97,38,o),
(74,0,o),
(74,0,c),
(255,0,l),
(255,0,o),
(229,38,o),
(228,169,cs),
(228,315,l),
(262,311,o),
(318,305,o),
(374,305,cs),
(516,305,o),
(702,363,o),
(702,512,cs),
(702,637,o),
(607,700,o),
(424,700,cs),
(251,700,l)
);
},
{
closed = 1;
nodes = (
(227,584,o),
(231,625,o),
(237,651,c),
(270,657,o),
(314,660,o),
(367,660,cs),
(480,660,o),
(564,600,o),
(564,491,cs),
(564,395,o),
(487,352,o),
(373,352,cs),
(306,352,o),
(262,365,o),
(228,377,c),
(227,528,ls)
);
}
);
width = 752.125;
}
);
metricLeft = H;
unicode = 80;
}
{
color = 3;
glyphname = Q;
kernLeft = O;
kernRight = O;
layers = (
{
layerId = m01;
shapes = (
{
closed = 1;
nodes = (
(582,-17,o),
(740,152,o),
(740,371,cs),
(740,567,o),
(602,712,o),
(418,712,cs),
(209,712,o),
(50,544,o),
(50,324,cs),
(50,153,o),
(159,19,o),
(321,-7,c),
(129,-176,l),
(139,-183,l),
(300,-131,o),
(459,-201,o),
(536,-201,cs),
(583,-201,o),
(616,-193,o),
(696,-95,c),
(689,-89,l),
(550,-193,o),
(415,-52,o),
(256,-102,c),
(363,-12,l),
(381,-12,ls)
);
},
{
closed = 1;
nodes = (
(151,540,o),
(240,648,o),
(377,648,cs),
(533,648,o),
(639,516,o),
(639,322,cs),
(639,159,o),
(551,54,o),
(415,54,cs),
(256,54,o),
(151,189,o),
(151,373,cs)
);
}
);
width = 790;
},
{
associatedMasterId = m01;
layerId = "B4FBACBA-C7AD-479E-A114-34F8B1E81FB4";
width = 600;
},
{
associatedMasterId = m01;
layerId = "106DA6D1-F163-4962-ABD1-5D396BDF94D3";
width = 930;
},
{
layerId = "CF8A9C28-2F26-4C68-964B-3F562C170337";
shapes = (
{
closed = 1;
nodes = (
(857,-9,o),
(1136,147,o),
(1136,375,cs),
(1136,584,o),
(911,712,o),
(629,712,cs),
(354,712,o),
(70,571,o),
(70,332,cs),
(70,168,o),
(225,43,o),
(437,4,c),
(155,-202,l),
(181,-210,l),
(339,-142,o),
(628,-282,o),
(748,-282,cs),
(891,-282,o),
(977,-219,o),
(1081,-92,c),
(1072,-84,l),
(847,-252,o),
(586,-38,o),
(399,-89,c),
(514,-6,l),
(582,-9,l)
);
},
{
closed = 1;
nodes = (
(287,544,o),
(352,643,o),
(524,643,cs),
(708,643,o),
(919,508,o),
(919,293,cs),
(919,182,o),
(847,76,o),
(682,76,cs),
(389,76,o),
(287,299,o),
(287,425,cs)
);
}
);
width = 1206;
},
{
associatedMasterId = m01;
layerId = "C3C748FE-7C31-4BAF-9494-EBEBC8801BFB";
name = "12 mar 22, 15:26";
shapes = (
{
closed = 1;
nodes = (
(169,-154,l),
(292,-112,o),
(509,-192,o),
(586,-192,cs),
(633,-192,o),
(676,-174,o),
(756,-76,c),
(749,-70,l),
(610,-174,o),
(461,-38,o),
(312,-77,c),
(452,29,l),
(407,29,l),
(159,-147,l)
);
},
{
closed = 1;
nodes = (
(617,-12,o),
(775,152,o),
(775,371,cs),
(775,567,o),
(637,712,o),
(453,712,cs),
(244,712,o),
(85,544,o),
(85,324,cs),
(85,133,o),
(221,-12,o),
(416,-12,cs)
);
},
{
closed = 1;
nodes = (
(291,54,o),
(186,189,o),
(186,373,cs),
(186,540,o),
(275,648,o),
(412,648,cs),
(568,648,o),
(674,516,o),
(674,322,cs),
(674,159,o),
(586,54,o),
(450,54,cs)
);
}
);
width = 840;
},
{
associatedMasterId = m01;
layerId = "49591B58-7F8B-4AEA-AFE5-666123F64FAC";
name = "12 mar 22, 15:28";
shapes = (
{
closed = 1;
nodes = (
(617,-12,o),
(775,152,o),
(775,371,cs),
(775,567,o),
(637,712,o),
(453,712,cs),
(244,712,o),
(85,544,o),
(85,324,cs),
(85,153,o),
(194,19,o),
(356,-7,c),
(159,-147,l),
(169,-154,l),
(292,-112,o),
(509,-192,o),
(586,-192,cs),
(633,-192,o),
(676,-174,o),
(756,-76,c),
(749,-70,l),
(610,-174,o),
(461,-38,o),
(312,-77,c),
(398.377,-11.601,l),
(416,-12,ls)
);
},
{
closed = 1;
nodes = (
(186,540,o),
(275,648,o),
(412,648,cs),
(568,648,o),
(674,516,o),
(674,322,cs),
(674,159,o),
(586,54,o),
(450,54,cs),
(291,54,o),
(186,189,o),
(186,373,cs)
);
}
);
width = 840;
},
{
associatedMasterId = "CF8A9C28-2F26-4C68-964B-3F562C170337";
layerId = "80A7AC93-B6E7-4185-BE98-D67166B189A1";
name = "4 apr 22, 12:51";
shapes = (
{
closed = 1;
nodes = (
(447,0,l),
(153,-201,l),
(166,-210,l),
(324,-142,o),
(597,-226,o),
(717,-226,cs),
(860,-226,o),
(946,-163,o),
(1050,-36,c),
(1041,-28,l),
(860,-163,o),
(596,-6,o),
(409,-57,c),
(494,-6,l)
);
},
{
closed = 1;
nodes = (
(842,-9,o),
(1121,147,o),
(1121,375,cs),
(1121,584,o),
(896,712,o),
(614,712,cs),
(339,712,o),
(55,571,o),
(55,332,cs),
(55,133,o),
(284,-9,o),
(567,-9,cs)
);
},
{
closed = 1;
nodes = (
(374,76,o),
(272,299,o),
(272,425,cs),
(272,544,o),
(337,643,o),
(509,643,cs),
(693,643,o),
(904,508,o),
(904,293,c),
(904,182,o),
(832,76,o),
(667,76,cs)
);
}
);
width = 1166;
},
{
associatedMasterId = m01;
layerId = "EAB9DF24-5175-47E9-BD91-510B0350BE7F";
name = "9 apr 22, 12:36";
shapes = (
{
closed = 1;
nodes = (
(617,-17,o),
(775,152,o),
(775,371,cs),
(775,567,o),
(637,712,o),
(453,712,cs),
(244,712,o),
(85,544,o),
(85,324,cs),
(85,153,o),
(194,19,o),
(356,-7,c),
(144,-156,l),
(154,-163,l),
(277,-121,o),
(494,-201,o),
(571,-201,cs),
(618,-201,o),
(651,-193,o),
(731,-95,c),
(724,-89,l),
(585,-193,o),
(436,-57,o),
(287,-96,c),
(398.377,-11.601,l),
(416,-12,ls)
);
},
{
closed = 1;
nodes = (
(186,540,o),
(275,648,o),
(412,648,cs),
(568,648,o),
(674,516,o),
(674,322,cs),
(674,159,o),
(586,54,o),
(450,54,cs),
(291,54,o),
(186,189,o),
(186,373,cs)
);
}
);
width = 840;
},
{
associatedMasterId = m01;
layerId = "AB41D4FA-9E86-4A3E-A9F5-64A2BBA2AFB6";
width = 914.375;
}
);
metricLeft = O;
metricRight = O;
unicode = 81;
}
{
color = 3;
glyphname = R;
kernLeft = l;
kernRight = R;
layers = (
{
anchors = (
{
name = bottom;
pos = (345,0);
},
{
name = top;
pos = (278,710);
}
);
layerId = m01;
shapes = (
{
closed = 1;
nodes = (
(60,700,l),
(60,700,o),
(88,662,o),
(86,530,cs),
(81,169,ls),
(79,38,o),
(55,0,o),
(55,0,c),
(207,0,l),
(207,0,o),
(178,38,o),
(177,169,cs),
(176,326,l),
(216,322,o),
(255,322,o),
(290,322,c),
(407,143,ls),
(436,98,o),
(484,20,o),
(485,0,c),
(638,0,l),
(638,4,l),
(593,28,o),
(561,73,o),
(534,113,cs),
(387,333,l),
(475,355,o),
(564,408,o),
(564,512,cs),
(564,640,o),
(472,700,o),
(323,700,cs)
);
},
{
closed = 1;
nodes = (
(175,589,o),
(180,630,o),
(186,656,c),
(215,661,o),
(250,663,o),
(290,663,cs),
(390,663,o),
(468,600,o),
(468,503,cs),
(468,406,o),
(378,368,o),
(280,368,cs),
(228,368,o),
(212,372,o),
(176,380,c),
(175,530,ls)
);
}
);
width = 667;
},
{
associatedMasterId = m01;
layerId = "B4FBACBA-C7AD-479E-A114-34F8B1E81FB4";
width = 600;
},
{
associatedMasterId = m01;
layerId = "106DA6D1-F163-4962-ABD1-5D396BDF94D3";
width = 18;
},
{
anchors = (
{
name = bottom;
pos = (500,0);
},
{
name = top;
pos = (473,710);
}
);
layerId = "CF8A9C28-2F26-4C68-964B-3F562C170337";
shapes = (
{
closed = 1;
nodes = (
(75,700,l),
(75,700,o),
(94,662,o),
(94,530,cs),
(94,169,ls),
(94,38,o),
(75,0,o),
(75,0,c),
(320,0,l),
(320,0,o),
(299,38,o),
(299,169,cs),
(299,313,l),
(312,309,o),
(356,299,o),
(412,291,c),
(581,126,ls),
(625,83,o),
(690,30,o),
(701,0,c),
(1087,0,l),
(1087,6,l),
(1028,23,o),
(925,84,o),
(795,200,cs),
(679,303,l),
(839,333,o),
(965,407,o),
(965,513,cs),
(965,631,o),
(863,700,o),
(603,700,cs)
);
},
{
closed = 1;
nodes = (
(299,573,o),
(302,613,o),
(307,639,c),
(348,647,o),
(412,652,o),
(495,652,cs),
(636,652,o),
(733,600,o),
(733,465,cs),
(733,398,o),
(662,335,o),
(515,335,cs),
(414,335,o),
(325,373,o),
(299,392,c),
(299,525,ls)
);
}
);
width = 1107;
},
{
anchors = (
{
name = bottom;
pos = (320,0);
},
{
name = top;
pos = (313,710);
}
);
associatedMasterId = m01;
layerId = "14DC3D6A-D94A-411B-9893-29D427D41637";
name = "12 mar 22, 15:36";
shapes = (
{
closed = 1;
nodes = (
(178,646,l),
(213,658,o),
(263,663,o),
(325,663,cs),
(425,663,o),
(503,600,o),
(503,503,cs),
(503,403,o),
(433,368,o),
(335,368,cs),
(267,368,o),
(227,375,o),
(178,389,c),
(150,335,l),
(209,322,o),
(275,322,o),
(329,322,cs),
(431,322,o),
(599,369,o),
(599,512,cs),
(599,640,o),
(507,700,o),
(358,700,cs),
(305,700,o),
(250,700,o),
(178,700,c)
);
},
{
closed = 1;
nodes = (
(95,700,o),
(121,662,o),
(121,530,c),
(116,169,l),
(116,38,o),
(90,0,o),
(90,0,c),
(242,0,l),
(242,0,o),
(212,38,o),
(212,169,c),
(210,530,l),
(210,662,o),
(236,700,o),
(236,700,c),
(95,700,l)
);
},
{
closed = 1;
nodes = (
(442,143,l),
(472,99,o),
(519,20,o),
(520,0,c),
(673,0,l),
(673,6,l),
(628,38,o),
(595,73,o),
(569,113,cs),
(403,362,l),
(303,356,l)
);
}
);
width = 714;
},
{
anchors = (
{
name = bottom;
pos = (500,0);
},
{
name = top;
pos = (493,710);
}
);
associatedMasterId = "CF8A9C28-2F26-4C68-964B-3F562C170337";
layerId = "004AD624-6AC1-4D90-90C8-054874E136EC";
name = "12 mar 22, 15:36";
shapes = (
{
closed = 1;
nodes = (
(95,700,l),
(95,700,o),
(114,662,o),
(114,530,cs),
(114,169,ls),
(114,38,o),
(95,0,o),
(95,0,c),
(340,0,l),
(340,0,o),
(319,38,o),
(319,169,cs),
(319,312,l),
(339,306,o),
(429,276,o),
(529,276,cs),
(760,276,o),
(985,360,o),
(985,512,cs),
(985,630,o),
(883,700,o),
(623,700,cs),
(340,700,l)
);
},
{
closed = 1;
nodes = (
(319,584,o),
(322,622,o),
(327,648,c),
(368,656,o),
(432,663,o),
(515,663,cs),
(656,663,o),
(753,600,o),
(753,465,cs),
(753,382,o),
(682,319,o),
(535,319,cs),
(434,319,o),
(345,363,o),
(319,375,c),
(319,530,ls)
);
},
{
closed = 1;
nodes = (
(414,298,l),
(601,126,ls),
(646,84,o),
(710,30,o),
(721,0,c),
(1107,0,l),
(1107,6,l),
(1048,23,o),
(941,80,o),
(815,200,cs),
(701,308,l)
);
}
);
width = 1147;
},
{
anchors = (
{
name = bottom;
pos = (380,0);
},
{
name = top;
pos = (313,710);
}
);
associatedMasterId = m01;
layerId = "D45A3BAA-6B10-4D86-8F70-A71604DE32D0";
name = "9 apr 22, 12:38";
shapes = (
{
closed = 1;
nodes = (
(95,700,l),
(95,700,o),
(123,662,o),
(121,530,cs),
(116,169,ls),
(114,38,o),
(90,0,o),
(90,0,c),
(242,0,l),
(242,0,o),
(213,38,o),
(212,169,cs),
(211,326,l),
(251,322,o),
(290,322,o),
(325,322,c),
(442,143,ls),
(471,98,o),
(519,20,o),
(520,0,c),
(673,0,l),
(673,6,l),
(628,38,o),
(596,73,o),
(569,113,cs),
(422,333,l),
(510,355,o),
(599,408,o),
(599,512,cs),
(599,640,o),
(507,700,o),
(358,700,cs)
);
},
{
closed = 1;
nodes = (
(210,589,o),
(215,630,o),
(221,656,c),
(250,661,o),
(285,663,o),
(325,663,cs),
(425,663,o),
(503,600,o),
(503,503,cs),
(503,403,o),
(423,368,o),
(325,368,cs),
(273,368,o),
(247,372,o),
(211,380,c),
(210,530,ls)
);
}
);
width = 714;
},
{
anchors = (
{
name = bottom;
pos = (407,0);
},
{
name = top;
pos = (352,710);
}
);
associatedMasterId = m01;
layerId = "AB41D4FA-9E86-4A3E-A9F5-64A2BBA2AFB6";
shapes = (
{
closed = 1;
nodes = (
(78,700,l),
(78,700,o),
(103,662,o),
(102,530,cs),
(98,169,ls),
(97,38,o),
(74,0,o),
(74,0,c),
(255,0,l),
(255,0,o),
(229,38,o),
(228,169,cs),
(228,322,l),
(259,318,o),
(300,315,o),
(341,312,c),
(475,138,ls),
(508,93,o),
(562,23,o),
(566,0,c),
(791,0,l),
(791,5,l),
(742,26,o),
(688,76,o),
(629,140,cs),
(491,324,l),
(602,348,o),
(702,408,o),
(702,512,cs),
(702,637,o),
(607,700,o),
(424,700,cs)
);
},
{
closed = 1;
nodes = (
(227,584,o),
(231,625,o),
(237,651,c),
(270,657,o),
(314,660,o),
(367,660,cs),
(480,660,o),
(564,600,o),
(564,491,cs),
(564,404,o),
(480,358,o),
(367,358,cs),
(299,358,o),
(260,372,o),
(228,384,c),
(227,528,ls)
);
}
);
width = 823.875;
}
);
metricLeft = H;
unicode = 82;
}
{
color = 3;
glyphname = S;
kernLeft = S;
kernRight = S;
layers = (
{
anchors = (
{
name = bottom;
pos = (337,0);
},
{
name = top;
pos = (323,700);
}
);
layerId = m01;
shapes = (
{
closed = 1;
nodes = (
(74,440,o),
(137,373,o),
(270,331,cs),
(365,301,ls),
(484,263,o),
(508,218,o),
(508,167,cs),
(508,93,o),
(451,42,o),
(360,42,cs),
(249,42,o),
(127,121,o),
(67,245,c),
(60,244,l),
(90,61,l),
(165,19,o),
(250,-10,o),
(332,-10,cs),
(471,-10,o),
(600,80,o),
(600,200,cs),
(600,291,o),
(534,347,o),
(409,386,cs),
(323,413,ls),
(212,448,o),
(155,494,o),
(155,549,cs),
(155,603,o),
(189,660,o),
(295,660,cs),
(345,660,o),
(465,633,o),
(548,499,c),
(554,501,l),
(533,664,l),
(465,690,o),
(397,710,o),
(314,710,cs),
(131,710,o),
(74,593,o),
(74,515,cs)
);
}
);
width = 646;
},
{
associatedMasterId = m01;
layerId = "B4FBACBA-C7AD-479E-A114-34F8B1E81FB4";
width = 600;
},
{
associatedMasterId = m01;
layerId = "106DA6D1-F163-4962-ABD1-5D396BDF94D3";
width = 606;
},
{
anchors = (
{
name = bottom;
pos = (351,0);
},
{
name = top;
pos = (337,700);
}
);
associatedMasterId = m01;
layerId = "5533E92F-9CE8-4CE3-939D-FE5CE728DF25";
name = "19 gen 22, 22:44";
shapes = (
{
closed = 1;
nodes = (
(96,436,o),
(157,370,o),
(284,328,cs),
(374,298,ls),
(491,259,o),
(513,218,o),
(513,167,cs),
(513,96,o),
(458,45,o),
(369,45,cs),
(261,45,o),
(131,118,o),
(75,246,c),
(73,244,l),
(103,61,l),
(178,19,o),
(262,-7,o),
(341,-7,cs),
(478,-7,o),
(609,83,o),
(609,200,cs),
(609,291,o),
(541,348,o),
(418,389,cs),
(337,416,ls),
(232,451,o),
(177,490,o),
(177,545,cs),
(177,599,o),
(209,656,o),
(298,656,cs),
(349,656,o),
(470,629,o),
(553,495,c),
(555,497,l),
(535,663,l),
(467,689,o),
(401,706,o),
(318,706,cs),
(157,706,o),
(96,587,o),
(96,511,cs)
);
}
);
width = 660;
},
{
anchors = (
{
name = bottom;
pos = (508,0);
},
{
name = top;
pos = (494,700);
}
);
layerId = "CF8A9C28-2F26-4C68-964B-3F562C170337";
shapes = (
{
closed = 1;
nodes = (
(67,423,o),
(166,337,o),
(355,295,cs),
(537,254,ls),
(723,212,o),
(792,185,o),
(792,123,cs),
(792,72,o),
(715,29,o),
(592,29,cs),
(398,29,o),
(199,128,o),
(51,333,c),
(40,326,l),
(101,68,l),
(234,7,o),
(350,-27,o),
(538,-27,cs),
(770,-27,o),
(1000,55,o),
(1000,198,cs),
(1000,333,o),
(823,389,o),
(640,428,cs),
(460,466,ls),
(334,493,o),
(249,528,o),
(249,589,cs),
(249,629,o),
(285,690,o),
(434,690,cs),
(518,690,o),
(765,642,o),
(927,430,c),
(938,437,l),
(890,666,l),
(794,708,o),
(652,740,o),
(468,740,cs),
(196,740,o),
(67,640,o),
(67,513,cs)
);
}
);
width = 1040;
},
{
associatedMasterId = "CF8A9C28-2F26-4C68-964B-3F562C170337";
layerId = "D8CC60CE-9A05-414E-973C-328B86943D2D";
name = "12 mar 22, 16:40";
shapes = (
{
closed = 1;
nodes = (
(147,366,o),
(305,324,o),
(577,263,c),
(790,218,o),
(882,195,o),
(882,123,c),
(882,72,o),
(805,28,o),
(682,28,c),
(488,28,o),
(260,123,o),
(164,308,c),
(100,103,l),
(248,16,o),
(440,-27,o),
(628,-27,c),
(840,-27,o),
(1090,55,o),
(1090,208,c),
(1090,366,o),
(862,396,o),
(628,448,c),
(470,481,o),
(339,509,o),
(339,589,c),
(339,629,o),
(375,686,o),
(524,692,c),
(609,692,o),
(829,662,o),
(994,446,c),
(1050,642,l),
(894,708,o),
(742,740,o),
(558,740,c),
(286,740,o),
(147,620,o),
(147,513,c)
);
},
{
closed = 1;
nodes = (
(1488,440,o),
(1551,370,o),
(1684,328,cs),
(1779,298,ls),
(1898,260,o),
(1922,218,o),
(1922,167,cs),
(1922,93,o),
(1865,42,o),
(1774,42,cs),
(1663,42,o),
(1531,121,o),
(1466,246,c),
(1464,244,l),
(1494,58,l),
(1569,16,o),
(1664,-10,o),
(1746,-10,cs),
(1885,-10,o),
(2018,80,o),
(2018,200,cs),
(2018,291,o),
(1948,350,o),
(1823,389,cs),
(1737,416,ls),
(1626,451,o),
(1569,494,o),
(1569,549,cs),
(1569,603,o),
(1603,660,o),
(1709,660,cs),
(1759,660,o),
(1882,633,o),
(1965,499,c),
(1967,501,l),
(1947,667,l),
(1879,693,o),
(1811,710,o),
(1728,710,cs),
(1551,710,o),
(1488,591,o),
(1488,515,cs)
);
}
);
width = 3600;
},
{
associatedMasterId = "CF8A9C28-2F26-4C68-964B-3F562C170337";
layerId = "AD6F492C-5DF1-459C-9731-09102D089CF9";
name = "12 mar 22, 16:50";
shapes = (
{
closed = 1;
nodes = (
(147,403,o),
(246,338,o),
(455,291,cs),
(627,252,ls),
(815,209,o),
(882,185,o),
(882,123,cs),
(882,72,o),
(805,28,o),
(682,28,cs),
(488,28,o),
(284,131,o),
(132,336,c),
(191,68,l),
(324,7,o),
(440,-27,o),
(628,-27,cs),
(840,-27,o),
(1090,55,o),
(1090,208,cs),
(1090,343,o),
(924,385,o),
(730,426,cs),
(560,462,ls),
(433,489,o),
(339,528,o),
(339,589,cs),
(339,629,o),
(375,692,o),
(524,692,cs),
(609,692,o),
(840,630,o),
(1023,430,c),
(980,666,l),
(884,708,o),
(742,740,o),
(558,740,cs),
(286,740,o),
(147,620,o),
(147,513,cs)
);
},
{
closed = 1;
nodes = (
(1488,440,o),
(1551,370,o),
(1684,328,cs),
(1779,298,ls),
(1898,260,o),
(1922,218,o),
(1922,167,cs),
(1922,93,o),
(1865,42,o),
(1774,42,cs),
(1663,42,o),
(1531,121,o),
(1466,246,c),
(1464,244,l),
(1494,58,l),
(1569,16,o),
(1664,-10,o),
(1746,-10,cs),
(1885,-10,o),
(2018,80,o),
(2018,200,cs),
(2018,291,o),
(1948,350,o),
(1823,389,cs),
(1737,416,ls),
(1626,451,o),
(1569,494,o),
(1569,549,cs),
(1569,603,o),
(1603,660,o),
(1709,660,cs),
(1759,660,o),
(1882,633,o),
(1965,499,c),
(1967,501,l),
(1947,667,l),
(1879,693,o),
(1811,710,o),
(1728,710,cs),
(1551,710,o),
(1488,591,o),
(1488,515,cs)
);
}
);
width = 3600;
},
{
anchors = (
{
name = bottom;
pos = (561,0);
},
{
name = top;
pos = (547,700);
}
);
associatedMasterId = "CF8A9C28-2F26-4C68-964B-3F562C170337";
layerId = "6C4EE857-DEC5-4A38-9BB3-206E06349DF0";
name = "12 mar 22, 16:52";
shapes = (
{
closed = 1;
nodes = (
(110,403,o),
(209,338,o),
(418,291,cs),
(590,252,ls),
(778,209,o),
(845,185,o),
(845,123,cs),
(845,72,o),
(768,28,o),
(645,28,cs),
(451,28,o),
(250,128,o),
(98,333,c),
(93,330,l),
(154,68,l),
(287,7,o),
(403,-27,o),
(591,-27,cs),
(803,-27,o),
(1053,55,o),
(1053,208,cs),
(1053,343,o),
(887,385,o),
(693,426,cs),
(523,462,ls),
(396,489,o),
(302,528,o),
(302,589,cs),
(302,629,o),
(338,692,o),
(487,692,cs),
(571,692,o),
(818,642,o),
(984,430,c),
(986,430,l),
(943,666,l),
(847,708,o),
(705,740,o),
(521,740,cs),
(249,740,o),
(110,620,o),
(110,513,cs)
);
}
);
width = 1148;
},
{
anchors = (
{
name = bottom;
pos = (351,0);
},
{
name = top;
pos = (337,700);
}
);
associatedMasterId = m01;
layerId = "D36FA9AC-BF86-4424-8C44-E45B850C38AD";
name = "9 apr 22, 12:39";
shapes = (
{
closed = 1;
nodes = (
(88,440,o),
(151,370,o),
(284,328,cs),
(379,298,ls),
(498,260,o),
(522,218,o),
(522,167,cs),
(522,93,o),
(465,42,o),
(374,42,cs),
(263,42,o),
(131,121,o),
(68,246,c),
(64,244,l),
(94,58,l),
(169,16,o),
(264,-10,o),
(346,-10,cs),
(485,-10,o),
(618,80,o),
(618,200,cs),
(618,291,o),
(548,350,o),
(423,389,cs),
(337,416,ls),
(226,451,o),
(169,494,o),
(169,549,cs),
(169,603,o),
(203,660,o),
(309,660,cs),
(359,660,o),
(479,633,o),
(562,499,c),
(568,501,l),
(547,667,l),
(479,693,o),
(411,710,o),
(328,710,cs),
(151,710,o),
(88,591,o),
(88,515,cs)
);
}
);
width = 660;
},
{
anchors = (
{
name = bottom;
pos = (351,0);
},
{
name = top;
pos = (337,700);
}
);
associatedMasterId = m01;
layerId = "A946474A-508C-410B-920D-FEFAC785BD2C";
name = "9 apr 22, 14:30";
shapes = (
{
closed = 1;
nodes = (
(88,440,o),
(151,370,o),
(284,328,cs),
(379,298,ls),
(498,260,o),
(522,218,o),
(522,167,cs),
(522,93,o),
(465,42,o),
(374,42,cs),
(263,42,o),
(131,121,o),
(71,245,c),
(64,244,l),
(94,58,l),
(169,16,o),
(264,-10,o),
(346,-10,cs),
(485,-10,o),
(618,80,o),
(618,200,cs),
(618,291,o),
(548,350,o),
(423,389,cs),
(337,416,ls),
(226,451,o),
(169,494,o),
(169,549,cs),
(169,603,o),
(203,660,o),
(309,660,cs),
(359,660,o),
(479,633,o),
(562,499,c),
(568,501,l),
(547,667,l),
(479,693,o),
(411,710,o),
(328,710,cs),
(145,710,o),
(88,593,o),
(88,515,cs)
);
}
);
width = 660;
},
{
anchors = (
{
name = bottom;
pos = (561,0);
},
{
name = top;
pos = (547,700);
}
);
associatedMasterId = "CF8A9C28-2F26-4C68-964B-3F562C170337";
layerId = "3CBAE6BF-BCB8-4C4D-9D10-C818B93341AE";
name = "9 apr 22, 14:56";
shapes = (
{
closed = 1;
nodes = (
(110,403,o),
(209,329,o),
(418,291,cs),
(590,260,ls),
(778,226,o),
(845,185,o),
(845,123,cs),
(845,72,o),
(768,29,o),
(645,29,cs),
(451,29,o),
(252,128,o),
(104,333,c),
(93,326,l),
(154,68,l),
(287,7,o),
(403,-27,o),
(591,-27,cs),
(803,-27,o),
(1053,55,o),
(1053,208,cs),
(1053,343,o),
(887,402,o),
(693,434,cs),
(523,462,ls),
(396,483,o),
(302,528,o),
(302,589,cs),
(302,629,o),
(338,690,o),
(487,690,cs),
(571,690,o),
(818,642,o),
(980,430,c),
(991,437,l),
(943,666,l),
(847,708,o),
(705,740,o),
(521,740,cs),
(249,740,o),
(110,620,o),
(110,513,cs)
);
}
);
width = 1148;
},
{
anchors = (
{
name = bottom;
pos = (337,0);
},
{
name = top;
pos = (323,700);
}
);
associatedMasterId = m01;
layerId = "BF925581-A31D-49C0-8CBB-C2982D47FFF1";
name = "9 apr 22, 17:28";
shapes = (
{
closed = 1;
nodes = (
(74,440,o),
(137,370,o),
(270,328,cs),
(365,298,ls),
(484,260,o),
(508,218,o),
(508,167,cs),
(508,93,o),
(451,42,o),
(360,42,cs),
(249,42,o),
(127,121,o),
(67,245,c),
(60,244,l),
(90,58,l),
(165,16,o),
(250,-10,o),
(332,-10,cs),
(471,-10,o),
(604,80,o),
(604,200,cs),
(604,291,o),
(534,350,o),
(409,389,cs),
(323,416,ls),
(212,451,o),
(155,494,o),
(155,549,cs),
(155,603,o),
(189,660,o),
(295,660,cs),
(345,660,o),
(465,633,o),
(548,499,c),
(554,501,l),
(533,667,l),
(465,693,o),
(397,710,o),
(314,710,cs),
(131,710,o),
(74,593,o),
(74,515,cs)
);
}
);
width = 646;
},
{
anchors = (
{
name = bottom;
pos = (407,0);
},
{
name = top;
pos = (393,700);
}
);
associatedMasterId = m01;
layerId = "AB41D4FA-9E86-4A3E-A9F5-64A2BBA2AFB6";
shapes = (
{
closed = 1;
nodes = (
(88,435,o),
(163,362,o),
(313,320,cs),
(435,286,ls),
(575,247,o),
(613,208,o),
(613,153,cs),
(613,86,o),
(550,38,o),
(449,38,cs),
(312,38,o),
(166,123,o),
(79,273,c),
(70,270,l),
(110,63,l),
(203,15,o),
(298,-15,o),
(413,-15,cs),
(581,-15,o),
(742,72,o),
(742,199,cs),
(742,304,o),
(641,360,o),
(498,399,cs),
(382,430,ls),
(267,462,o),
(201,505,o),
(201,562,cs),
(201,611,o),
(236,669,o),
(355,669,cs),
(416,669,o),
(575,636,o),
(683,477,c),
(691,481,l),
(661,665,l),
(584,696,o),
(493,719,o),
(379,719,cs),
(168,719,o),
(88,608,o),
(88,514,cs)
);
}
);
width = 802.875;
}
);
unicode = 83;
}
{
color = 3;
glyphname = T;
kernLeft = T;
kernRight = T;
layers = (
{
anchors = (
{
name = bottom;
pos = (382,0);
},
{
name = center;
pos = (368,350);
},
{
name = top;
pos = (382,700);
}
);
layerId = m01;
shapes = (
{
closed = 1;
nodes = (
(259,700,o),
(173,697,o),
(69,704,c),
(45,564,l),
(51,562,l),
(88,634,o),
(205,651,o),
(328,656,c),
(333,630,o),
(337,590,o),
(337,530,cs),
(337,169,ls),
(337,38,o),
(316,0,o),
(316,0,c),
(448,0,l),
(448,0,o),
(427,38,o),
(427,169,cs),
(427,530,ls),
(427,590,o),
(431,630,o),
(436,656,c),
(559,651,o),
(676,634,o),
(713,562,c),
(719,564,l),
(695,704,l),
(591,697,o),
(507,700,o),
(383,699,cs)
);
}
);
width = 764;
},
{
associatedMasterId = m01;
layerId = "B4FBACBA-C7AD-479E-A114-34F8B1E81FB4";
width = 600;
},
{
associatedMasterId = m01;
layerId = "106DA6D1-F163-4962-ABD1-5D396BDF94D3";
width = 582;
},
{
anchors = (
{
name = bottom;
pos = (523,0);
},
{
name = center;
pos = (513,350);
},
{
name = top;
pos = (513,710);
}
);
layerId = "CF8A9C28-2F26-4C68-964B-3F562C170337";
shapes = (
{
closed = 1;
nodes = (
(383,701,o),
(152,698,o),
(54,705,c),
(5,463,l),
(16,456,l),
(102,564,o),
(230,635,o),
(406,651,c),
(409,626,o),
(411,581,o),
(411,534,cs),
(411,169,ls),
(411,38,o),
(392,0,o),
(392,0,c),
(637,0,l),
(637,0,o),
(616,38,o),
(616,169,cs),
(616,534,ls),
(616,581,o),
(619,626,o),
(622,651,c),
(797,635,o),
(923,564,o),
(1008,456,c),
(1019,463,l),
(973,705,l),
(875,698,o),
(644,701,o),
(513,700,cs)
);
}
);
width = 1024;
},
{
anchors = (
{
name = bottom;
pos = (386,0);
},
{
name = center;
pos = (372,350);
},
{
name = top;
pos = (386,700);
}
);
associatedMasterId = m01;
layerId = "26A48DE5-AE2C-4842-AC4C-E29281FD6E36";
name = "9 apr 22, 13:16";
shapes = (
{
closed = 1;
nodes = (
(263,700,o),
(173,697,o),
(69,704,c),
(45,564,l),
(51,562,l),
(88,634,o),
(207,651,o),
(329,656,c),
(334,630,o),
(338,590,o),
(338,530,cs),
(338,169,ls),
(338,38,o),
(317,0,o),
(317,0,c),
(455,0,l),
(455,0,o),
(434,38,o),
(434,169,cs),
(434,530,ls),
(434,590,o),
(438,630,o),
(443,656,c),
(566,651,o),
(684,633,o),
(721,561,c),
(728,564,l),
(704,704,l),
(600,697,o),
(511,700,o),
(387,699,cs)
);
}
);
width = 773;
},
{
anchors = (
{
name = bottom;
pos = (425,0);
},
{
name = center;
pos = (412,350);
},
{
name = top;
pos = (421,703);
}
);
associatedMasterId = m01;
layerId = "AB41D4FA-9E86-4A3E-A9F5-64A2BBA2AFB6";
shapes = (
{
closed = 1;
nodes = (
(296,700,o),
(165,697,o),
(63,704,c),
(31,532,l),
(39,529,l),
(91,612,o),
(209,646,o),
(349,654,c),
(353,629,o),
(357,587,o),
(357,531,cs),
(357,169,ls),
(357,38,o),
(336,0,o),
(336,0,c),
(508,0,l),
(508,0,o),
(487,38,o),
(487,169,cs),
(487,531,ls),
(487,587,o),
(490,629,o),
(495,654,c),
(634,646,o),
(751,611,o),
(803,528,c),
(811,532,l),
(780,704,l),
(678,697,o),
(548,700,o),
(422,699,cs)
);
}
);
width = 843.0625;
}
);
unicode = 84;
}
{
color = 3;
glyphname = U;
kernLeft = U;
kernRight = U;
layers = (
{
anchors = (
{
name = bottom;
pos = (385,0);
},
{
name = ogonek;
pos = (579,55);
},
{
name = top;
pos = (384,700);
},
{
name = topright;
pos = (636,700);
}
);
layerId = m01;
shapes = (
{
closed = 1;
nodes = (
(76,287,ls),
(76,118,o),
(167,-15,o),
(357,-15,cs),
(602,-15,o),
(657,146,o),
(657,293,cs),
(657,530,ls),
(657,662,o),
(673,700,o),
(673,700,c),
(581,700,l),
(581,700,o),
(597,662,o),
(597,530,cs),
(597,288,ls),
(597,148,o),
(539,51,o),
(387,51,cs),
(211,51,o),
(167,205,o),
(167,307,cs),
(167,530,ls),
(167,660,o),
(188,684,o),
(188,700,c),
(55,700,l),
(55,700,o),
(76,662,o),
(76,530,cs)
);
}
);
width = 728;
},
{
associatedMasterId = m01;
layerId = "B4FBACBA-C7AD-479E-A114-34F8B1E81FB4";
width = 600;
},
{
associatedMasterId = m01;
layerId = "106DA6D1-F163-4962-ABD1-5D396BDF94D3";
width = 714;
},
{
anchors = (
{
name = bottom;
pos = (572,0);
},
{
name = ogonek;
pos = (831,74);
},
{
name = top;
pos = (591,700);
},
{
name = topright;
pos = (924,700);
}
);
layerId = "CF8A9C28-2F26-4C68-964B-3F562C170337";
shapes = (
{
closed = 1;
nodes = (
(96,276,ls),
(96,122,o),
(232,-15,o),
(512,-15,cs),
(820,-15,o),
(968,108,o),
(968,293,cs),
(968,530,ls),
(968,662,o),
(984,700,o),
(984,700,c),
(853,700,l),
(853,700,o),
(869,662,o),
(869,530,cs),
(869,288,ls),
(869,150,o),
(774,57,o),
(583,57,cs),
(375,57,o),
(306,143,o),
(306,307,cs),
(306,530,ls),
(306,660,o),
(327,700,o),
(327,700,c),
(75,700,l),
(75,700,o),
(96,662,o),
(96,530,cs)
);
}
);
width = 1059;
},
{
anchors = (
{
name = bottom;
pos = (462,0);
},
{
name = ogonek;
pos = (676,61);
},
{
name = top;
pos = (467,700);
},
{
name = topright;
pos = (744,700);
}
);
associatedMasterId = m01;
layerId = "AB41D4FA-9E86-4A3E-A9F5-64A2BBA2AFB6";
shapes = (
{
closed = 1;
nodes = (
(97,284,ls),
(97,119,o),
(206,-15,o),
(424,-15,cs),
(689,-15,o),
(773,134,o),
(773,293,cs),
(773,530,ls),
(773,662,o),
(789,700,o),
(789,700,c),
(684,700,l),
(684,700,o),
(700,662,o),
(700,530,cs),
(700,288,ls),
(700,149,o),
(631,53,o),
(467,53,cs),
(281,53,o),
(229,186,o),
(229,307,cs),
(229,530,ls),
(229,660,o),
(250,689,o),
(250,700,c),
(76,700,l),
(76,700,o),
(97,662,o),
(97,530,cs)
);
}
);
width = 864.875;
}
);
metricLeft = I;
metricRight = I;
unicode = 85;
}
{
color = 3;
glyphname = V;
kernRight = V;
layers = (
{
layerId = m01;
shapes = (
{
closed = 1;
nodes = (
(20,700,l),
(72,619,o),
(142,456,o),
(142,456,c),
(332,1,l),
(387,15,l),
(592,535,ls),
(616,595,o),
(631,640,o),
(667,700,c),
(577,700,l),
(577,675,o),
(558,613,o),
(549,583,c),
(376,129,l),
(201,552,ls),
(178,609,o),
(167,663,o),
(163,700,c)
);
}
);
width = 677;
},
{
associatedMasterId = m01;
layerId = "B4FBACBA-C7AD-479E-A114-34F8B1E81FB4";
width = 600;
},
{
associatedMasterId = m01;
layerId = "106DA6D1-F163-4962-ABD1-5D396BDF94D3";
width = 660;
},
{
associatedMasterId = m01;
layerId = "7F3DA24F-2B4E-4AFA-9A37-829526599526";
name = "14 gen 22, 20:31";
shapes = (
{
closed = 1;
nodes = (
(71,700,l),
(398,1,l),
(461,87,l),
(182,700,l)
);
},
{
closed = 1;
nodes = (
(659,700,l),
(423,79,l),
(453,15,l),
(723,700,l)
);
},
{
closed = 1;
nodes = (
(460,54,o),
(452,107,o),
(451,110,c),
(349,106,l),
(398,1,l),
(453,15,l)
);
},
{
closed = 1;
nodes = (
(658,535,l),
(683,595,o),
(697,640,o),
(733,700,c),
(643,700,l),
(643,667,o),
(609,566,o),
(609,566,c)
);
},
{
closed = 1;
nodes = (
(252,546,o),
(202,657,o),
(205,700,c),
(53,700,l),
(105,619,o),
(185,456,o),
(185,456,c),
(252,546,l)
);
}
);
width = 640;
},
{
layerId = "CF8A9C28-2F26-4C68-964B-3F562C170337";
shapes = (
{
closed = 1;
nodes = (
(10,700,l),
(75,633,o),
(222,402,o),
(222,402,c),
(509,-30,l),
(689,21,l),
(937,476,l),
(978,543,o),
(1035,633,o),
(1087,700,c),
(951,700,l),
(944,663,o),
(927,615,o),
(880,523,c),
(669,132,l),
(414,534,l),
(414,534,o),
(350,651,o),
(347,700,c)
);
}
);
width = 1097;
},
{
associatedMasterId = m01;
layerId = "AB41D4FA-9E86-4A3E-A9F5-64A2BBA2AFB6";
shapes = (
{
closed = 1;
nodes = (
(26,700,l),
(82,623,o),
(176,439,o),
(176,439,c),
(397,-9,l),
(492,17,l),
(710,517,ls),
(740,579,o),
(768,638,o),
(809,700,c),
(705,700,l),
(702,671,o),
(684,614,o),
(663,564,c),
(478,130,l),
(278,546,ls),
(262,586,o),
(235,659,o),
(231,700,c)
);
}
);
width = 817.125;
}
);
unicode = 86;
}
{
color = 3;
glyphname = W;
kernLeft = V;
kernRight = V;
layers = (
{
layerId = m01;
shapes = (
{
closed = 1;
nodes = (
(316,15,l),
(502,599,l),
(532,527,o),
(557,455,o),
(555,456,c),
(710,1,l),
(754,15,l),
(920,535,ls),
(939,595,o),
(952,640,o),
(981,700,c),
(900,700,l),
(900,675,o),
(885,613,o),
(878,583,c),
(748,172,l),
(620,552,ls),
(601,609,o),
(593,663,o),
(589,700,c),
(455,700,l),
(458,661,o),
(452,622,o),
(440,583,cs),
(310,172,l),
(182,552,ls),
(163,609,o),
(155,663,o),
(151,700,c),
(20,700,l),
(62,619,o),
(119,456,o),
(119,456,c),
(272,1,l)
);
}
);
width = 991;
},
{
associatedMasterId = m01;
layerId = "B4FBACBA-C7AD-479E-A114-34F8B1E81FB4";
width = 600;
},
{
associatedMasterId = m01;
layerId = "106DA6D1-F163-4962-ABD1-5D396BDF94D3";
width = 1080;
},
{
layerId = "CF8A9C28-2F26-4C68-964B-3F562C170337";
shapes = (
{
closed = 1;
nodes = (
(564,22,l),
(795,483,l),
(801,472,o),
(807,461,o),
(813,450,c),
(1058,-35,l),
(1212,11,l),
(1519,593,l),
(1541,630,o),
(1565,667,o),
(1590,700,c),
(1451,700,l),
(1451,700,o),
(1469,646,o),
(1376,474,cs),
(1203,153,l),
(1018,526,ls),
(967,629,o),
(959,700,o),
(958,700,cs),
(681,700,l),
(713,647,o),
(754,575,o),
(709,476,c),
(552,153,l),
(362,526,ls),
(310,629,o),
(303,700,o),
(302,700,cs),
(10,700,l),
(109,554,o),
(117,526,o),
(158,450,cs),
(413,-24,l)
);
}
);
width = 1600;
},
{
associatedMasterId = m01;
layerId = "C883103A-927C-4B04-BAFE-694CE6CE04C3";
name = "12 mar 22, 15:51";
shapes = (
{
closed = 1;
nodes = (
(25,700,l),
(67,619,o),
(124,456,o),
(124,456,c),
(277,1,l),
(323,15,l),
(489,535,ls),
(508,595,o),
(521,640,o),
(550,700,c),
(462,700,l),
(465,661,o),
(459,622,o),
(447,583,c),
(317,172,l),
(189,552,ls),
(170,609,o),
(162,663,o),
(158,700,c)
);
},
{
closed = 1;
nodes = (
(462,700,l),
(507,619,o),
(564,455,o),
(564,456,c),
(717,1,l),
(763,15,l),
(929,535,ls),
(948,595,o),
(961,640,o),
(990,700,c),
(909,700,l),
(909,675,o),
(894,613,o),
(887,583,c),
(757,172,l),
(629,552,ls),
(610,609,o),
(602,663,o),
(598,700,c)
);
}
);
width = 1015;
},
{
associatedMasterId = "CF8A9C28-2F26-4C68-964B-3F562C170337";
layerId = "46EF3325-EC26-4885-BFD5-BAF81AC434D7";
name = "12 mar 22, 15:54";
shapes = (
{
closed = 1;
nodes = (
(750,638,o),
(803,526,o),
(844,450,cs),
(1099,-24,l),
(1267,21,l),
(1569,593,l),
(1591,630,o),
(1615,667,o),
(1640,700,c),
(1504,700,l),
(1504,700,o),
(1505,653,o),
(1427,474,c),
(1258,144,l),
(1068,526,l),
(1018,630,o),
(1007,700,o),
(1008,700,c),
(696,700,l)
);
},
{
closed = 1;
nodes = (
(109,554,o),
(117,526,o),
(158,450,cs),
(413,-24,l),
(584,22,l),
(884,593,l),
(906,630,o),
(930,667,o),
(955,700,c),
(808,700,l),
(808,700,o),
(802,612,o),
(783,555,c),
(572,144,l),
(382,526,l),
(332,630,o),
(321,700,o),
(322,700,c),
(10,700,l)
);
},
{
closed = 1;
nodes = (
(2825,700,l),
(2867,619,o),
(2924,456,o),
(2924,456,c),
(3077,1,l),
(3123,15,l),
(3289,535,ls),
(3308,595,o),
(3321,640,o),
(3350,700,c),
(3262,700,l),
(3265,661,o),
(3259,622,o),
(3247,583,c),
(3117,172,l),
(2989,552,ls),
(2970,609,o),
(2962,663,o),
(2958,700,c)
);
},
{
closed = 1;
nodes = (
(3262,700,l),
(3307,619,o),
(3364,455,o),
(3364,456,c),
(3517,1,l),
(3563,15,l),
(3729,535,ls),
(3748,595,o),
(3761,640,o),
(3790,700,c),
(3709,700,l),
(3709,675,o),
(3694,613,o),
(3687,583,c),
(3557,172,l),
(3429,552,ls),
(3410,609,o),
(3402,663,o),
(3398,700,c)
);
}
);
width = 3600;
},
{
associatedMasterId = m01;
layerId = "AB41D4FA-9E86-4A3E-A9F5-64A2BBA2AFB6";
shapes = (
{
closed = 1;
nodes = (
(398,17,l),
(598,563,l),
(621,510,o),
(640,457,o),
(642,454,c),
(824,-10,l),
(903,14,l),
(1113,553,ls),
(1133,606,o),
(1150,648,o),
(1178,700,c),
(1078,700,l),
(1078,683,o),
(1074,623,o),
(1040,549,c),
(896,166,l),
(751,544,ls),
(722,615,o),
(714,675,o),
(711,700,c),
(530,700,l),
(543,657,o),
(551,607,o),
(529,550,cs),
(390,166,l),
(243,544,ls),
(214,615,o),
(206,675,o),
(203,700,c),
(20,700,l),
(80,599,o),
(122,478,o),
(135,454,c),
(320,-7,l)
);
}
);
width = 1194.6875;
}
);
metricLeft = V;
metricRight = V;
unicode = 87;
}
{
color = 3;
glyphname = X;
kernLeft = X;
kernRight = X;
layers = (
{
layerId = m01;
shapes = (
{
closed = 1;
nodes = (
(22,700,l),
(55,667,o),
(106,601,o),
(122,578,cs),
(284,353,l),
(90,96,ls),
(66,64,o),
(35,28,o),
(5,0,c),
(116,0,l),
(116,23,o),
(133,62,o),
(172,114,cs),
(318,308,l),
(461,112,ls),
(481,84,o),
(516,35,o),
(519,0,c),
(668,0,l),
(625,44,o),
(582,95,o),
(550,139,cs),
(382,368,l),
(546,579,ls),
(580,623,o),
(615,667,o),
(650,700,c),
(550,700,l),
(542,677,o),
(523,639,o),
(484,588,cs),
(349,413,l),
(228,581,ls),
(194,628,o),
(164,669,o),
(157,700,c)
);
}
);
width = 673;
},
{
associatedMasterId = m01;
layerId = "B4FBACBA-C7AD-479E-A114-34F8B1E81FB4";
width = 600;
},
{
associatedMasterId = m01;
layerId = "106DA6D1-F163-4962-ABD1-5D396BDF94D3";
width = 648;
},
{
layerId = "CF8A9C28-2F26-4C68-964B-3F562C170337";
shapes = (
{
closed = 1;
nodes = (
(48,701,l),
(122,647,o),
(177,593,o),
(231,539,cs),
(413,357,l),
(207,153,ls),
(159,107,o),
(88,46,o),
(20,0,c),
(196,0,l),
(209,48,o),
(243,95,o),
(281,133,c),
(460,310,l),
(633,138,ls),
(679,92,o),
(726,46,o),
(742,0,c),
(1101,0,l),
(1010,60,o),
(950,121,o),
(889,181,cs),
(688,381,l),
(873,561,ls),
(921,607,o),
(978,654,o),
(1046,700,c),
(870,700,l),
(857,652,o),
(823,605,o),
(784,567,cs),
(641,428,l),
(493,576,ls),
(451,618,o),
(409,659,o),
(387,701,c)
);
}
);
width = 1121;
},
{
associatedMasterId = "CF8A9C28-2F26-4C68-964B-3F562C170337";
layerId = "94DF63C7-4656-46E7-B44B-46FAEB5D438F";
name = "12 mar 22, 16:19";
shapes = (
{
closed = 1;
nodes = (
(1169,0,o),
(917,0,o),
(847,0,c),
(143,701,l),
(462,701,l),
(1166,0,l)
);
},
{
closed = 1;
nodes = (
(861,299,l),
(861,299,o),
(1060,101,o),
(1209,0,c),
(772,0,l),
(772,78,o),
(609,237,o),
(609,237,c)
);
},
{
closed = 1;
nodes = (
(582,431,l),
(677,431,l),
(242,0,l),
(148,0,l)
);
},
{
closed = 1;
nodes = (
(365,123,o),
(267,38,o),
(280,0,c),
(113,0,l),
(286,123,o),
(375,224,o),
(375,224,c),
(413,172,l)
);
},
{
closed = 1;
nodes = (
(719,319,l),
(623,319,l),
(1017,700,l),
(1111,700,l)
);
},
{
closed = 1;
nodes = (
(879,570,o),
(992,662,o),
(979,700,c),
(1146,700,l),
(973,577,o),
(876,472,o),
(876,472,c),
(837,525,l)
);
},
{
closed = 1;
nodes = (
(442,403,l),
(442,403,o),
(249,600,o),
(100,701,c),
(527,701,l),
(527,623,o),
(696,468,o),
(696,468,c)
);
},
{
closed = 1;
nodes = (
(1413,700,l),
(1446,667,o),
(1497,601,o),
(1513,578,cs),
(1675,353,l),
(1481,96,ls),
(1457,64,o),
(1426,28,o),
(1396,0,c),
(1507,0,l),
(1507,23,o),
(1524,62,o),
(1563,114,cs),
(1709,308,l),
(1852,112,ls),
(1872,84,o),
(1907,35,o),
(1910,0,c),
(2062,0,l),
(2019,44,o),
(1976,95,o),
(1944,139,cs),
(1776,368,l),
(1940,579,ls),
(1974,623,o),
(2009,667,o),
(2044,700,c),
(1944,700,l),
(1936,677,o),
(1917,639,o),
(1878,588,cs),
(1743,413,l),
(1622,581,ls),
(1588,628,o),
(1558,669,o),
(1551,700,c)
);
}
);
width = 3600;
},
{
associatedMasterId = "CF8A9C28-2F26-4C68-964B-3F562C170337";
layerId = "CB1D0893-7217-47FB-A9B7-F71E599CE03E";
name = "12 mar 22, 16:25";
shapes = (
{
closed = 1;
nodes = (
(1169,0,o),
(917,0,o),
(817,0,c),
(801,46,o),
(754,92,o),
(708,138,c),
(306,539,l),
(252,593,o),
(197,647,o),
(123,701,c),
(482,701,l),
(504,659,o),
(546,618,o),
(588,576,c),
(984,181,l),
(1045,121,o),
(1105,60,o),
(1196,0,c)
);
},
{
closed = 1;
nodes = (
(177,49,o),
(227,98,o),
(276,147,c),
(562,431,l),
(657,431,l),
(333,110,l),
(296,73,o),
(259,37,o),
(242,0,c),
(108,0,l)
);
},
{
closed = 1;
nodes = (
(1063,654,o),
(1016,607,o),
(968,561,c),
(719,319,l),
(623,319,l),
(879,567,l),
(925,611,o),
(971,656,o),
(997,700,c),
(1131,700,l)
);
}
);
width = 3600;
},
{
associatedMasterId = m01;
layerId = "AB41D4FA-9E86-4A3E-A9F5-64A2BBA2AFB6";
shapes = (
{
closed = 1;
nodes = (
(29,700,l),
(75,661,o),
(127,599,o),
(155,566,cs),
(323,354,l),
(126,114,ls),
(94,77,o),
(51,34,o),
(9,0,c),
(140,0,l),
(144,31,o),
(167,72,o),
(205,120,cs),
(362,309,l),
(514,120,ls),
(542,87,o),
(581,38,o),
(588,0,c),
(805,0,l),
(747,49,o),
(698,103,o),
(657,152,cs),
(479,372,l),
(649,573,ls),
(688,618,o),
(730,663,o),
(775,700,c),
(651,700,l),
(642,669,o),
(618,628,o),
(579,581,cs),
(441,418,l),
(312,579,ls),
(276,625,o),
(242,666,o),
(230,700,c)
);
}
);
width = 816.6875;
}
);
unicode = 88;
}
{
color = 3;
glyphname = Y;
kernRight = Y;
layers = (
{
anchors = (
{
name = bottom;
pos = (459,0);
},
{
name = top;
pos = (327,700);
},
{
name = topleft;
pos = (93,700);
}
);
layerId = m01;
shapes = (
{
closed = 1;
nodes = (
(44,664,o),
(99,589,o),
(112,567,cs),
(273,304,l),
(273,98,ls),
(273,22,o),
(252,0,o),
(252,0,c),
(385,0,l),
(385,0,o),
(364,22,o),
(364,98,cs),
(364,308,l),
(507,550,ls),
(531,590,o),
(572,651,o),
(619,701,c),
(520,701,l),
(510,664,o),
(495,627,o),
(461,570,cs),
(338,362,l),
(198,592,ls),
(183,617,o),
(157,662,o),
(150,701,c),
(5,701,l)
);
}
);
width = 624;
},
{
associatedMasterId = m01;
layerId = "B4FBACBA-C7AD-479E-A114-34F8B1E81FB4";
width = 600;
},
{
associatedMasterId = m01;
layerId = "106DA6D1-F163-4962-ABD1-5D396BDF94D3";
width = 612;
},
{
anchors = (
{
name = bottom;
pos = (676,0);
},
{
name = top;
pos = (604,700);
},
{
name = topleft;
pos = (310,700);
}
);
layerId = "CF8A9C28-2F26-4C68-964B-3F562C170337";
shapes = (
{
closed = 1;
nodes = (
(118,631,o),
(176,568,o),
(221,521,cs),
(449,280,l),
(449,169,ls),
(449,38,o),
(430,0,o),
(430,0,c),
(675,0,l),
(675,0,o),
(654,38,o),
(654,169,cs),
(654,310,l),
(831,497,ls),
(896,566,o),
(959,637,o),
(1040,700,c),
(882,697,l),
(867,649,o),
(846,606,o),
(784,541,cs),
(611,361,l),
(430,551,ls),
(384,599,o),
(338,657,o),
(319,703,c),
(20,703,l)
);
}
);
width = 1060;
},
{
anchors = (
{
name = bottom;
pos = (451,0);
},
{
name = top;
pos = (319,700);
},
{
name = topleft;
pos = (85,700);
}
);
associatedMasterId = m01;
layerId = "2265C3A5-EFC7-41CB-BE4F-8D90E40734D0";
name = "12 mar 22, 16:08";
shapes = (
{
closed = 1;
nodes = (
(258,308,l),
(258,98,ls),
(258,22,o),
(237,0,o),
(237,0,c),
(375,0,l),
(375,0,o),
(354,22,o),
(354,98,cs),
(354,308,l)
);
},
{
closed = 1;
nodes = (
(190,592,ls),
(175,617,o),
(149,662,o),
(145,701,c),
(-8,701,l),
(31,664,o),
(86,589,o),
(99,567,cs),
(280,268,l),
(332,359,l)
);
},
{
closed = 1;
nodes = (
(314,244,l),
(505,550,ls),
(530,590,o),
(589,662,o),
(620,701,c),
(515,701,l),
(509,664,o),
(491,627,o),
(455,570,cs),
(282,296,l)
);
}
);
width = 615;
},
{
anchors = (
{
name = bottom;
pos = (451,0);
},
{
name = top;
pos = (319,700);
},
{
name = topleft;
pos = (85,700);
}
);
associatedMasterId = m01;
layerId = "10D8998F-83B9-4A71-B74C-A572149E89EB";
name = "9 apr 22, 13:18";
shapes = (
{
closed = 1;
nodes = (
(31,664,o),
(86,589,o),
(99,567,cs),
(258,304,l),
(258,98,ls),
(258,22,o),
(237,0,o),
(237,0,c),
(375,0,l),
(375,0,o),
(354,22,o),
(354,98,cs),
(354,308,l),
(505,550,ls),
(530,590,o),
(589,662,o),
(620,701,c),
(515,701,l),
(509,664,o),
(491,627,o),
(455,570,cs),
(327,367,l),
(190,592,ls),
(175,617,o),
(149,662,o),
(145,701,c),
(-8,701,l)
);
}
);
width = 615;
},
{
anchors = (
{
name = bottom;
pos = (515,0);
},
{
name = top;
pos = (402,700);
},
{
name = topleft;
pos = (149,700);
}
);
associatedMasterId = m01;
layerId = "AB41D4FA-9E86-4A3E-A9F5-64A2BBA2AFB6";
shapes = (
{
closed = 1;
nodes = (
(52,654,o),
(108,582,o),
(131,553,cs),
(313,297,l),
(313,120,ls),
(313,27,o),
(292,0,o),
(292,0,c),
(464,0,l),
(464,0,o),
(443,27,o),
(443,120,cs),
(443,309,l),
(597,533,ls),
(633,583,o),
(681,647,o),
(739,701,c),
(621,700,l),
(610,659,o),
(593,620,o),
(550,561,cs),
(412,362,l),
(259,579,ls),
(234,611,o),
(202,660,o),
(191,702,c),
(-6,702,l)
);
}
);
width = 741.5625;
}
);
unicode = 89;
}
{
color = 3;
glyphname = Z;
kernLeft = Z;
kernRight = Z;
layers = (
{
anchors = (
{
name = bottom;
pos = (349,0);
},
{
name = center;
pos = (331,350);
},
{
name = top;
pos = (350,700);
}
);
layerId = m01;
shapes = (
{
closed = 1;
nodes = (
(598,-3,l),
(622,128,l),
(617,131,l),
(559,46,o),
(333,40,o),
(175,43,c),
(208,100,o),
(243,157,o),
(284,216,cs),
(622,700,l),
(90,703,l),
(65,568,l),
(71,565,l),
(128,655,o),
(326,659,o),
(481,658,c),
(457,615,o),
(425,573,o),
(394,529,cs),
(30,1,l)
);
}
);
width = 652;
},
{
associatedMasterId = m01;
layerId = "B4FBACBA-C7AD-479E-A114-34F8B1E81FB4";
width = 600;
},
{
associatedMasterId = m01;
layerId = "106DA6D1-F163-4962-ABD1-5D396BDF94D3";
width = 594;
},
{
anchors = (
{
name = bottom;
pos = (354,0);
},
{
name = center;
pos = (336,350);
},
{
name = top;
pos = (355,700);
}
);
associatedMasterId = m01;
layerId = "D4D3B684-1E3F-40E6-989B-661D7BB88C46";
name = "14 gen 22, 20:43";
shapes = (
{
closed = 0;
nodes = (
(216,0,l)
);
},
{
closed = 0;
nodes = (
(481,700,l)
);
},
{
closed = 1;
nodes = (
(642,128,l),
(570,22,o),
(229,44,o),
(79,44,c),
(58,0,l),
(625,-3,l),
(649,124,l)
);
},
{
closed = 1;
nodes = (
(73,572,l),
(145,678,o),
(468,656,o),
(618,656,c),
(649,700,l),
(90,703,l),
(66,576,l)
);
},
{
closed = 1;
nodes = (
(492,643,o),
(450,587,o),
(408,529,cs),
(30,1,l),
(166,0,l),
(200,72,o),
(254,143,o),
(306,216,cs),
(653,700,l),
(515,700,l)
);
}
);
width = 683;
},
{
anchors = (
{
name = bottom;
pos = (494,0);
},
{
name = center;
pos = (476,350);
},
{
name = top;
pos = (505,700);
}
);
layerId = "CF8A9C28-2F26-4C68-964B-3F562C170337";
shapes = (
{
closed = 1;
nodes = (
(912,-4,l),
(961,235,l),
(950,242,l),
(829,109,o),
(732,54,o),
(363,59,c),
(389,104,o),
(457,171,o),
(510,228,c),
(946,701,l),
(105,704,l),
(56,459,l),
(67,452,l),
(185,582,o),
(296,645,o),
(641,642,c),
(618,599,o),
(543,534,o),
(491,479,c),
(30,0,l)
);
}
);
width = 991;
},
{
anchors = (
{
name = bottom;
pos = (524,0);
},
{
name = center;
pos = (506,350);
},
{
name = top;
pos = (525,700);
}
);
associatedMasterId = "CF8A9C28-2F26-4C68-964B-3F562C170337";
layerId = "9BAA4CBF-80D3-4F31-AC93-A3990CEFD65A";
name = "12 mar 22, 16:16";
shapes = (
{
closed = 1;
nodes = (
(942,-4,l),
(992,235,l),
(980,244,l),
(859,111,o),
(707,63,o),
(411,56,c),
(444,113,o),
(497,171,o),
(550,228,c),
(986,701,l),
(135,704,l),
(85,465,l),
(97,456,l),
(215,586,o),
(363,635,o),
(647,644,c),
(615,589,o),
(563,534,o),
(511,479,c),
(60,0,l)
);
}
);
width = 1052;
},
{
anchors = (
{
name = bottom;
pos = (354,0);
},
{
name = center;
pos = (336,350);
},
{
name = top;
pos = (355,700);
}
);
associatedMasterId = m01;
layerId = "A0829C48-7EA0-42CC-8DD7-A0A632170478";
name = "9 apr 22, 13:55";
shapes = (
{
closed = 1;
nodes = (
(614,-3,l),
(638,128,l),
(633,131,l),
(575,46,o),
(344,40,o),
(177,43,c),
(210,100,o),
(253,157,o),
(295,216,cs),
(638,700,l),
(90,703,l),
(65,568,l),
(71,565,l),
(128,655,o),
(335,659,o),
(495,658,c),
(471,615,o),
(440,573,o),
(408,529,cs),
(30,1,l)
);
}
);
width = 668;
},
{
anchors = (
{
name = bottom;
pos = (404,0);
},
{
name = center;
pos = (386,350);
},
{
name = top;
pos = (408,700);
}
);
associatedMasterId = m01;
layerId = "AB41D4FA-9E86-4A3E-A9F5-64A2BBA2AFB6";
shapes = (
{
closed = 1;
nodes = (
(707,-3,l),
(739,161,l),
(732,166,l),
(654,66,o),
(468,44,o),
(245,48,c),
(275,101,o),
(324,161,o),
(369,220,cs),
(737,700,l),
(104,703,l),
(72,534,l),
(79,530,l),
(155,632,o),
(323,655,o),
(537,653,c),
(514,610,o),
(468,561,o),
(431,513,cs),
(39,1,l)
);
}
);
width = 778.375;
}
);
unicode = 90;
}
{
color = 3;
glyphname = bracketleft;
layers = (
{
layerId = m01;
shapes = (
{
closed = 1;
nodes = (
(122,744,l),
(122,744,o),
(125,721,o),
(125,582,c),
(125,-44,l),
(125,-181,o),
(120,-213,o),
(120,-213,c),
(214,-213,l),
(214,-213,o),
(214,-181,o),
(214,-44,c),
(214,583,l),
(214,721,o),
(214,744,o),
(214,744,c)
);
},
{
closed = 1;
nodes = (
(236,710,o),
(318,710,o),
(378,705,c),
(378,747,l),
(317,744,o),
(235,744,o),
(172,744,c),
(123,744,l),
(125,710,l),
(172,710,l)
);
},
{
closed = 1;
nodes = (
(235,-213,o),
(317,-213,o),
(378,-216,c),
(378,-174,l),
(318,-179,o),
(236,-179,o),
(172,-179,c),
(125,-179,l),
(122,-213,l),
(172,-213,l)
);
}
);
width = 387;
},
{
associatedMasterId = m01;
layerId = "B4FBACBA-C7AD-479E-A114-34F8B1E81FB4";
width = 600;
},
{
associatedMasterId = m01;
layerId = "106DA6D1-F163-4962-ABD1-5D396BDF94D3";
width = 600;
},
{
layerId = "CF8A9C28-2F26-4C68-964B-3F562C170337";
shapes = (
{
closed = 1;
nodes = (
(42,753,l),
(42,753,o),
(45,714,o),
(45,582,c),
(45,-44,l),
(45,-175,o),
(40,-213,o),
(40,-213,c),
(246,-213,l),
(246,-213,o),
(246,-175,o),
(246,-44,c),
(246,583,l),
(246,714,o),
(246,753,o),
(246,753,c)
);
},
{
closed = 1;
nodes = (
(268,712,o),
(389,712,o),
(449,707,c),
(449,758,l),
(388,753,o),
(267,753,o),
(204,753,c),
(42,753,l),
(45,712,l),
(204,712,l)
);
},
{
closed = 1;
nodes = (
(267,-213,o),
(388,-213,o),
(449,-218,c),
(449,-167,l),
(388,-172,o),
(267,-172,o),
(204,-172,c),
(44,-172,l),
(42,-213,l),
(204,-213,l)
);
}
);
width = 419;
},
{
associatedMasterId = m01;
layerId = "AB41D4FA-9E86-4A3E-A9F5-64A2BBA2AFB6";
width = 397;
}
);
unicode = 91;
}
{
color = 3;
glyphname = backslash;
layers = (
{
layerId = m01;
shapes = (
{
closed = 1;
nodes = (
(422,-224,l),
(412,-204,o),
(395,-163,o),
(384,-133,qs),
(191,393,o),
(288,130,o),
(95,656,cs),
(84,686,o),
(72,724,o),
(69,744,q),
(0,744,l),
(10,724,o),
(26,686,o),
(37,656,qs),
(326,-133,ls),
(337,-163,o),
(350,-204,o),
(354,-224,q)
);
}
);
width = 422;
},
{
associatedMasterId = m01;
layerId = "B4FBACBA-C7AD-479E-A114-34F8B1E81FB4";
width = 600;
},
{
associatedMasterId = m01;
layerId = "106DA6D1-F163-4962-ABD1-5D396BDF94D3";
width = 600;
},
{
layerId = "CF8A9C28-2F26-4C68-964B-3F562C170337";
shapes = (
{
closed = 1;
nodes = (
(655,-183,l),
(640,-163,o),
(613,-125,o),
(597,-98,qs),
(456,144,o),
(316,387,o),
(175,629,cs),
(146,679,o),
(128,712,o),
(114,746,q),
(50,746,l),
(63,729,o),
(86,694,o),
(128,621,qs),
(549,-106,ls),
(565,-134,o),
(582,-166,o),
(588,-183,q)
);
}
);
width = 705;
},
{
associatedMasterId = m01;
layerId = "AB41D4FA-9E86-4A3E-A9F5-64A2BBA2AFB6";
width = 510.4375;
}
);
unicode = 92;
}
{
color = 3;
glyphname = asciicircum;
layers = (
{
layerId = m01;
shapes = (
{
closed = 1;
nodes = (
(257,503,l),
(186,654,l),
(116,503,l),
(71,503,l),
(163,700,l),
(209,700,l),
(302,503,l)
);
}
);
width = 398;
},
{
associatedMasterId = m01;
layerId = "B4FBACBA-C7AD-479E-A114-34F8B1E81FB4";
width = 600;
},
{
associatedMasterId = m01;
layerId = "106DA6D1-F163-4962-ABD1-5D396BDF94D3";
width = 600;
},
{
layerId = "CF8A9C28-2F26-4C68-964B-3F562C170337";
shapes = (
{
closed = 1;
nodes = (
(436,503,l),
(285,654,l),
(135,503,l),
(70,503,l),
(262,700,l),
(308,700,l),
(501,503,l)
);
}
);
width = 571;
},
{
associatedMasterId = m01;
layerId = "AB41D4FA-9E86-4A3E-A9F5-64A2BBA2AFB6";
shapes = (
{
closed = 1;
nodes = (
(313,503,l),
(217,654,l),
(122,503,l),
(71,503,l),
(194,700,l),
(240,700,l),
(364,503,l)
);
}
);
width = 452.0625;
}
);
unicode = 94;
}
{
color = 3;
glyphname = underscore;
layers = (
{
layerId = m01;
shapes = (
{
closed = 1;
nodes = (
(40,-76,l),
(472,-76,l),
(472,-30,l),
(40,-30,l)
);
}
);
width = 512;
},
{
associatedMasterId = m01;
layerId = "B4FBACBA-C7AD-479E-A114-34F8B1E81FB4";
width = 600;
},
{
associatedMasterId = m01;
layerId = "106DA6D1-F163-4962-ABD1-5D396BDF94D3";
width = 420;
},
{
layerId = "CF8A9C28-2F26-4C68-964B-3F562C170337";
shapes = (
{
closed = 1;
nodes = (
(45,-90,l),
(468,-90,l),
(468,-34,l),
(45,-34,l)
);
}
);
width = 513;
},
{
associatedMasterId = m01;
layerId = "AB41D4FA-9E86-4A3E-A9F5-64A2BBA2AFB6";
shapes = (
{
closed = 1;
nodes = (
(42,-80,l),
(471,-80,l),
(471,-31,l),
(42,-31,l)
);
}
);
width = 512.3125;
}
);
unicode = 95;
}
{
color = 3;
glyphname = a;
kernLeft = a;
kernRight = n;
layers = (
{
anchors = (
{
name = bottom;
pos = (239,0);
},
{
name = ogonek;
pos = (444,10);
},
{
name = top;
pos = (268,508);
}
);
layerId = m01;
shapes = (
{
closed = 1;
nodes = (
(497,34,l),
(489,38,o),
(470,58,o),
(470,159,cs),
(470,346,ls),
(470,455,o),
(389,520,o),
(277,520,cs),
(191,520,o),
(142,500,o),
(81,458,c),
(99,343,l),
(101,343,l),
(127,410,o),
(194,461,o),
(261,461,cs),
(347,461,o),
(389,424,o),
(389,331,cs),
(389,281,l),
(337,288,o),
(283,289,o),
(234,284,cs),
(126,272,o),
(40,225,o),
(40,126,cs),
(40,37,o),
(102,-12,o),
(187,-12,cs),
(271,-12,o),
(338,36,o),
(388,110,c),
(387,0,o),
(386,-10,o),
(386,-10,c),
(497,32,l)
);
},
{
closed = 1;
nodes = (
(123,198,o),
(163,265,o),
(389,254,c),
(389,155,l),
(343,96,o),
(294,59,o),
(224,59,cs),
(159,59,o),
(123,91,o),
(123,150,cs)
);
}
);
width = 547;
},
{
associatedMasterId = m01;
layerId = "7F0C24B3-BD47-4AF6-B18A-48002C0A3030";
width = 600;
},
{
associatedMasterId = m01;
layerId = "B4FBACBA-C7AD-479E-A114-34F8B1E81FB4";
width = 600;
},
{
associatedMasterId = m01;
layerId = "106DA6D1-F163-4962-ABD1-5D396BDF94D3";
width = 606;
},
{
anchors = (
{
name = bottom;
pos = (256,0);
},
{
name = ogonek;
pos = (461,10);
},
{
name = top;
pos = (256,508);
}
);
associatedMasterId = m01;
layerId = "7A7362F4-6A55-4DED-B4D2-07D75FF80D53";
name = "11 dic 21, 18:36";
shapes = (
{
closed = 1;
nodes = (
(517,36,l),
(509,40,o),
(489,61,o),
(489,166,c),
(489,309,l),
(489,473,o),
(399,539,o),
(299,539,cs),
(238,539,o),
(169,516,o),
(93,441,c),
(109,331,l),
(111,331,l),
(149,412,o),
(218,468,o),
(286,468,cs),
(356,468,o),
(405,420,o),
(404,262,c),
(401,3,o),
(401,-10,o),
(401,-10,c),
(517,34,l)
);
},
{
closed = 1;
nodes = (
(436,299,l),
(390,298,o),
(345,298,o),
(299,295,cs),
(138,285,o),
(60,225,o),
(60,129,c),
(60,54,o),
(120,-7,o),
(212,-7,c),
(309,-7,o),
(394,61,o),
(450,164,c),
(445,197,l),
(391,116,o),
(324,59,o),
(241,59,cs),
(176,59,o),
(137,86,o),
(137,147,cs),
(137,200,o),
(187,268,o),
(431,268,c),
(434,268,o),
(437,268,o),
(440,268,c)
);
}
);
width = 604;
},
{
anchors = (
{
name = bottom;
pos = (254,0);
},
{
name = ogonek;
pos = (459,10);
},
{
name = top;
pos = (254,508);
}
);
associatedMasterId = m01;
layerId = "6D295716-2B04-4FA6-B918-30B752007826";
name = "11 dic 21, 21:03";
shapes = (
{
closed = 1;
nodes = (
(512,34,l),
(504,38,o),
(485,58,o),
(485,159,c),
(485,346,ls),
(485,455,o),
(404,520,o),
(295,520,cs),
(217,520,o),
(163,498,o),
(90,436,c),
(105,340,l),
(107,340,l),
(134,408,o),
(209,461,o),
(275,461,cs),
(362,461,o),
(404,424,o),
(404,331,cs),
(404,12,o),
(401,-10,o),
(401,-10,c),
(512,32,l)
);
},
{
closed = 1;
nodes = (
(419,279,l),
(375,284,o),
(342,284,o),
(297,284,cs),
(133,284,o),
(55,226,o),
(55,124,cs),
(55,43,o),
(117,-12,o),
(204,-12,cs),
(307,-12,o),
(379,58,o),
(432,157,c),
(428,189,l),
(376,111,o),
(321,59,o),
(232,59,cs),
(174,59,o),
(138,91,o),
(138,141,cs),
(138,212,o),
(200,256,o),
(414,256,c),
(417,256,o),
(420,256,o),
(423,256,c)
);
}
);
width = 567;
},
{
anchors = (
{
name = bottom;
pos = (254,0);
},
{
name = ogonek;
pos = (459,10);
},
{
name = top;
pos = (254,508);
}
);
associatedMasterId = m01;
layerId = "CA80ECE7-DCED-44C1-BCB5-52D6280CA403";
name = "11 dic 21, 21:04";
shapes = (
{
closed = 1;
nodes = (
(522,34,l),
(514,38,o),
(495,58,o),
(485,159,c),
(485,346,ls),
(485,455,o),
(404,520,o),
(295,520,cs),
(217,520,o),
(163,498,o),
(90,436,c),
(105,340,l),
(107,340,l),
(134,408,o),
(209,461,o),
(275,461,cs),
(362,461,o),
(404,424,o),
(404,331,cs),
(404,226,o),
(404,158,o),
(403,107,c),
(412,4,o),
(411,-10,o),
(411,-10,c),
(522,32,l)
);
},
{
closed = 1;
nodes = (
(419,279,l),
(375,284,o),
(342,284,o),
(297,284,cs),
(133,284,o),
(55,226,o),
(55,124,cs),
(55,43,o),
(117,-12,o),
(204,-12,cs),
(307,-12,o),
(379,58,o),
(432,157,c),
(428,189,l),
(376,111,o),
(321,59,o),
(232,59,cs),
(174,59,o),
(138,91,o),
(138,141,cs),
(138,212,o),
(200,256,o),
(414,256,c),
(417,256,o),
(420,256,o),
(423,256,c)
);
}
);
width = 567;
},
{
anchors = (
{
name = bottom;
pos = (254,0);
},
{
name = ogonek;
pos = (459,10);
},
{
name = top;
pos = (254,508);
}
);
associatedMasterId = m01;
layerId = "D576C7B8-71CB-461F-B904-C1DCCFF11D53";
name = "11 dic 21, 21:04";
shapes = (
{
closed = 1;
nodes = (
(522,34,l),
(514,38,o),
(495,58,o),
(485,159,c),
(485,346,ls),
(485,455,o),
(404,520,o),
(295,520,cs),
(217,520,o),
(163,498,o),
(90,436,c),
(105,340,l),
(107,340,l),
(134,408,o),
(209,461,o),
(275,461,cs),
(362,461,o),
(404,424,o),
(404,331,cs),
(404,226,o),
(404,158,o),
(403,107,c),
(412,4,o),
(411,-10,o),
(411,-10,c),
(522,32,l)
);
},
{
closed = 1;
nodes = (
(419,279,l),
(375,284,o),
(342,284,o),
(297,284,cs),
(133,284,o),
(55,226,o),
(55,124,cs),
(55,43,o),
(117,-12,o),
(204,-12,cs),
(307,-12,o),
(379,58,o),
(432,157,c),
(428,189,l),
(376,111,o),
(321,59,o),
(232,59,cs),
(174,59,o),
(138,91,o),
(138,141,cs),
(138,212,o),
(200,256,o),
(414,256,c),
(417,256,o),
(420,256,o),
(423,256,c)
);
}
);
width = 567;
},
{
anchors = (
{
name = bottom;
pos = (254,0);
},
{
name = ogonek;
pos = (459,10);
},
{
name = top;
pos = (283,508);
}
);
associatedMasterId = m01;
layerId = "242FB37B-670B-42B5-97A8-DBD8EB9106A2";
name = "8 gen 22, 14:00";
shapes = (
{
closed = 1;
nodes = (
(512,34,l),
(504,38,o),
(485,58,o),
(485,159,c),
(485,346,ls),
(485,455,o),
(404,520,o),
(295,520,cs),
(217,520,o),
(163,498,o),
(90,436,c),
(105,340,l),
(107,340,l),
(134,408,o),
(209,461,o),
(275,461,cs),
(362,461,o),
(404,424,o),
(404,331,cs),
(404,12,o),
(401,-10,o),
(401,-10,c),
(512,32,l)
);
},
{
closed = 1;
nodes = (
(419,279,l),
(251,304,o),
(55,280,o),
(55,119,cs),
(55,33,o),
(117,-12,o),
(204,-12,cs),
(307,-12,o),
(379,58,o),
(432,157,c),
(428,189,l),
(375,111,o),
(321,59,o),
(239,59,cs),
(174,59,o),
(138,91,o),
(138,144,cs),
(138,212,o),
(200,256,o),
(414,256,c),
(417,256,o),
(420,256,o),
(423,256,c)
);
}
);
width = 567;
},
{
anchors = (
{
name = bottom;
pos = (254,0);
},
{
name = ogonek;
pos = (459,10);
},
{
name = top;
pos = (283,508);
}
);
associatedMasterId = m01;
layerId = "02AD87B1-34F3-497B-958F-BF1298A0D19F";
name = "19 gen 22, 21:50";
shapes = (
{
closed = 1;
nodes = (
(512,34,l),
(504,38,o),
(485,58,o),
(485,159,c),
(485,346,ls),
(485,455,o),
(404,520,o),
(295,520,cs),
(217,520,o),
(163,498,o),
(90,436,c),
(105,340,l),
(107,340,l),
(134,408,o),
(209,461,o),
(275,461,cs),
(362,461,o),
(404,424,o),
(404,331,cs),
(404,12,o),
(401,-10,o),
(401,-10,c),
(512,32,l)
);
},
{
closed = 1;
nodes = (
(419,279,l),
(251,304,o),
(55,279,o),
(55,119,cs),
(55,37,o),
(117,-12,o),
(202,-12,cs),
(303,-12,o),
(379,58,o),
(432,157,c),
(428,189,l),
(375,111,o),
(321,59,o),
(239,59,cs),
(174,59,o),
(138,91,o),
(138,144,cs),
(138,212,o),
(200,256,o),
(414,256,c),
(417,256,o),
(420,256,o),
(423,256,c)
);
}
);
width = 567;
},
{
anchors = (
{
name = bottom;
pos = (254,0);
},
{
name = ogonek;
pos = (459,10);
},
{
name = top;
pos = (283,508);
}
);
associatedMasterId = m01;
layerId = "6F967631-1453-483A-9A99-C75AEE3362D9";
name = "5 feb 22, 18:26";
shapes = (
{
closed = 1;
nodes = (
(512,34,l),
(504,38,o),
(485,58,o),
(485,159,c),
(485,346,ls),
(485,455,o),
(404,520,o),
(292,520,cs),
(206,520,o),
(157,500,o),
(96,458,c),
(114,343,l),
(116,343,l),
(142,410,o),
(209,461,o),
(276,461,cs),
(362,461,o),
(404,424,o),
(404,331,cs),
(404,12,o),
(401,-10,o),
(401,-10,c),
(512,32,l)
);
},
{
closed = 1;
nodes = (
(419,279,l),
(251,304,o),
(55,279,o),
(55,119,cs),
(55,37,o),
(117,-12,o),
(202,-12,cs),
(303,-12,o),
(379,58,o),
(432,157,c),
(428,189,l),
(375,111,o),
(321,59,o),
(239,59,cs),
(174,59,o),
(138,91,o),
(138,144,cs),
(138,212,o),
(200,256,o),
(414,256,c),
(417,256,o),
(420,256,o),
(423,256,c)
);
}
);
width = 567;
},
{
anchors = (
{
name = bottom;
pos = (445,-10);
},
{
name = ogonek;
pos = (780,20);
},
{
name = top;
pos = (484,508);
}
);
layerId = "CF8A9C28-2F26-4C68-964B-3F562C170337";
shapes = (
{
closed = 1;
nodes = (
(904,25,l),
(896,29,o),
(877,58,o),
(877,159,cs),
(877,306,ls),
(877,414,o),
(781,520,o),
(511,520,cs),
(329,520,o),
(148,458,o),
(87,428,c),
(121,279,l),
(123,279,l),
(238,380,o),
(354,423,o),
(480,423,cs),
(626,423,o),
(683,380,o),
(683,287,cs),
(683,279,l),
(616,286,o),
(505,292,o),
(442,292,cs),
(240,292,o),
(60,216,o),
(60,111,c),
(60,48,o),
(114,-20,o),
(317,-20,cs),
(388,-20,o),
(578,67,o),
(682,123,c),
(683,82,o),
(686,36,o),
(687,-10,c),
(904,23,l)
);
},
{
closed = 1;
nodes = (
(271,211,o),
(344,250,o),
(683,238,c),
(682,167,l),
(556,117,o),
(458,104,o),
(384,104,cs),
(303,104,o),
(271,134,o),
(271,159,cs)
);
}
);
width = 969;
},
{
anchors = (
{
name = bottom;
pos = (254,0);
},
{
name = ogonek;
pos = (458,12);
},
{
name = top;
pos = (283,508);
}
);
associatedMasterId = "CF8A9C28-2F26-4C68-964B-3F562C170337";
layerId = "50972D15-9067-435D-90BC-87DA22E16C0B";
name = "12 feb 22, 15:09";
shapes = (
{
closed = 1;
nodes = (
(925,25,l),
(917,29,o),
(898,58,o),
(898,159,cs),
(898,316,ls),
(898,414,o),
(812,520,o),
(532,520,cs),
(350,520,o),
(169,453,o),
(108,411,c),
(142,264,l),
(144,264,l),
(259,365,o),
(434,394,o),
(501,394,cs),
(587,394,o),
(704,354,o),
(704,281,c),
(703,110,l),
(702,0,o),
(701,-10,o),
(701,-10,c),
(925,23,l)
);
},
{
closed = 1;
nodes = (
(750,275,o),
(538,281,o),
(463,281,c),
(261,281,o),
(81,216,o),
(81,111,cs),
(81,48,o),
(146,-11,o),
(361,-11,cs),
(443,-11,o),
(653,93,o),
(747,155,c),
(742,178,l),
(597,112,o),
(486,104,o),
(405,104,cs),
(324,104,o),
(293,134,o),
(293,159,cs),
(293,213,o),
(370,242,o),
(738,242,c),
(750,265,l)
);
}
);
width = 600;
},
{
anchors = (
{
name = bottom;
pos = (455,-10);
},
{
name = ogonek;
pos = (821,12);
},
{
name = top;
pos = (511,508);
}
);
associatedMasterId = "CF8A9C28-2F26-4C68-964B-3F562C170337";
layerId = "07D927CD-9244-4BFF-872A-99B3D2BE4149";
name = "12 feb 22, 15:17";
shapes = (
{
closed = 1;
nodes = (
(914,25,l),
(906,29,o),
(887,58,o),
(887,159,cs),
(887,306,ls),
(887,414,o),
(791,520,o),
(521,520,cs),
(339,520,o),
(158,453,o),
(97,413,c),
(131,264,l),
(133,264,l),
(248,365,o),
(364,404,o),
(490,404,cs),
(596,404,o),
(693,354,o),
(693,281,cs),
(693,273,l),
(626,278,o),
(505,281,o),
(452,281,cs),
(250,281,o),
(50,216,o),
(50,111,cs),
(50,48,o),
(112,-10,o),
(327,-10,cs),
(398,-10,o),
(588,67,o),
(692,128,c),
(691,82,o),
(691,36,o),
(690,-10,c),
(914,23,l)
);
},
{
closed = 1;
nodes = (
(262,211,o),
(354,250,o),
(693,242,c),
(692,161,l),
(566,111,o),
(468,104,o),
(394,104,cs),
(313,104,o),
(262,134,o),
(262,159,cs)
);
}
);
width = 994;
},
{
anchors = (
{
name = bottom;
pos = (475,-10);
},
{
name = ogonek;
pos = (841,12);
},
{
name = top;
pos = (531,508);
}
);
associatedMasterId = "CF8A9C28-2F26-4C68-964B-3F562C170337";
layerId = "CA9D1FDB-262B-406F-A10E-A041C97CB59B";
name = "13 feb 22, 11:40";
shapes = (
{
closed = 1;
nodes = (
(934,25,l),
(926,29,o),
(907,58,o),
(907,159,cs),
(907,306,ls),
(907,414,o),
(811,520,o),
(541,520,cs),
(359,520,o),
(178,453,o),
(117,423,c),
(151,264,l),
(153,264,l),
(268,365,o),
(384,409,o),
(510,409,cs),
(616,409,o),
(713,354,o),
(713,281,cs),
(713,273,l),
(646,278,o),
(525,281,o),
(472,281,cs),
(270,281,o),
(70,216,o),
(70,111,cs),
(70,48,o),
(132,-10,o),
(347,-10,cs),
(418,-10,o),
(608,67,o),
(712,128,c),
(711,82,o),
(711,36,o),
(710,-10,c),
(934,23,l)
);
},
{
closed = 1;
nodes = (
(282,211,o),
(374,250,o),
(713,242,c),
(712,161,l),
(586,111,o),
(488,104,o),
(414,104,cs),
(333,104,o),
(282,134,o),
(282,159,cs)
);
}
);
width = 1019;
},
{
anchors = (
{
name = bottom;
pos = (475,-10);
},
{
name = ogonek;
pos = (841,12);
},
{
name = top;
pos = (531,508);
}
);
annotations = (
{
pos = (414,-48);
text = overshoottare;
type = Text;
},
{
pos = (180,90);
text = "oiù nero";
type = Text;
}
);
associatedMasterId = "CF8A9C28-2F26-4C68-964B-3F562C170337";
layerId = "9E9EE1D3-1EDF-45E5-8329-75262E5DC491";
name = "13 feb 22, 11:41";
shapes = (
{
closed = 1;
nodes = (
(934,25,l),
(926,29,o),
(907,58,o),
(907,159,cs),
(907,306,ls),
(907,414,o),
(811,520,o),
(541,520,cs),
(359,520,o),
(178,453,o),
(117,423,c),
(151,264,l),
(153,264,l),
(268,365,o),
(384,409,o),
(510,409,cs),
(616,409,o),
(713,354,o),
(713,281,cs),
(713,273,l),
(646,278,o),
(525,281,o),
(472,281,cs),
(270,281,o),
(70,216,o),
(70,111,cs),
(70,48,o),
(132,-10,o),
(347,-10,cs),
(418,-10,o),
(608,67,o),
(712,128,c),
(711,82,o),
(711,36,o),
(710,-10,c),
(934,23,l)
);
},
{
closed = 1;
nodes = (
(282,211,o),
(374,250,o),
(713,242,c),
(712,161,l),
(586,111,o),
(488,104,o),
(414,104,cs),
(333,104,o),
(282,134,o),
(282,159,cs)
);
}
);
width = 1019;
},
{
anchors = (
{
name = bottom;
pos = (475,-10);
},
{
name = ogonek;
pos = (841,12);
},
{
name = top;
pos = (531,508);
}
);
annotations = (
{
pos = (414,-48);
text = overshoottare;
type = Text;
},
{
pos = (180,90);
text = "oiù nero";
type = Text;
}
);
associatedMasterId = "CF8A9C28-2F26-4C68-964B-3F562C170337";
layerId = "7D2812AA-841C-4EE1-95F9-9BA263F6F23F";
name = "13 feb 22, 12:22";
shapes = (
{
closed = 1;
nodes = (
(934,25,l),
(926,29,o),
(907,58,o),
(907,159,cs),
(907,306,ls),
(907,414,o),
(811,520,o),
(541,520,cs),
(359,520,o),
(178,453,o),
(117,423,c),
(151,264,l),
(153,264,l),
(268,365,o),
(384,409,o),
(510,409,cs),
(616,409,o),
(713,354,o),
(713,281,cs),
(713,273,l),
(646,278,o),
(525,281,o),
(472,281,cs),
(270,281,o),
(70,216,o),
(70,111,cs),
(70,48,o),
(132,-10,o),
(347,-10,cs),
(418,-10,o),
(608,67,o),
(712,128,c),
(711,82,o),
(711,36,o),
(710,-10,c),
(934,23,l)
);
},
{
closed = 1;
nodes = (
(282,211,o),
(374,250,o),
(713,242,c),
(712,161,l),
(586,111,o),
(488,104,o),
(414,104,cs),
(333,104,o),
(282,134,o),
(282,159,cs)
);
}
);
width = 1019;
},
{
anchors = (
{
name = bottom;
pos = (254,0);
},
{
name = ogonek;
pos = (459,10);
},
{
name = top;
pos = (283,508);
}
);
associatedMasterId = m01;
layerId = "CC3AD22A-4B7E-474F-AF84-B8FBC5015913";
name = "9 apr 22, 12:13";
shapes = (
{
closed = 1;
nodes = (
(512,34,l),
(504,38,o),
(485,58,o),
(485,159,cs),
(485,346,ls),
(485,455,o),
(404,520,o),
(292,520,cs),
(206,520,o),
(157,500,o),
(96,458,c),
(114,343,l),
(116,343,l),
(142,410,o),
(209,461,o),
(276,461,cs),
(362,461,o),
(404,424,o),
(404,331,cs),
(404,281,l),
(352,288,o),
(298,289,o),
(249,284,cs),
(141,272,o),
(55,225,o),
(55,119,cs),
(55,37,o),
(117,-12,o),
(202,-12,cs),
(286,-12,o),
(353,36,o),
(403,110,c),
(402,0,o),
(401,-10,o),
(401,-10,c),
(512,32,l)
);
},
{
closed = 1;
nodes = (
(138,211,o),
(198,254,o),
(404,256,c),
(404,155,l),
(358,96,o),
(309,59,o),
(239,59,cs),
(174,59,o),
(138,91,o),
(138,144,cs)
);
}
);
width = 567;
},
{
anchors = (
{
name = bottom;
pos = (314,-3);
},
{
name = ogonek;
pos = (559,13);
},
{
name = top;
pos = (346,508);
}
);
associatedMasterId = m01;
layerId = "AB41D4FA-9E86-4A3E-A9F5-64A2BBA2AFB6";
shapes = (
{
closed = 1;
nodes = (
(635,31,l),
(627,35,o),
(608,58,o),
(608,159,cs),
(608,334,ls),
(608,442,o),
(522,520,o),
(360,520,cs),
(244,520,o),
(154,487,o),
(93,449,c),
(116,323,l),
(118,323,l),
(172,401,o),
(254,449,o),
(340,449,cs),
(445,449,o),
(491,410,o),
(491,317,cs),
(491,280,l),
(435,287,o),
(363,290,o),
(309,287,cs),
(172,278,o),
(57,222,o),
(57,121,cs),
(57,40,o),
(116,-15,o),
(238,-15,cs),
(318,-15,o),
(423,46,o),
(490,114,c),
(490,26,o),
(490,4,o),
(490,-10,c),
(635,29,l)
);
},
{
closed = 1;
nodes = (
(180,202,o),
(230,260,o),
(491,249,c),
(491,159,l),
(420,103,o),
(356,73,o),
(284,73,cs),
(214,73,o),
(180,104,o),
(180,153,cs)
);
}
);
width = 698.875;
}
);
metricRight = n;
unicode = 97;
}
{
color = 3;
glyphname = b;
kernRight = o;
layers = (
{
layerId = m01;
shapes = (
{
closed = 1;
nodes = (
(115,15,l),
(148,0,o),
(195,-12,o),
(245,-12,cs),
(413,-12,o),
(527,121,o),
(527,284,cs),
(527,423,o),
(434,520,o),
(323,520,cs),
(260,520,o),
(198,489,o),
(152,447,c),
(152,744,l),
(45,684,l),
(56,671,o),
(70,643,o),
(70,571,cs),
(70,222,ls),
(70,99,o),
(67,34,o),
(51,-8,c),
(51,-8,o),
(50,-9,o),
(50,-10,c),
(53,-9,l)
);
},
{
closed = 1;
nodes = (
(152,403,l),
(187,432,o),
(231,452,o),
(278,452,cs),
(379,452,o),
(436,364,o),
(436,234,cs),
(436,107,o),
(372,36,o),
(277,36,cs),
(233,36,o),
(186,52,o),
(152,88,c)
);
}
);
width = 567;
},
{
associatedMasterId = m01;
layerId = "7F0C24B3-BD47-4AF6-B18A-48002C0A3030";
width = 600;
},
{
associatedMasterId = m01;
layerId = "B4FBACBA-C7AD-479E-A114-34F8B1E81FB4";
width = 600;
},
{
associatedMasterId = m01;
layerId = "106DA6D1-F163-4962-ABD1-5D396BDF94D3";
width = 634.5;
},
{
associatedMasterId = m01;
layerId = "B10E6E55-53B9-489F-9626-8E2C265940A1";
name = "19 gen 22, 22:58";
shapes = (
{
closed = 1;
nodes = (
(96,64,l),
(116,18,o),
(185,-12,o),
(265,-12,cs),
(433,-12,o),
(547,121,o),
(547,284,cs),
(547,423,o),
(454,520,o),
(343,520,cs),
(258,520,o),
(177,464,o),
(130,402,c),
(146,378,l),
(184,420,o),
(238,452,o),
(298,452,cs),
(399,452,o),
(456,364,o),
(456,234,cs),
(456,107,o),
(392,36,o),
(297,36,cs),
(236,36,o),
(168,66,o),
(140,141,c)
);
},
{
closed = 1;
nodes = (
(71,-8,l),
(71,-8,o),
(70,-9,o),
(70,-10,c),
(73,-9,l)
);
},
{
closed = 1;
nodes = (
(73,-9,l),
(172,30,l),
(172,744,l),
(65,684,l),
(76,671,o),
(90,643,o),
(90,571,cs),
(90,222,ls),
(90,99,o),
(87,34,o),
(71,-8,c)
);
}
);
width = 602;
},
{
layerId = "CF8A9C28-2F26-4C68-964B-3F562C170337";
shapes = (
{
closed = 1;
nodes = (
(226,53,l),
(278,31,o),
(367,-14,o),
(515,-14,cs),
(719,-14,o),
(953,90,o),
(953,276,cs),
(953,434,o),
(829,520,o),
(577,520,cs),
(534,520,o),
(414,479,o),
(269,377,c),
(269,744,l),
(56,684,l),
(67,671,o),
(81,643,o),
(81,571,cs),
(81,222,ls),
(81,99,o),
(78,34,o),
(62,-8,c),
(62,-8,o),
(61,-9,o),
(61,-10,c),
(64,-9,l)
);
},
{
closed = 1;
nodes = (
(269,333,l),
(389,404,o),
(486,398,o),
(521,398,cs),
(622,398,o),
(752,341,o),
(752,211,cs),
(752,92,o),
(628,40,o),
(532,40,cs),
(383,40,o),
(317,97,o),
(269,145,c)
);
}
);
width = 1008;
},
{
associatedMasterId = m01;
layerId = "5FA9760C-D30E-4B69-8270-4228B11CA9B2";
name = "12 feb 22, 15:22";
shapes = (
{
closed = 1;
nodes = (
(90,44,l),
(116,18,o),
(185,-12,o),
(265,-12,cs),
(433,-12,o),
(547,121,o),
(547,284,cs),
(547,423,o),
(454,520,o),
(343,520,cs),
(258,520,o),
(177,464,o),
(130,402,c),
(146,378,l),
(184,420,o),
(238,452,o),
(298,452,cs),
(399,452,o),
(456,364,o),
(456,234,cs),
(456,107,o),
(392,36,o),
(297,36,cs),
(236,36,o),
(168,66,o),
(140,141,c)
);
},
{
closed = 1;
nodes = (
(71,-8,l),
(71,-8,o),
(70,-9,o),
(70,-10,c),
(73,-9,l)
);
},
{
closed = 1;
nodes = (
(73,-9,l),
(172,30,l),
(172,744,l),
(65,684,l),
(76,671,o),
(90,643,o),
(90,571,cs),
(90,222,ls),
(90,99,o),
(87,34,o),
(71,-8,c)
);
}
);
width = 602;
},
{
associatedMasterId = m01;
layerId = "AB41D4FA-9E86-4A3E-A9F5-64A2BBA2AFB6";
shapes = (
{
closed = 1;
nodes = (
(173,27,l),
(211,10,o),
(272,-13,o),
(352,-13,cs),
(531,-13,o),
(683,111,o),
(683,282,cs),
(683,426,o),
(580,520,o),
(425,520,cs),
(368,520,o),
(288,486,o),
(211,425,c),
(211,744,l),
(71,684,l),
(82,671,o),
(96,643,o),
(96,571,cs),
(96,222,ls),
(96,99,o),
(93,34,o),
(77,-8,c),
(77,-8,o),
(76,-9,o),
(76,-10,c),
(79,-9,l)
);
},
{
closed = 1;
nodes = (
(211,381,l),
(273,423,o),
(334,435,o),
(377,435,cs),
(478,435,o),
(558,357,o),
(558,227,cs),
(558,102,o),
(475,37,o),
(380,37,cs),
(303,37,o),
(250,66,o),
(211,106,c)
);
}
);
width = 737.625;
}
);
metricLeft = n;
metricRight = o;
unicode = 98;
}
